<svg width="77" height="28" viewBox="0 0 77 28" fill="none" xmlns="http://www.w3.org/2000/svg">
<path d="M0 14C0 6.26801 6.26801 0 14 0H38.5H63C70.732 0 77 6.26801 77 14V14C77 21.732 70.732 28 63 28H38.5H14C6.26801 28 0 21.732 0 14V14Z" fill="white"/>
<path d="M0 14C0 6.26801 6.26801 0 14 0H38.5H63C70.732 0 77 6.26801 77 14V14C77 21.732 70.732 28 63 28H38.5H14C6.26801 28 0 21.732 0 14V14Z" fill="url(#paint0_linear_1429_55)"/>
<path fill-rule="evenodd" clip-rule="evenodd" d="M38.5 0H14C6.26801 0 0 6.26801 0 14V14C0 21.732 6.26801 28 14 28H38.5V0Z" fill="#4273ED"/>
<path fill-rule="evenodd" clip-rule="evenodd" d="M38.5 0H14C6.26801 0 0 6.26801 0 14V14C0 21.732 6.26801 28 14 28H38.5V0Z" fill="url(#paint1_linear_1429_55)"/>
<path fill-rule="evenodd" clip-rule="evenodd" d="M38.5 0H14C6.26801 0 0 6.26801 0 14V14C0 21.732 6.26801 28 14 28H38.5V0Z" fill="url(#paint2_linear_1429_55)"/>
<g filter="url(#filter0_f_1429_55)">
<ellipse cx="12.2526" cy="7.23184" rx="4.2406" ry="2" transform="rotate(-5.89215 12.2526 7.23184)" fill="white"/>
</g>
<defs>
<filter id="filter0_f_1429_55" x="4.0293" y="1.19482" width="16.4463" height="12.074" filterUnits="userSpaceOnUse" color-interpolation-filters="sRGB">
<feFlood flood-opacity="0" result="BackgroundImageFix"/>
<feBlend mode="normal" in="SourceGraphic" in2="BackgroundImageFix" result="shape"/>
<feGaussianBlur stdDeviation="2" result="effect1_foregroundBlur_1429_55"/>
</filter>
<linearGradient id="paint0_linear_1429_55" x1="38.5" y1="0" x2="38.5" y2="28" gradientUnits="userSpaceOnUse">
<stop stop-opacity="0"/>
<stop offset="0.785" stop-opacity="0.2"/>
<stop offset="1" stop-opacity="0"/>
</linearGradient>
<linearGradient id="paint1_linear_1429_55" x1="38.5" y1="0" x2="38.5" y2="28" gradientUnits="userSpaceOnUse">
<stop stop-color="#002277" stop-opacity="0"/>
<stop offset="0.785" stop-color="#002277" stop-opacity="0.5"/>
<stop offset="1" stop-color="#002277" stop-opacity="0"/>
</linearGradient>
<linearGradient id="paint2_linear_1429_55" x1="38.5" y1="0" x2="38.5" y2="28" gradientUnits="userSpaceOnUse">
<stop stop-color="white" stop-opacity="0"/>
<stop offset="0.225" stop-color="white" stop-opacity="0.3"/>
<stop offset="0.435" stop-color="white" stop-opacity="0"/>
<stop offset="1" stop-color="white" stop-opacity="0"/>
</linearGradient>
</defs>
</svg>
