<svg width="48" height="48" viewBox="0 0 48 48" fill="none" xmlns="http://www.w3.org/2000/svg">
<path d="M29.6892 4.65863C30.8561 4.65888 31.975 5.12261 32.8 5.94783L35.9108 9.05863H41.6C42.767 9.05863 43.8861 9.5222 44.7113 10.3474C45.5364 11.1725 46 12.2917 46 13.4586V39.8586C46 41.0256 45.5364 42.1447 44.7113 42.9699C43.8861 43.7951 42.767 44.2586 41.6 44.2586H6.4C5.23305 44.2586 4.11389 43.7951 3.28873 42.9699C2.46357 42.1447 2 41.0256 2 39.8586V13.4586C2 12.2917 2.46357 11.1725 3.28873 10.3474C4.11389 9.5222 5.23305 9.05863 6.4 9.05863H12.0892L15.2 5.94783C16.025 5.12261 17.1439 4.65888 18.3108 4.65863H29.6892ZM29.6892 9.05863H18.3108L15.2 12.1694C14.375 12.9946 13.2561 13.4584 12.0892 13.4586H6.4V39.8586H41.6V13.4586H35.9108C34.7439 13.4584 33.625 12.9946 32.8 12.1694L29.6892 9.05863ZM16.6432 25.5586C17.1129 25.5641 17.5685 25.7197 17.9434 26.0027C18.3183 26.2858 18.5928 26.6814 18.7266 27.1316C19.0326 28.1531 19.6286 29.0636 20.4423 29.7527C21.256 30.4418 22.2524 30.8797 23.3103 31.0132C24.3681 31.1467 25.442 30.9701 26.4014 30.5048C27.3608 30.0395 28.1644 29.3056 28.7146 28.3922C28.8618 28.141 29.0574 27.9214 29.29 27.7463C29.5227 27.5713 29.7878 27.4441 30.07 27.3722C30.3522 27.3004 30.6458 27.2853 30.9339 27.3278C31.222 27.3703 31.4988 27.4695 31.7482 27.6198C31.9976 27.77 32.2147 27.9683 32.3869 28.2031C32.5591 28.4379 32.683 28.7046 32.7514 28.9876C32.8198 29.2707 32.8313 29.5645 32.7852 29.852C32.7392 30.1395 32.6365 30.4151 32.4832 30.6626C31.7264 31.9223 30.6985 32.9976 29.4742 33.8104C28.2499 34.6232 26.86 35.1531 25.4053 35.3617C23.9506 35.5702 22.4678 35.4522 21.0644 35.0161C19.6611 34.5801 18.3725 33.8369 17.2922 32.8406C17.1193 33.3748 16.7487 33.8227 16.2563 34.0925C15.764 34.3623 15.1871 34.4337 14.6438 34.292C14.1005 34.1502 13.6319 33.8061 13.3341 33.3302C13.0363 32.8542 12.9317 32.2824 13.0418 31.7318L13.1078 31.4832L14.5246 27.0832C14.6688 26.6362 14.9522 26.2471 15.3334 25.9728C15.7146 25.6985 16.1736 25.5533 16.6432 25.5586ZM24 15.6586C26.486 15.6579 28.8814 16.5924 30.71 18.2766C30.8989 17.7329 31.2933 17.2848 31.8088 17.0286C32.3242 16.7723 32.9195 16.7283 33.467 16.9059C34.0145 17.0835 34.4706 17.4686 34.7375 17.9787C35.0043 18.4887 35.0607 19.083 34.8944 19.634L33.4754 24.034C33.3311 24.4809 33.0475 24.8698 32.6663 25.1439C32.2851 25.4181 31.8261 25.5631 31.3566 25.5576C30.887 25.5522 30.4315 25.3967 30.0567 25.1139C29.6819 24.831 29.4074 24.4357 29.2734 23.9856C28.9674 22.9642 28.3714 22.0536 27.5577 21.3646C26.744 20.6755 25.7476 20.2376 24.6897 20.1041C23.6319 19.9706 22.558 20.1472 21.5986 20.6125C20.6392 21.0777 19.8356 21.8117 19.2854 22.725C19.1363 22.9726 18.9399 23.1884 18.7075 23.3601C18.475 23.5318 18.211 23.6561 17.9305 23.7257C17.65 23.7954 17.3585 23.8091 17.0727 23.7661C16.7869 23.7232 16.5124 23.6243 16.2648 23.4752C16.0172 23.3262 15.8014 23.1298 15.6297 22.8973C15.458 22.6648 15.3338 22.4008 15.2641 22.1203C15.1945 21.8398 15.1807 21.5483 15.2237 21.2626C15.2667 20.9768 15.3655 20.7022 15.5146 20.4546C16.3968 18.9926 17.6413 17.783 19.1278 16.9429C20.6143 16.1027 22.2925 15.6603 24 15.6586Z" fill="currentColor"/>
</svg>
