<svg width="22" height="22" viewBox="0 0 22 22" fill="none" xmlns="http://www.w3.org/2000/svg">
<path fill-rule="evenodd" clip-rule="evenodd" d="M7.22857 2.67146C7.37696 2.47362 7.60983 2.35718 7.85714 2.35718H14.1429C14.3902 2.35718 14.623 2.47362 14.7714 2.67146L16.8929 5.50004H19.6429C20.268 5.50004 20.8676 5.74838 21.3097 6.19043C21.7517 6.63247 22 7.23202 22 7.85718V17.2857C22 17.9109 21.7517 18.5105 21.3097 18.9526C20.8676 19.3946 20.268 19.6429 19.6429 19.6429H2.35714C1.73198 19.6429 1.13244 19.3946 0.690391 18.9526C0.248341 18.5105 0 17.9109 0 17.2857V7.85718C0 7.23203 0.248341 6.63247 0.690391 6.19043C1.13244 5.74838 1.73198 5.50004 2.35714 5.50004H5.10714L7.22857 2.67146ZM14.8678 12.1178C14.8678 14.254 13.1361 15.9855 11 15.9855C8.86386 15.9855 7.1322 14.254 7.1322 12.1178C7.1322 9.9817 8.86386 8.25004 11 8.25004C13.1361 8.25004 14.8678 9.9817 14.8678 12.1178Z" fill="black"/>
</svg>
