<svg width="49" height="48" viewBox="0 0 49 48" fill="none" xmlns="http://www.w3.org/2000/svg">
<path fill-rule="evenodd" clip-rule="evenodd" d="M26.3283 1.75616C27.6457 0.176074 30.2118 1.25587 30.0033 3.30289L28.5316 17.6821H40.4365C40.8326 17.6822 41.2204 17.7952 41.5546 18.0078C41.8888 18.2204 42.1555 18.5239 42.3235 18.8826C42.4915 19.2413 42.5538 19.6404 42.5031 20.0333C42.4524 20.4261 42.2909 20.7964 42.0374 21.1007L21.192 46.1153C19.8745 47.6953 17.3085 46.6155 17.5169 44.5685L18.9886 30.1893H7.08376C6.68767 30.1892 6.29982 30.0762 5.96562 29.8636C5.63143 29.651 5.36473 29.3475 5.19674 28.9888C5.02876 28.6301 4.96646 28.231 5.01713 27.8381C5.06779 27.4453 5.22933 27.075 5.48283 26.7707L26.3283 1.75616ZM11.5343 26.0203H22.6824C22.7989 26.0203 22.9142 26.0447 23.0207 26.092C23.1272 26.1392 23.2226 26.2083 23.3008 26.2947C23.379 26.3811 23.4382 26.483 23.4745 26.5937C23.5109 26.7044 23.5237 26.8215 23.5121 26.9375L22.3593 38.2044L35.986 21.8512H24.8378C24.7213 21.8512 24.6061 21.8267 24.4995 21.7795C24.393 21.7322 24.2976 21.6631 24.2194 21.5767C24.1413 21.4903 24.0821 21.3884 24.0457 21.2777C24.0093 21.167 23.9965 21.0499 24.0082 20.934L25.1609 9.66909L11.5343 26.0203Z" fill="black"/>
</svg>
