<svg width="48" height="48" viewBox="0 0 48 48" fill="none" xmlns="http://www.w3.org/2000/svg">
<g clip-path="url(#clip0_897_9827)">
<path fill-rule="evenodd" clip-rule="evenodd" d="M32.5678 31.9923C37.6918 29.0282 41.1392 23.4881 41.1392 17.1429C41.1392 7.67513 33.4641 0 23.9964 0C14.5286 0 6.85352 7.67513 6.85352 17.1429C6.85352 23.4881 10.3009 29.0282 15.4249 31.9923V36C15.4249 37.8936 16.96 39.4286 18.8535 39.4286H29.1392C31.0328 39.4286 32.5678 37.8936 32.5678 36V31.9923ZM15.4249 45.4286C15.4249 44.0085 16.5762 42.8571 17.9964 42.8571H29.9964C31.4165 42.8571 32.5678 44.0085 32.5678 45.4286C32.5678 46.8487 31.4165 48 29.9964 48H17.9964C16.5762 48 15.4249 46.8487 15.4249 45.4286Z" fill="black"/>
</g>
<defs>
<clipPath id="clip0_897_9827">
<rect width="48" height="48" fill="white"/>
</clipPath>
</defs>
</svg>
