<svg width="30" height="22" viewBox="0 0 30 22" fill="none" xmlns="http://www.w3.org/2000/svg">
<path fill-rule="evenodd" clip-rule="evenodd" d="M14.8315 0C13.1932 0 11.8652 1.32805 11.8652 2.96629H17.7978C17.7978 1.32805 16.4697 0 14.8315 0ZM25.5 7.875C25.5 6.00937 23.9906 4.5 22.125 4.5H7.875C6.00937 4.5 4.5 6.00937 4.5 7.875V17.9284C4.5 19.794 6.00937 21.3034 7.875 21.3034H22.125C23.9906 21.3034 25.5 19.794 25.5 17.9284V7.875ZM3 8.88202H2.25C1.00781 8.88202 0 9.88983 0 11.132V15.632C0 16.8742 1.00781 17.882 2.25 17.882H3V8.88202ZM30 11.132C30 9.88983 28.9922 8.88202 27.75 8.88202H27V17.882H27.75C28.9922 17.882 30 16.8742 30 15.632V11.132ZM13.7528 15.6404C13.7528 15.3426 13.5113 15.1011 13.2135 15.1011C12.9156 15.1011 12.6742 15.3426 12.6742 15.6404C12.6742 16.9069 13.8417 17.7978 15.1011 17.7978C16.3605 17.7978 17.5281 16.9069 17.5281 15.6404C17.5281 15.3426 17.2866 15.1011 16.9888 15.1011C16.6909 15.1011 16.4494 15.3426 16.4494 15.6404C16.4494 16.1612 15.9268 16.7191 15.1011 16.7191C14.2755 16.7191 13.7528 16.1612 13.7528 15.6404ZM10.6517 14.0225C11.4708 14.0225 12.1348 13.3584 12.1348 12.5393C12.1348 11.7202 11.4708 11.0562 10.6517 11.0562C9.83257 11.0562 9.16854 11.7202 9.16854 12.5393C9.16854 13.3584 9.83257 14.0225 10.6517 14.0225ZM19.5506 14.0225C20.3697 14.0225 21.0337 13.3584 21.0337 12.5393C21.0337 11.7202 20.3697 11.0562 19.5506 11.0562C18.7314 11.0562 18.0674 11.7202 18.0674 12.5393C18.0674 13.3584 18.7314 14.0225 19.5506 14.0225Z" fill="currentColor"/>
</svg>
