<svg width="18" height="18" viewBox="0 0 18 18" fill="none" xmlns="http://www.w3.org/2000/svg">
<path d="M7.532 13.9226L10.2124 16.5907C10.3768 16.7591 10.5824 16.8818 10.8089 16.9466C11.0353 17.0113 11.2747 17.0157 11.5034 16.9595C11.7335 16.906 11.946 16.7942 12.1204 16.6349C12.2948 16.4755 12.4253 16.274 12.4993 16.0497L16.901 2.85678C16.9929 2.60959 17.0119 2.34121 16.9556 2.08356C16.8994 1.8259 16.7704 1.58981 16.584 1.40334C16.3975 1.21686 16.1614 1.08785 15.9038 1.03165C15.6461 0.975436 15.3777 0.994389 15.1306 1.08625L1.93763 5.48797C1.70555 5.56724 1.49886 5.70706 1.3389 5.89295C1.17895 6.07884 1.07154 6.30408 1.02777 6.54537C0.9826 6.76484 0.992656 6.99208 1.05704 7.2067C1.12142 7.4213 1.23812 7.61656 1.39663 7.77491L4.76555 11.1438L4.65489 15.4103L7.532 13.9226Z" stroke="currentColor" stroke-width="2" stroke-linecap="round" stroke-linejoin="round"/>
<path d="M16.5077 1.35669L4.76562 11.1438" stroke="currentColor" stroke-width="2" stroke-linecap="round" stroke-linejoin="round"/>
</svg>
