<svg width="17" height="21" viewBox="0 0 17 21" fill="none" xmlns="http://www.w3.org/2000/svg">
<path fill-rule="evenodd" clip-rule="evenodd" d="M8.25003 0C7.12892 0 6.05374 0.445358 5.26099 1.2381C4.46824 2.03085 4.02289 3.10603 4.02289 4.22714V9.14079C4.02289 10.2619 4.46824 11.3371 5.26099 12.1298C6.05374 12.9226 7.12892 13.3679 8.25003 13.3679C9.37114 13.3679 10.4463 12.9226 11.2391 12.1298C12.0318 11.3371 12.4772 10.2619 12.4772 9.14079V4.22714C12.4772 3.10603 12.0318 2.03085 11.2391 1.2381C10.4463 0.445358 9.37114 0 8.25003 0ZM7.17391 17.2282V18.968C7.17391 19.5623 7.6557 20.0441 8.25 20.0441C8.8443 20.0441 9.32609 19.5623 9.32609 18.968V17.2282C13.3197 17.0409 16.5 13.7438 16.5 9.70388C16.5 9.10956 16.0182 8.62779 15.4239 8.62779C14.8296 8.62779 14.3478 9.10956 14.3478 9.70388C14.3478 12.6754 11.9389 15.0843 8.96739 15.0843H8.26961C8.26309 15.0842 8.25656 15.0842 8.25 15.0842C8.24344 15.0842 8.23691 15.0842 8.23039 15.0843H7.53261C4.56107 15.0843 2.15217 12.6754 2.15217 9.70388C2.15217 9.10956 1.67039 8.62779 1.07609 8.62779C0.481786 8.62779 0 9.10956 0 9.70388C0 13.7438 3.18032 17.0409 7.17391 17.2282Z" fill="currentColor"/>
</svg>
