<svg width="44" height="44" viewBox="0 0 44 44" fill="none" xmlns="http://www.w3.org/2000/svg">
<rect width="44" height="44" rx="22" fill="white"/>
<path d="M18.9229 13.2007C19.8994 13.2007 20.6914 13.9927 20.6914 14.9692V29.0308C20.6914 30.0073 19.8994 30.7993 18.9229 30.7993C17.9463 30.7993 17.1543 30.0073 17.1543 29.0308V14.9692C17.1543 13.9927 17.9463 13.2007 18.9229 13.2007ZM25.0771 17.2427C26.0536 17.2427 26.8456 18.0338 26.8457 19.0103V24.9888C26.8457 25.9653 26.0537 26.7573 25.0771 26.7573C24.1006 26.7573 23.3086 25.9653 23.3086 24.9888V19.0103C23.3087 18.0338 24.1007 17.2427 25.0771 17.2427ZM31.2314 18.7583C32.208 18.7583 33 19.5503 33 20.5269V23.4741C32.9998 24.4505 32.2079 25.2417 31.2314 25.2417C30.2551 25.2416 29.4641 24.4504 29.4639 23.4741V20.5269C29.4639 19.5504 30.255 18.7584 31.2314 18.7583ZM12.7686 19.1792C13.7449 19.1794 14.536 19.9704 14.5361 20.9468V23.0522C14.5361 24.0287 13.745 24.8206 12.7686 24.8208C11.792 24.8208 11 24.0288 11 23.0522V20.9468C11.0002 19.9703 11.7921 19.1792 12.7686 19.1792Z" fill="black"/>
</svg>
