<svg width="48" height="48" viewBox="0 0 48 48" fill="none" xmlns="http://www.w3.org/2000/svg">
<g clip-path="url(#clip0_911_9925)">
<path fill-rule="evenodd" clip-rule="evenodd" d="M12 0C5.37257 0 0 5.37257 0 12V36C0 42.6274 5.37257 48 12 48H36C42.6274 48 48 42.6274 48 36V12C48 5.37257 42.6274 0 36 0H12ZM36.0096 17.8921C36.8966 16.7831 36.7169 15.1649 35.6078 14.2778C34.499 13.3906 32.8808 13.5704 31.9936 14.6794L19.8362 29.876L14.9729 26.2286C13.8368 25.3765 12.2251 25.6067 11.3729 26.7429C10.5209 27.879 10.7511 29.4908 11.8872 30.3429L18.7444 35.4857C19.8555 36.3192 21.4276 36.1193 22.2952 35.0349L36.0096 17.8921Z" fill="currentColor"/>
</g>
<defs>
<clipPath id="clip0_911_9925">
<rect width="48" height="48" fill="white"/>
</clipPath>
</defs>
</svg>
