<svg width="1024" height="1024" viewBox="0 0 1024 1024" fill="none" xmlns="http://www.w3.org/2000/svg">
<rect width="1024" height="1024" fill="black"/>
<path fill-rule="evenodd" clip-rule="evenodd" d="M414.09 232.602C438.877 203.41 473.837 182.734 518.944 182.734C596.201 182.734 641.436 237.075 663.753 289.89C685.951 342.423 691.447 404.553 686.105 450.656C684.32 466.068 677.149 506.907 649.048 538.454C628.347 561.693 598.645 575.536 568.77 583.446C538.128 591.56 502.838 594.647 465.814 593.035C457.994 592.695 450.047 592.185 442.046 591.534C443.291 609.659 445.35 628.286 448.755 646.415C457.575 693.369 473.315 725.02 494.889 739.827C496.518 740.945 499.444 742.326 504.037 743.368C508.569 744.396 513.498 744.813 517.99 744.813C541.505 744.813 557.802 733.689 570.426 713.119C584.078 690.874 590.993 660.295 590.993 633.638H686.423C686.423 673.632 676.638 722.497 651.76 763.034C625.854 805.247 581.792 840.242 517.99 840.242C499.865 840.242 468.31 837.327 440.89 818.509C387.003 781.526 365.012 717.512 354.966 664.032C349.473 634.787 346.922 605.073 345.738 578.396C316.338 573.018 291.129 567.287 275.173 563.185L298.928 470.76C310.143 473.642 326.363 477.384 345.359 481.17C346.931 438.067 351.956 381.102 366.449 329.518C375.936 295.75 390.527 260.353 414.09 232.602ZM440.4 495.591C450.426 496.551 460.348 497.277 469.965 497.696C499.559 498.985 524.928 496.337 544.343 491.196C564.525 485.852 574.279 478.92 577.79 474.979C581.316 471.021 584.608 465.024 587.192 457.501C589.719 450.147 590.888 443.321 591.31 439.673C595.035 407.524 590.749 362.296 575.849 327.034C561.068 292.054 541.887 278.163 518.944 278.163C506.316 278.163 496.594 282.874 486.834 294.368C475.85 307.305 466.029 327.895 458.321 355.33C445.42 401.247 441.367 455.331 440.4 495.591Z" fill="white"/>
</svg>
