<svg width="178" height="139" viewBox="0 0 178 139" fill="none" xmlns="http://www.w3.org/2000/svg">
<path opacity="0.2" fill-rule="evenodd" clip-rule="evenodd" d="M43.788 13.4539C49.4545 8.51134 56.8911 5.49187 65.7636 6.73881C80.9599 8.87452 88.3851 20.6009 91.3439 31.3994C94.2869 42.1404 93.6846 54.2698 91.3849 63.0098C90.6161 65.9316 88.0992 73.6063 81.717 78.9111C77.0156 82.8187 70.7983 84.6663 64.7076 85.3655C58.4605 86.0825 51.4354 85.7021 44.1965 84.3678C42.6677 84.086 41.1183 83.768 39.5621 83.4214C39.316 86.95 39.2163 90.5979 39.395 94.1869C39.8576 103.483 42.096 110.019 45.9384 113.47C46.2287 113.731 46.7667 114.078 47.6419 114.406C48.5055 114.729 49.4638 114.946 50.3472 115.07C54.9727 115.72 58.4797 114.026 61.52 110.41C64.808 106.498 66.9967 100.795 67.7189 95.6556L86.4897 98.2937C85.4061 106.004 82.1575 115.154 76.1658 122.281C69.9265 129.702 60.3114 135.23 47.7617 133.467C44.1966 132.966 38.0689 131.531 33.1852 127.146C23.5877 118.526 20.9965 105.578 20.4696 94.9904C20.1814 89.2006 20.4848 83.4018 20.9747 78.2263C15.3374 76.3768 10.5342 74.5751 7.50672 73.3434L14.6834 56.1823C16.8113 57.048 19.9004 58.2177 23.5343 59.4726C25.0113 51.2068 27.543 40.3639 31.7913 30.8203C34.5723 24.5728 38.4013 18.1524 43.788 13.4539ZM41.8378 64.88C43.7839 65.3423 45.7159 65.7566 47.5961 66.1031C53.3823 67.1697 58.444 67.3606 62.4022 66.9062C66.5168 66.4339 68.6231 65.3673 69.4206 64.7045C70.2213 64.0389 71.0314 62.9738 71.7435 61.595C72.4397 60.2471 72.8545 58.9635 73.0365 58.272C74.6401 52.1772 75.0225 43.3398 73.0471 36.1301C71.0874 28.9779 67.691 25.7699 63.1781 25.1357C60.6942 24.7866 58.6543 25.426 56.4231 27.3721C53.9121 29.5623 51.4224 33.2603 49.163 38.336C45.3814 46.8313 43.1189 57.1454 41.8378 64.88Z" fill="#FF6565"/>
<path opacity="0.2" d="M107 20C107 8.95431 115.954 0 127 0H158.5C169.27 0 178 8.73045 178 19.5V19.5C178 30.2696 169.27 39 158.5 39H110C108.343 39 107 37.6569 107 36V20Z" fill="#FF6565"/>
<circle cx="128" cy="20" r="4" fill="#FF6565"/>
<circle cx="143" cy="20" r="4" fill="#FF6565"/>
<circle cx="158" cy="20" r="4" fill="#FF6565"/>
</svg>
