<svg width="90" height="116" viewBox="0 0 90 116" fill="none" xmlns="http://www.w3.org/2000/svg">
<path fill-rule="evenodd" clip-rule="evenodd" d="M75.3594 29C83.3675 29 89.8594 22.5081 89.8594 14.5C89.8594 6.49187 83.3675 0 75.3594 0C67.3512 0 60.8594 6.49187 60.8594 14.5C60.8594 22.5081 67.3512 29 75.3594 29ZM84.7442 14.4991C84.7442 13.3423 83.8065 12.4046 82.6498 12.4046H77.4549L77.4549 7.2091C77.4549 6.05237 76.5172 5.11465 75.3604 5.11465C74.2037 5.11465 73.266 6.05237 73.266 7.2091V12.4046H68.0676C66.9109 12.4046 65.9732 13.3423 65.9732 14.4991C65.9732 15.6558 66.9109 16.5935 68.0676 16.5935H73.266V21.7912C73.266 22.9479 74.2037 23.8857 75.3604 23.8857C76.5172 23.8857 77.4549 22.9479 77.4549 21.7912V16.5935H82.6498C83.8065 16.5935 84.7442 15.6558 84.7442 14.4991Z" fill="black"/>
<path fill-rule="evenodd" clip-rule="evenodd" d="M56.6201 9.08817C56.1248 10.8065 55.8594 12.6222 55.8594 14.5C55.8594 22.8896 61.1575 30.0417 68.5905 32.7931C69.6079 38.6104 69.7337 44.3971 69.1883 49.1761C68.8876 51.8101 67.6803 58.7896 62.9489 64.1811C59.4636 68.1526 54.4627 70.5184 49.4326 71.8703C44.2734 73.257 38.3316 73.7846 32.098 73.5091C30.7814 73.4509 29.4433 73.3637 28.0962 73.2526C28.3058 76.3502 28.6525 79.5336 29.2259 82.6319C30.7109 90.6565 33.3609 96.0657 36.9933 98.5961C37.2677 98.7872 37.7603 99.0232 38.5336 99.2013C39.2966 99.377 40.1266 99.4483 40.8828 99.4483C44.8421 99.4483 47.586 97.5471 49.7114 94.0318C52.01 90.23 53.1743 85.0039 53.1743 80.4482H69.2416C69.2416 87.2832 67.5942 95.6345 63.4056 102.562C59.0438 109.777 51.6251 115.757 40.8828 115.757C37.8312 115.757 32.5183 115.259 27.9015 112.043C18.8286 105.723 15.1261 94.7826 13.4347 85.6427C12.5098 80.6446 12.0804 75.5663 11.881 71.0072C6.93091 70.0881 2.68659 69.1086 0 68.4077L3.99961 52.6119C5.88787 53.1045 8.6189 53.744 11.8172 54.391C12.0819 47.0247 12.9279 37.2891 15.368 28.4733C16.9654 22.7023 19.422 16.6529 23.3893 11.9102C27.5627 6.92105 33.4488 3.38748 41.0435 3.38748C47.5025 3.38748 52.6322 5.67738 56.6201 9.08817ZM32.7969 57.2154C31.1778 57.1438 29.5072 57.0197 27.8191 56.8555C27.982 49.975 28.6644 40.732 30.8365 32.8847C32.1342 28.196 33.7878 24.677 35.6372 22.4662C37.2804 20.5017 38.9173 19.6966 41.0435 19.6966C44.9064 19.6966 48.1358 22.0706 50.6245 28.0488C53.1332 34.0752 53.8548 41.8047 53.2277 47.2992C53.1565 47.9225 52.9597 49.0891 52.5344 50.3459C52.0993 51.6316 51.545 52.6565 50.9513 53.3329C50.3602 54.0066 48.718 55.1912 45.3199 56.1045C42.051 56.9831 37.7797 57.4356 32.7969 57.2154Z" fill="black"/>
<path fill-rule="evenodd" clip-rule="evenodd" d="M75.3594 29C83.3675 29 89.8594 22.5081 89.8594 14.5C89.8594 6.49187 83.3675 0 75.3594 0C67.3512 0 60.8594 6.49187 60.8594 14.5C60.8594 22.5081 67.3512 29 75.3594 29ZM84.7442 14.4991C84.7442 13.3423 83.8065 12.4046 82.6498 12.4046H77.4549L77.4549 7.2091C77.4549 6.05237 76.5172 5.11465 75.3604 5.11465C74.2037 5.11465 73.266 6.05237 73.266 7.2091V12.4046H68.0676C66.9109 12.4046 65.9732 13.3423 65.9732 14.4991C65.9732 15.6558 66.9109 16.5935 68.0676 16.5935H73.266V21.7912C73.266 22.9479 74.2037 23.8857 75.3604 23.8857C76.5172 23.8857 77.4549 22.9479 77.4549 21.7912V16.5935H82.6498C83.8065 16.5935 84.7442 15.6558 84.7442 14.4991Z" fill="black"/>
</svg>
