<svg width="245" height="86" viewBox="0 0 245 86" fill="none" xmlns="http://www.w3.org/2000/svg">
<path d="M204.826 19.1219C204.698 20.8546 204.473 22.5553 204.152 24.2238C203.896 25.8282 203.575 27.4647 203.19 29.1332C207.104 33.7538 210.923 38.5349 214.645 43.4764C218.367 48.4178 221.865 53.3272 225.138 58.2046L215.03 65.1355C212.463 61.2208 209.735 57.3703 206.848 53.5839C204.024 49.7976 201.168 46.1396 198.28 42.61C193.98 51.3378 187.723 59.456 179.509 66.9645L170.364 58.6859C176.91 52.8459 182.076 46.653 185.862 40.1072C189.649 33.4971 191.831 26.502 192.408 19.1219H175.562V8.72551H220.998V19.1219H204.826ZM244.486 85.9282H231.683V0.928223H244.486V85.9282Z" fill="black"/>
<path d="M157.908 85.9282H145.105V0.928223H157.908V85.9282ZM130.859 19.2181H102.269V52.6213C105.092 52.6213 107.788 52.5892 110.355 52.5251C112.986 52.4609 115.617 52.3646 118.248 52.2363C120.879 52.0437 123.607 51.8191 126.43 51.5624C129.318 51.2416 132.463 50.8886 135.864 50.5035L136.827 60.6111C133.426 61.0604 130.249 61.4454 127.297 61.7663C124.409 62.023 121.617 62.2476 118.922 62.4401C116.227 62.6326 113.531 62.761 110.836 62.8252C108.141 62.8893 105.349 62.9214 102.461 62.9214H89.4656V8.82177H130.859V19.2181Z" fill="black"/>
<path d="M0 9.20682H35.3284V28.7482H42.7407V2.75721H54.7735V81.7889H42.7407V39.8184H35.3284V62.4401H0V9.20682ZM60.6455 0.928223H72.7746V85.9282H60.6455V0.928223ZM23.2956 19.3144H12.1291V52.3325H23.2956V19.3144Z" fill="black"/>
</svg>
