<svg width="406" height="88" viewBox="0 0 406 88" fill="none" xmlns="http://www.w3.org/2000/svg">
<path d="M360.034 88.0003V77.2363H367.399C370.421 77.2363 371.931 75.2535 372.97 72.3265L374.67 67.9831L356.447 21.906H369.288L381.185 53.8201L393.082 21.906H405.073L386.378 69.1162L385.056 72.3265C381.468 81.5797 377.125 88.0003 367.399 88.0003H360.034Z" fill="black"/>
<path d="M333.017 70.6264C321.026 70.6264 311.678 63.0728 311.678 53.6307H323.858C323.858 57.3131 327.163 60.8067 333.395 60.8067C338.022 60.8067 341.421 58.9183 341.421 55.9913C341.421 52.8754 337.455 51.6479 331.034 50.1372C322.82 48.2488 312.434 44.9441 312.434 35.2188C312.434 24.5493 324.142 20.3948 332.734 20.3948C344.253 20.3948 353.318 27.7596 353.318 36.8239H341.137C341.137 33.6136 338.21 30.2145 332.356 30.2145C328.202 30.2145 324.991 32.1029 324.991 34.7467C324.991 38.1458 329.712 39.3733 335.472 40.7896C344.159 42.7724 354.073 46.0771 354.073 55.708C354.073 66.5663 341.704 70.6264 333.017 70.6264Z" fill="black"/>
<path d="M275.638 70.6264C262.892 70.6264 251.372 59.3904 251.372 45.5106C251.372 31.6308 262.892 20.3948 275.638 20.3948C282.248 20.3948 287.913 23.5106 291.784 28.4205V21.9055H303.02V69.1157H291.784V62.6007C287.913 67.5105 282.248 70.6264 275.638 70.6264ZM263.93 45.5106C263.93 53.1586 269.879 59.4848 277.149 59.4848C284.419 59.4848 290.368 53.1586 290.368 45.5106C290.368 37.8625 284.419 31.5364 277.149 31.5364C269.879 31.5364 263.93 37.8625 263.93 45.5106Z" fill="black"/>
<path d="M199.076 69.116V3.02173H245.531V14.9187H212.295V30.1204H242.887V42.0173H212.295V57.219H245.908V69.116H199.076Z" fill="black"/>
<path d="M159.826 70.6267C147.079 70.6267 135.56 59.3907 135.56 45.5109C135.56 31.6311 147.079 20.395 159.826 20.395C165.68 20.395 170.779 22.85 174.555 26.8156V0.000244141H187.208V69.116H175.972V62.601C172.1 67.5108 166.435 70.6267 159.826 70.6267ZM148.118 45.5109C148.118 53.1589 154.066 59.4851 161.337 59.4851C168.607 59.4851 174.555 53.1589 174.555 45.5109C174.555 37.8628 168.607 31.5367 161.337 31.5367C154.066 31.5367 148.118 37.8628 148.118 45.5109Z" fill="black"/>
<path d="M104.998 70.6264C90.7402 70.6264 79.2209 59.3904 79.2209 45.5106C79.2209 31.6308 90.7402 20.3948 104.998 20.3948C118.972 20.3948 130.208 31.6308 130.208 45.5106C130.208 46.9269 130.019 48.4376 129.83 49.8539H92.3454C94.0449 55.8968 99.0492 60.3346 104.998 60.3346C108.68 60.3346 111.89 58.5406 114.062 55.8024H127.942C124.071 64.4891 115.29 70.6264 104.998 70.6264ZM92.3454 41.1673H116.989C115.478 35.1244 110.663 30.6866 104.998 30.6866C99.0492 30.6866 94.0449 35.1244 92.3454 41.1673Z" fill="black"/>
<path d="M0 69.116V3.02173H18.5064L34.8411 39.8457L51.0814 3.02173H70.2488V69.116H57.0299V19.3565L40.4119 55.8971H28.5149L11.897 19.3565V69.116H0Z" fill="black"/>
</svg>
