<svg width="64" height="101" viewBox="0 0 64 101" fill="none" xmlns="http://www.w3.org/2000/svg">
<path fill-rule="evenodd" clip-rule="evenodd" d="M21.6642 8.49074C25.4383 4.05083 30.7613 0.90625 37.6293 0.90625C49.3926 0.90625 56.28 9.171 59.678 17.2036C63.0579 25.1933 63.8946 34.6426 63.0814 41.6543C62.8095 43.9984 61.7177 50.2096 57.439 55.0075C54.2871 58.5418 49.7647 60.6472 45.2159 61.8503C40.5503 63.0843 35.177 63.5538 29.5397 63.3087C28.3491 63.2569 27.1391 63.1793 25.9208 63.0804C26.1104 65.837 26.4239 68.67 26.9424 71.4272C28.2853 78.5684 30.6818 83.3822 33.9667 85.6341C34.2148 85.8042 34.6603 86.0142 35.3596 86.1726C36.0496 86.329 36.8002 86.3925 37.484 86.3925C41.0645 86.3925 43.5459 84.7006 45.468 81.5722C47.5466 78.1889 48.5996 73.5381 48.5996 69.4839H63.1297C63.1297 75.5665 61.6398 82.9985 57.852 89.1637C53.9075 95.5838 47.1986 100.906 37.484 100.906C34.7244 100.906 29.9198 100.463 25.7448 97.6008C17.5399 91.9761 14.1916 82.2403 12.662 74.1066C11.8256 69.6587 11.4373 65.1395 11.257 61.0822C6.7805 60.2643 2.94225 59.3926 0.512695 58.7689L4.12964 44.7119C5.83724 45.1503 8.30699 45.7194 11.1993 46.2952C11.4386 39.7398 12.2037 31.0759 14.4104 23.2306C15.8549 18.0949 18.0765 12.7114 21.6642 8.49074ZM25.6702 48.4884C27.1968 48.6345 28.7076 48.7449 30.1718 48.8086C34.6778 49.0046 38.5405 48.6019 41.4966 47.8201C44.5696 47.0073 46.0547 45.9531 46.5893 45.3536C47.1261 44.7516 47.6274 43.8395 48.0209 42.6954C48.4055 41.5769 48.5835 40.5387 48.6478 39.984C49.215 35.0944 48.5624 28.2158 46.2937 22.8528C44.0431 17.5326 41.1227 15.42 37.6293 15.42C35.7066 15.42 34.2263 16.1365 32.7403 17.8847C31.0679 19.8522 29.5725 22.9838 28.3989 27.1563C26.4346 34.1398 25.8175 42.3653 25.6702 48.4884Z" fill="currentColor"/>
</svg>
