<svg width="240" height="240" viewBox="0 0 240 240" fill="none" xmlns="http://www.w3.org/2000/svg">
<circle opacity="0.1" cx="120" cy="120" r="120" fill="#4273ED"/>
<path opacity="0.3" d="M102.661 23.695C102.642 23.7323 102.624 23.7673 102.605 23.8C102.591 23.8327 102.572 23.8653 102.549 23.898C102.857 24.0613 103.177 24.241 103.508 24.437C103.844 24.633 104.182 24.8407 104.523 25.06L104.04 25.718C103.713 25.508 103.38 25.305 103.039 25.109C102.703 24.913 102.372 24.7263 102.045 24.549C101.793 24.801 101.504 25.0227 101.177 25.214C100.85 25.4053 100.493 25.5757 100.106 25.725L99.672 25.039C100.139 24.857 100.545 24.6517 100.89 24.423C101.24 24.1943 101.499 23.9517 101.667 23.695H100.071V22.946H101.681V22.218H102.633V22.946H104.229V23.695H102.661ZM101.681 28.504V26.726H99.21V25.97H105.09V26.726H102.619V28.504H101.681ZM107.984 28.504V27.055H105.513V26.306H111.393V27.055H108.922V28.504H107.984ZM106.178 23.541V22.813H107.984V22.12H108.922V22.813H110.728V23.541H106.178ZM108.453 26.061C108.205 26.061 107.979 26.0353 107.774 25.984C107.573 25.928 107.4 25.851 107.256 25.753C107.111 25.6503 106.997 25.5243 106.913 25.375C106.833 25.2257 106.794 25.0553 106.794 24.864C106.794 24.6727 106.833 24.5047 106.913 24.36C106.997 24.2107 107.111 24.087 107.256 23.989C107.4 23.8863 107.573 23.8093 107.774 23.758C107.979 23.7067 108.205 23.681 108.453 23.681C108.695 23.681 108.919 23.7067 109.125 23.758C109.33 23.8093 109.505 23.8863 109.65 23.989C109.794 24.087 109.906 24.2107 109.986 24.36C110.07 24.5047 110.112 24.6727 110.112 24.864C110.112 25.0553 110.07 25.2257 109.986 25.375C109.906 25.5243 109.794 25.6503 109.65 25.753C109.505 25.851 109.33 25.928 109.125 25.984C108.919 26.0353 108.695 26.061 108.453 26.061ZM109.202 24.864C109.202 24.738 109.143 24.6283 109.027 24.535C108.915 24.437 108.723 24.388 108.453 24.388C108.182 24.388 107.988 24.437 107.872 24.535C107.76 24.633 107.704 24.7427 107.704 24.864C107.704 24.9853 107.76 25.095 107.872 25.193C107.988 25.291 108.182 25.34 108.453 25.34C108.723 25.34 108.915 25.291 109.027 25.193C109.143 25.095 109.202 24.9853 109.202 24.864ZM118.27 25.48V22.323H119.201V25.48H118.27ZM117.444 23.891C117.444 24.101 117.404 24.2947 117.325 24.472C117.245 24.6447 117.133 24.7963 116.989 24.927C116.844 25.0577 116.667 25.1603 116.457 25.235C116.251 25.305 116.02 25.34 115.764 25.34C115.502 25.34 115.269 25.305 115.064 25.235C114.858 25.1603 114.681 25.0577 114.532 24.927C114.387 24.7963 114.275 24.6447 114.196 24.472C114.121 24.2947 114.084 24.101 114.084 23.891C114.084 23.681 114.123 23.4897 114.203 23.317C114.282 23.1397 114.394 22.9857 114.539 22.855C114.688 22.7243 114.865 22.624 115.071 22.554C115.276 22.4793 115.507 22.442 115.764 22.442C116.02 22.442 116.251 22.4793 116.457 22.554C116.667 22.624 116.844 22.7243 116.989 22.855C117.133 22.9857 117.245 23.1397 117.325 23.317C117.404 23.4897 117.444 23.681 117.444 23.891ZM116.527 23.891C116.527 23.8023 116.51 23.7137 116.478 23.625C116.45 23.5363 116.403 23.4593 116.338 23.394C116.277 23.3287 116.198 23.275 116.1 23.233C116.006 23.191 115.894 23.17 115.764 23.17C115.633 23.17 115.519 23.191 115.421 23.233C115.327 23.275 115.248 23.3287 115.183 23.394C115.122 23.4593 115.075 23.5363 115.043 23.625C115.015 23.7137 115.001 23.8023 115.001 23.891C115.001 23.9843 115.015 24.0753 115.043 24.164C115.075 24.248 115.122 24.325 115.183 24.395C115.248 24.4603 115.327 24.514 115.421 24.556C115.519 24.598 115.633 24.619 115.764 24.619C115.894 24.619 116.006 24.598 116.1 24.556C116.198 24.514 116.277 24.4603 116.338 24.395C116.403 24.325 116.45 24.248 116.478 24.164C116.51 24.0753 116.527 23.9843 116.527 23.891ZM118.277 26.817V26.46H115.078V25.753H119.201V27.468H116.03V27.839H119.348V28.553H115.099V26.817H118.277ZM123.354 22.841V25.2H121.492V26.194C121.688 26.194 121.88 26.1917 122.066 26.187C122.258 26.1823 122.451 26.173 122.647 26.159C122.843 26.145 123.044 26.1287 123.249 26.11C123.455 26.0913 123.672 26.068 123.9 26.04L123.956 26.782C123.494 26.8427 123.06 26.8847 122.654 26.908C122.248 26.9267 121.835 26.936 121.415 26.936H120.561V24.465H122.43V23.583H120.526V22.841H123.354ZM123.641 24.402H124.677V22.323H125.608V28.504H124.677V25.193H123.641V24.402ZM130.035 22.568C130.003 22.9647 129.907 23.3473 129.748 23.716C130.108 23.9913 130.469 24.2853 130.833 24.598C131.202 24.9107 131.554 25.228 131.89 25.55L131.281 26.173C130.983 25.893 130.663 25.6083 130.322 25.319C129.982 25.025 129.648 24.752 129.321 24.5C129.093 24.836 128.817 25.151 128.495 25.445C128.178 25.739 127.823 26.0073 127.431 26.25L126.864 25.592C127.172 25.4053 127.455 25.2 127.711 24.976C127.973 24.752 128.201 24.514 128.397 24.262C128.593 24.0053 128.752 23.737 128.873 23.457C128.995 23.1723 129.069 22.876 129.097 22.568H130.035ZM132.331 27.048V27.804H126.451V27.048H132.331ZM133.615 26.222V22.694H137.766V23.436H134.546V24.066H137.654V24.801H134.546V25.48H137.892V26.222H133.615ZM138.634 27.055V27.804H132.754V27.055H138.634ZM102.661 32.695C102.642 32.7323 102.624 32.7673 102.605 32.8C102.591 32.8327 102.572 32.8653 102.549 32.898C102.857 33.0613 103.177 33.241 103.508 33.437C103.844 33.633 104.182 33.8407 104.523 34.06L104.04 34.718C103.713 34.508 103.38 34.305 103.039 34.109C102.703 33.913 102.372 33.7263 102.045 33.549C101.793 33.801 101.504 34.0227 101.177 34.214C100.85 34.4053 100.493 34.5757 100.106 34.725L99.672 34.039C100.139 33.857 100.545 33.6517 100.89 33.423C101.24 33.1943 101.499 32.9517 101.667 32.695H100.071V31.946H101.681V31.218H102.633V31.946H104.229V32.695H102.661ZM101.681 37.504V35.726H99.21V34.97H105.09V35.726H102.619V37.504H101.681ZM109.657 37.504V31.323H110.588V33.556H111.533V34.347H110.588V37.504H109.657ZM105.856 31.897H108.796V32.618C108.646 33.318 108.343 33.9713 107.886 34.578C107.433 35.18 106.852 35.7073 106.143 36.16L105.583 35.502C105.877 35.32 106.15 35.1193 106.402 34.9C106.654 34.6807 106.878 34.4497 107.074 34.207C107.274 33.9643 107.442 33.7123 107.578 33.451C107.718 33.1897 107.816 32.9237 107.872 32.653H105.856V31.897ZM117.346 35.096H116.338C116.081 35.3387 115.738 35.46 115.309 35.46C114.823 35.46 114.445 35.3083 114.175 35.005C113.909 34.7017 113.776 34.2817 113.776 33.745C113.776 33.2083 113.909 32.7883 114.175 32.485C114.445 32.177 114.823 32.023 115.309 32.023C115.533 32.023 115.736 32.058 115.918 32.128C116.1 32.198 116.256 32.2983 116.387 32.429H117.346V31.456H118.221V37.203H117.346V35.096ZM118.613 31.323H119.495V37.504H118.613V31.323ZM115.925 33.745C115.925 33.465 115.876 33.2317 115.778 33.045C115.684 32.8537 115.528 32.758 115.309 32.758C115.089 32.758 114.931 32.8537 114.833 33.045C114.739 33.2317 114.693 33.465 114.693 33.745C114.693 33.885 114.704 34.0157 114.728 34.137C114.751 34.2537 114.786 34.3563 114.833 34.445C114.884 34.529 114.947 34.5967 115.022 34.648C115.101 34.6993 115.197 34.725 115.309 34.725C115.421 34.725 115.514 34.6993 115.589 34.648C115.668 34.5967 115.731 34.529 115.778 34.445C115.829 34.3563 115.866 34.2537 115.89 34.137C115.913 34.0157 115.925 33.885 115.925 33.745ZM116.842 33.745C116.842 33.941 116.821 34.123 116.779 34.291H117.346V33.234H116.793C116.807 33.3133 116.818 33.395 116.828 33.479C116.837 33.563 116.842 33.6517 116.842 33.745ZM125.37 36.328C125.37 36.5333 125.328 36.7247 125.244 36.902C125.165 37.0793 125.051 37.2333 124.901 37.364C124.752 37.4947 124.57 37.595 124.355 37.665C124.145 37.7397 123.907 37.777 123.641 37.777C123.375 37.777 123.135 37.7397 122.92 37.665C122.71 37.595 122.528 37.4947 122.374 37.364C122.225 37.2333 122.111 37.0793 122.031 36.902C121.952 36.7247 121.912 36.5333 121.912 36.328C121.912 36.1227 121.952 35.9313 122.031 35.754C122.111 35.5767 122.225 35.425 122.374 35.299C122.528 35.1683 122.71 35.068 122.92 34.998C123.135 34.9233 123.375 34.886 123.641 34.886C123.907 34.886 124.145 34.9233 124.355 34.998C124.57 35.068 124.752 35.1683 124.901 35.299C125.051 35.425 125.165 35.5767 125.244 35.754C125.328 35.9313 125.37 36.1227 125.37 36.328ZM122.549 32.31C122.531 32.3987 122.51 32.4873 122.486 32.576C122.463 32.66 122.433 32.744 122.395 32.828C122.633 33.0193 122.871 33.227 123.109 33.451C123.352 33.6703 123.592 33.906 123.83 34.158L123.193 34.746C122.997 34.536 122.797 34.3353 122.591 34.144C122.386 33.948 122.183 33.7637 121.982 33.591C121.819 33.829 121.635 34.0553 121.429 34.27C121.224 34.48 121.002 34.6737 120.764 34.851L120.141 34.228C120.533 33.948 120.858 33.647 121.114 33.325C121.376 32.9983 121.546 32.66 121.625 32.31H120.477V31.568H123.655V32.31H122.549ZM125.503 34.823H124.572V33.409H123.501V32.646H124.572V31.323H125.503V34.823ZM122.836 36.328C122.836 36.538 122.911 36.7083 123.06 36.839C123.21 36.9697 123.403 37.035 123.641 37.035C123.879 37.035 124.073 36.9697 124.222 36.839C124.372 36.7083 124.446 36.538 124.446 36.328C124.446 36.118 124.372 35.9477 124.222 35.817C124.073 35.6863 123.879 35.621 123.641 35.621C123.403 35.621 123.21 35.6863 123.06 35.817C122.911 35.9477 122.836 36.118 122.836 36.328ZM128.726 36.328H129.734V37.322H128.726V36.328ZM130.647 36.328H131.655V37.322H130.647V36.328ZM132.568 36.328H133.576V37.322H132.568V36.328Z" fill="#4273ED"/>
<path opacity="0.15" fill-rule="evenodd" clip-rule="evenodd" d="M97.2852 64.6183C102.689 58.4024 110.311 54 120.144 54C136.987 54 146.849 65.5707 151.714 76.8162C156.553 88.0018 157.751 101.231 156.587 111.047C156.198 114.329 154.635 123.025 148.508 129.742C143.995 134.69 137.52 137.637 131.007 139.322C124.327 141.049 116.633 141.707 108.561 141.363C106.857 141.291 105.124 141.182 103.38 141.044C103.651 144.903 104.1 148.869 104.843 152.729C106.765 162.727 110.197 169.466 114.9 172.619C115.255 172.857 115.893 173.151 116.894 173.373C117.882 173.592 118.957 173.681 119.936 173.681C125.063 173.681 128.616 171.312 131.368 166.932C134.344 162.196 135.852 155.685 135.852 150.009H156.656C156.656 158.524 154.523 168.929 149.099 177.56C143.452 186.549 133.846 194 119.936 194C115.985 194 109.106 193.379 103.128 189.372C91.3799 181.498 86.5857 167.868 84.3957 156.48C83.198 150.253 82.642 143.927 82.3839 138.246C75.9744 137.101 70.4787 135.881 67 135.008L72.1788 115.328C74.6238 115.942 78.16 116.738 82.3012 117.544C82.6439 108.367 83.7394 96.2375 86.899 85.254C88.9673 78.0641 92.1482 70.5272 97.2852 64.6183ZM103.021 120.615C105.207 120.819 107.37 120.974 109.466 121.063C115.918 121.338 121.449 120.774 125.682 119.679C130.081 118.541 132.208 117.066 132.973 116.226C133.742 115.383 134.46 114.107 135.023 112.505C135.574 110.939 135.829 109.485 135.921 108.709C136.733 101.863 135.798 92.2333 132.55 84.7251C129.328 77.2769 125.146 74.3193 120.144 74.3193C117.391 74.3193 115.272 75.3223 113.144 77.7698C110.749 80.5243 108.608 84.9086 106.928 90.7501C104.115 100.527 103.232 112.043 103.021 120.615Z" fill="#4273ED"/>
</svg>
