<svg width="220" height="212" viewBox="0 0 220 212" fill="none" xmlns="http://www.w3.org/2000/svg">
<path d="M217.167 33.9387L209.684 69.6541L192.731 208.781L44.1664 190.678L60.9692 52.7859L73.724 60.3098L87.9115 56.069L100.666 63.5928L114.854 59.352L127.609 66.8759L141.796 62.6351L154.551 70.1589L170.414 65.1621L181.724 71.5497L190.467 67.8083L182.172 66.7365L170.105 58.1533L155.607 61.1708L143.54 52.5876L129.042 55.6042L116.975 47.021L102.477 50.0385L90.4104 41.4553L75.9127 44.4719L63.8457 35.8887L70.6852 3.24586L217.167 33.9387Z" fill="#ECF1FD"/>
<path d="M217.167 33.9387L219.281 34.3817L219.724 32.2676L217.61 31.8246L217.167 33.9387ZM209.684 69.6541L207.57 69.2112L207.551 69.3014L207.54 69.3929L209.684 69.6541ZM192.731 208.781L192.469 210.925L194.613 211.187L194.875 209.043L192.731 208.781ZM44.1664 190.678L42.0223 190.417L41.761 192.561L43.9051 192.822L44.1664 190.678ZM60.9692 52.7859L62.0666 50.9255L59.2242 49.2488L58.825 52.5247L60.9692 52.7859ZM73.724 60.3098L72.6266 62.1702L73.439 62.6494L74.3426 62.3793L73.724 60.3098ZM87.9115 56.069L89.0089 54.2085L88.1966 53.7293L87.2929 53.9994L87.9115 56.069ZM100.666 63.5928L99.5689 65.4533L100.381 65.9325L101.285 65.6623L100.666 63.5928ZM114.854 59.352L115.951 57.4916L115.139 57.0124L114.235 57.2825L114.854 59.352ZM127.609 66.8759L126.511 68.7363L127.324 69.2155L128.227 68.9454L127.609 66.8759ZM141.796 62.6351L142.894 60.7746L142.081 60.2954L141.178 60.5655L141.796 62.6351ZM154.551 70.1589L153.454 72.0193L154.282 72.5082L155.2 72.2191L154.551 70.1589ZM170.414 65.1621L171.477 63.2814L170.66 62.8202L169.766 63.1019L170.414 65.1621ZM181.724 71.5497L180.662 73.4304L181.592 73.9557L182.574 73.5355L181.724 71.5497ZM190.467 67.8083L191.317 69.7942L198.594 66.6804L190.744 65.6661L190.467 67.8083ZM182.172 66.7365L180.92 68.4966L181.36 68.8095L181.895 68.8787L182.172 66.7365ZM170.105 58.1533L171.357 56.3931L170.588 55.8464L169.665 56.0386L170.105 58.1533ZM155.607 61.1708L154.355 62.931L155.124 63.4777L156.047 63.2855L155.607 61.1708ZM143.54 52.5876L144.792 50.8275L144.023 50.2808L143.1 50.4729L143.54 52.5876ZM129.042 55.6042L127.79 57.3643L128.559 57.911L129.482 57.7189L129.042 55.6042ZM116.975 47.021L118.227 45.2609L117.459 44.7141L116.535 44.9063L116.975 47.021ZM102.477 50.0385L101.225 51.7987L101.994 52.3454L102.918 52.1532L102.477 50.0385ZM90.4104 41.4553L91.6624 39.6952L90.8938 39.1485L89.9704 39.3406L90.4104 41.4553ZM75.9127 44.4719L74.6607 46.232L75.4293 46.7787L76.3527 46.5866L75.9127 44.4719ZM63.8457 35.8887L61.7316 35.4458L61.4417 36.8294L62.5937 37.6489L63.8457 35.8887ZM70.6852 3.24586L71.1282 1.13177L69.0141 0.688799L68.5711 2.80291L70.6852 3.24586ZM217.167 33.9387L215.053 33.4957L207.57 69.2112L209.684 69.6541L211.798 70.0971L219.281 34.3817L217.167 33.9387ZM209.684 69.6541L207.54 69.3929L190.586 208.52L192.731 208.781L194.875 209.043L211.828 69.9154L209.684 69.6541ZM192.731 208.781L192.992 206.637L44.4277 188.534L44.1664 190.678L43.9051 192.822L192.469 210.925L192.731 208.781ZM44.1664 190.678L46.3105 190.939L63.1133 53.0472L60.9692 52.7859L58.825 52.5247L42.0223 190.417L44.1664 190.678ZM60.9692 52.7859L59.8717 54.6464L72.6266 62.1702L73.724 60.3098L74.8215 58.4493L62.0666 50.9255L60.9692 52.7859ZM73.724 60.3098L74.3426 62.3793L88.5301 58.1385L87.9115 56.069L87.2929 53.9994L73.1054 58.2403L73.724 60.3098ZM87.9115 56.069L86.8141 57.9294L99.5689 65.4533L100.666 63.5928L101.764 61.7324L89.0089 54.2085L87.9115 56.069ZM100.666 63.5928L101.285 65.6623L115.472 61.4215L114.854 59.352L114.235 57.2825L100.048 61.5233L100.666 63.5928ZM114.854 59.352L113.756 61.2124L126.511 68.7363L127.609 66.8759L128.706 65.0154L115.951 57.4916L114.854 59.352ZM127.609 66.8759L128.227 68.9454L142.415 64.7046L141.796 62.6351L141.178 60.5655L126.99 64.8063L127.609 66.8759ZM141.796 62.6351L140.699 64.4955L153.454 72.0193L154.551 70.1589L155.648 68.2985L142.894 60.7746L141.796 62.6351ZM154.551 70.1589L155.2 72.2191L171.063 67.2224L170.414 65.1621L169.766 63.1019L153.902 68.0987L154.551 70.1589ZM170.414 65.1621L169.352 67.0429L180.662 73.4304L181.724 71.5497L182.786 69.6689L171.477 63.2814L170.414 65.1621ZM181.724 71.5497L182.574 73.5355L191.317 69.7942L190.467 67.8083L189.617 65.8225L180.874 69.5639L181.724 71.5497ZM190.467 67.8083L190.744 65.6661L182.448 64.5943L182.172 66.7365L181.895 68.8787L190.19 69.9505L190.467 67.8083ZM182.172 66.7365L183.424 64.9763L171.357 56.3931L170.105 58.1533L168.853 59.9134L180.92 68.4966L182.172 66.7365ZM170.105 58.1533L169.665 56.0386L155.167 59.0561L155.607 61.1708L156.047 63.2855L170.545 60.268L170.105 58.1533ZM155.607 61.1708L156.859 59.4107L144.792 50.8275L143.54 52.5876L142.288 54.3478L154.355 62.931L155.607 61.1708ZM143.54 52.5876L143.1 50.4729L128.602 53.4895L129.042 55.6042L129.482 57.7189L143.98 54.7023L143.54 52.5876ZM129.042 55.6042L130.294 53.844L118.227 45.2609L116.975 47.021L115.723 48.7812L127.79 57.3643L129.042 55.6042ZM116.975 47.021L116.535 44.9063L102.037 47.9238L102.477 50.0385L102.918 52.1532L117.415 49.1357L116.975 47.021ZM102.477 50.0385L103.729 48.2784L91.6624 39.6952L90.4104 41.4553L89.1584 43.2155L101.225 51.7987L102.477 50.0385ZM90.4104 41.4553L89.9704 39.3406L75.4727 42.3572L75.9127 44.4719L76.3527 46.5866L90.8504 43.57L90.4104 41.4553ZM75.9127 44.4719L77.1647 42.7117L65.0977 34.1286L63.8457 35.8887L62.5937 37.6489L74.6607 46.232L75.9127 44.4719ZM63.8457 35.8887L65.9598 36.3317L72.7993 3.68882L70.6852 3.24586L68.5711 2.80291L61.7316 35.4458L63.8457 35.8887ZM70.6852 3.24586L70.2422 5.35995L216.724 36.0528L217.167 33.9387L217.61 31.8246L71.1282 1.13177L70.6852 3.24586Z" fill="#D9E3FB"/>
<path d="M8.4596 7.63117L0 22.6262L29.951 34.555L34.7345 26.8234L8.4596 7.63117Z" fill="#D9E3FB"/>
<path d="M7.72392 56.6995L6.79813 42.9378L30.1944 43.174L31.8707 49.8185L7.72392 56.6995Z" fill="#D9E3FB"/>
<circle cx="89.355" cy="158.383" r="19.62" transform="rotate(6.94749 89.355 158.383)" stroke="#B4C7F8" stroke-width="4.32" stroke-linecap="round" stroke-dasharray="2.79 8.55"/>
<path d="M157.319 138.456C161.749 131.491 170.525 129.144 176.92 133.212V133.212C183.315 137.28 184.908 146.224 180.478 153.188L163.286 180.213C158.856 187.177 150.08 189.525 143.685 185.456V185.456C137.29 181.388 135.697 172.444 140.127 165.48L157.319 138.456Z" stroke="#B4C7F8" stroke-width="4.32" stroke-linecap="round" stroke-dasharray="2.79 8.55"/>
<path d="M140.631 105.397L156.503 107.331C157.687 107.475 158.53 108.552 158.386 109.736L156.713 123.465C156.569 124.649 155.492 125.492 154.308 125.347L138.435 123.413L136.501 139.286C136.357 140.47 135.28 141.313 134.096 141.169L120.367 139.496C119.183 139.352 118.34 138.275 118.484 137.09L120.419 121.218L104.546 119.284C103.362 119.139 102.519 118.063 102.663 116.878L104.336 103.15C104.48 101.966 105.557 101.123 106.741 101.267L122.614 103.201L124.548 87.3285C124.692 86.1443 125.769 85.3014 126.954 85.4456L140.682 87.1185C141.866 87.2628 142.709 88.3398 142.565 89.5239L140.631 105.397Z" fill="#4273ED"/>
</svg>
