<svg width="281" height="236" viewBox="0 0 281 236" fill="none" xmlns="http://www.w3.org/2000/svg">
<path d="M79.0758 67.1517C73.3531 77.0967 58.1369 74.0917 42.4336 65.0554C26.7302 56.0191 16.58 44.2103 22.2558 34.3469C27.9316 24.4834 43.2416 27.3254 58.945 36.3617C74.6484 45.398 84.7986 57.2067 79.0758 67.1517Z" fill="url(#paint0_linear_4077_686)"/>
<path d="M57.8673 38.2338C65.5842 42.6744 71.7521 47.6983 75.2844 52.6673C78.7921 57.6018 79.4884 62.1042 77.2039 66.0744C74.9236 70.0372 70.7131 71.6623 64.7085 71.0716C58.6581 70.4763 51.235 67.6281 43.5106 63.1831C35.7941 58.7428 29.6249 53.7178 26.086 48.7567C22.5687 43.8256 21.871 39.3468 24.128 35.4244C26.3851 31.5019 30.6084 29.8538 36.6393 30.4171C42.7068 30.9838 50.1508 33.7935 57.8673 38.2338Z" stroke="#4273ED" stroke-opacity="0.3" stroke-width="4.32"/>
<ellipse cx="48.1413" cy="43.3758" rx="22.05" ry="9.315" transform="rotate(29.9177 48.1413 43.3758)" fill="#4273ED" fill-opacity="0.2"/>
<ellipse cx="5.15743" cy="2.93789" rx="5.15743" ry="2.93789" transform="matrix(0.963973 0.265999 -0.28572 0.958313 35.3873 31.5567)" fill="white" fill-opacity="0.5"/>
<rect x="72.6" y="61.0013" width="133.11" height="169.11" transform="rotate(0.39782 72.6 61.0013)" fill="#C6D5F9"/>
<rect x="67.4138" y="52.5085" width="133.11" height="169.11" transform="rotate(2.43594 67.4138 52.5085)" fill="#ECF0FD"/>
<rect x="77.9687" y="64.8485" width="110.97" height="145.35" transform="rotate(2.43594 77.9687 64.8485)" stroke="#C6D5F9" stroke-width="4.32"/>
<rect x="78.1712" y="105.619" width="107.28" height="22.23" transform="rotate(2.43594 78.1712 105.619)" fill="#C6D5F9" stroke="#C6D5F9" stroke-width="0.09"/>
<rect x="144.38" y="122.578" width="90" height="4.23" transform="rotate(92.4359 144.38 122.578)" fill="#C6D5F9" stroke="#C6D5F9" stroke-width="0.09"/>
<rect x="75.5008" y="142.979" width="109.44" height="4.23" transform="rotate(2.43594 75.5008 142.979)" fill="#C6D5F9" stroke="#C6D5F9" stroke-width="0.09"/>
<rect x="74.8085" y="159.254" width="109.44" height="4.23" transform="rotate(2.43594 74.8085 159.254)" fill="#C6D5F9" stroke="#C6D5F9" stroke-width="0.09"/>
<rect x="74.1162" y="175.53" width="109.44" height="4.23" transform="rotate(2.43594 74.1162 175.53)" fill="#C6D5F9" stroke="#C6D5F9" stroke-width="0.09"/>
<rect x="73.4237" y="191.805" width="109.44" height="4.23" transform="rotate(2.43594 73.4237 191.805)" fill="#C6D5F9" stroke="#C6D5F9" stroke-width="0.09"/>
<path d="M194.142 205.363L171.456 226.198L193.216 227.123L194.142 205.363Z" fill="#C6D5F9"/>
<path d="M171.456 226.198L194.142 205.363L175.618 204.575C173.83 204.499 172.32 205.887 172.243 207.674L171.456 226.198Z" fill="#B4C7F8"/>
<path d="M7.16499 108.061L0.581299 123.969L31.7552 132.187L35.5684 123.934L7.16499 108.061Z" fill="#D9E3FB"/>
<path d="M225.35 0.385582L239.819 9.71619L218.869 34.2199L211.035 29.6053L225.35 0.385582Z" fill="#D9E3FB"/>
<path d="M12.37 156.858L9.78639 143.309L33.0394 140.714L35.5072 147.107L12.37 156.858Z" fill="#D9E3FB"/>
<path d="M248.851 43.4664L243.262 30.8567L222.667 41.9606L224.277 48.6213L248.851 43.4664Z" fill="#D9E3FB"/>
<path d="M222.593 111.114L235.418 93.1214L259.529 110.308L246.705 128.3C241.959 134.958 232.714 136.509 226.056 131.763C219.398 127.017 217.847 117.772 222.593 111.114Z" fill="url(#paint1_linear_4077_686)"/>
<path d="M235.923 96.1341L224.352 112.367C220.299 118.054 221.623 125.951 227.31 130.004C232.997 134.057 240.893 132.733 244.946 127.046L256.517 110.813L235.923 96.1341Z" stroke="#4273ED" stroke-opacity="0.3" stroke-width="4.32"/>
<path d="M235.418 93.1215L248.294 75.0559C253.04 68.3976 262.285 66.8473 268.943 71.5932C275.602 76.3391 277.152 85.584 272.406 92.2423L259.529 110.308L235.418 93.1215Z" fill="#4273ED"/>
<ellipse cx="2.59235" cy="5.19572" rx="2.59235" ry="5.19572" transform="matrix(-0.702696 -0.71149 -0.71149 0.702696 258.126 80.5239)" fill="white" fill-opacity="0.5"/>
<path d="M77.23 191.615C77.23 200.239 70.2389 207.23 61.615 207.23C52.9911 207.23 46 200.239 46 191.615C46 182.991 52.9911 176 61.615 176C70.2389 176 77.23 182.991 77.23 191.615Z" fill="#FF6565"/>
<path d="M61.6152 178.16C69.0461 178.16 75.0703 184.184 75.0703 191.615C75.0702 199.046 69.046 205.07 61.6152 205.07C54.1843 205.07 48.1603 199.046 48.1602 191.615C48.1602 184.184 54.1842 178.16 61.6152 178.16Z" stroke="black" stroke-opacity="0.2" stroke-width="4.32"/>
<path d="M255.055 169.703C248.657 168.21 242.53 168.696 237.823 170.582C233.108 172.471 230.004 175.664 229.101 179.529L227.111 188.051C226.209 191.917 227.579 196.154 230.97 199.935C234.355 203.711 239.633 206.86 246.031 208.353C252.429 209.847 258.556 209.361 263.263 207.475C267.978 205.586 271.082 202.393 271.985 198.528L273.975 190.005C274.877 186.14 273.507 181.903 270.116 178.122C266.731 174.346 261.453 171.197 255.055 169.703Z" fill="url(#paint2_linear_4077_686)" stroke="#BBCDF8" stroke-width="4.32"/>
<path d="M229.045 180.781C228.984 184.017 230.405 187.402 233.175 190.485C236.562 194.255 241.84 197.401 248.239 198.895C254.638 200.389 260.765 199.906 265.471 198.025C269.32 196.487 272.092 194.081 273.47 191.153L229.045 180.781ZM255.258 168.833C248.859 167.339 242.733 167.822 238.027 169.703C234.178 171.241 231.406 173.645 230.028 176.574L274.452 186.946C274.513 183.71 273.093 180.326 270.323 177.243C266.936 173.473 261.657 170.327 255.258 168.833Z" fill="#D9E3FB" stroke="#BBCDF8" stroke-width="4.32"/>
<defs>
<linearGradient id="paint0_linear_4077_686" x1="58.945" y1="36.3617" x2="42.4336" y2="65.0554" gradientUnits="userSpaceOnUse">
<stop stop-color="#688FF0"/>
<stop offset="1" stop-color="#ECF1FD"/>
</linearGradient>
<linearGradient id="paint1_linear_4077_686" x1="248.821" y1="125.332" x2="224.709" y2="108.146" gradientUnits="userSpaceOnUse">
<stop offset="0.519231" stop-color="#D9E3FB"/>
<stop offset="1" stop-color="#BBCDF8"/>
</linearGradient>
<linearGradient id="paint2_linear_4077_686" x1="225.647" y1="184.822" x2="273.72" y2="199.044" gradientUnits="userSpaceOnUse">
<stop offset="0.548077" stop-color="#D9E3FB"/>
<stop offset="1" stop-color="#BBCDF8"/>
</linearGradient>
</defs>
</svg>
