<svg width="281" height="236" viewBox="0 0 281 236" fill="none" xmlns="http://www.w3.org/2000/svg">
<path d="M78.4941 66.766C72.7714 76.711 57.5551 73.706 41.8518 64.6697C26.1484 55.6334 15.9982 43.8246 21.674 33.9611C27.3498 24.0977 42.6598 26.9396 58.3632 35.9759C74.0666 45.0122 84.2168 56.821 78.4941 66.766Z" fill="url(#paint0_linear_4082_1211)"/>
<path d="M57.2855 37.8481C65.0024 42.2886 71.1703 47.3125 74.7026 52.2816C78.2103 57.2161 78.9066 61.7185 76.6222 65.6886C74.3418 69.6515 70.1313 71.2765 64.1268 70.6859C58.0763 70.0906 50.6532 67.2423 42.9288 62.7974C35.2123 58.357 29.0431 53.3321 25.5043 48.3709C21.9869 43.4398 21.2892 38.961 23.5462 35.0386C25.8034 31.1161 30.0266 29.4681 36.0575 30.0314C42.125 30.5981 49.5691 33.4078 57.2855 37.8481Z" stroke="#4273ED" stroke-opacity="0.3" stroke-width="4.32"/>
<ellipse cx="47.5595" cy="42.9902" rx="22.05" ry="9.315" transform="rotate(29.9177 47.5595 42.9902)" fill="#4273ED" fill-opacity="0.2"/>
<ellipse cx="5.15743" cy="2.93789" rx="5.15743" ry="2.93789" transform="matrix(0.963973 0.265999 -0.28572 0.958313 34.8057 31.1709)" fill="white" fill-opacity="0.5"/>
<rect x="72.0176" y="60.6157" width="133.11" height="169.11" transform="rotate(0.39782 72.0176 60.6157)" fill="#C6D5F9"/>
<rect x="66.832" y="52.123" width="133.11" height="169.11" transform="rotate(2.43594 66.832 52.123)" fill="#ECF0FD"/>
<rect x="77.3866" y="64.4632" width="110.97" height="145.35" transform="rotate(2.43594 77.3866 64.4632)" stroke="#C6D5F9" stroke-width="4.32"/>
<rect x="77.5899" y="105.233" width="107.28" height="22.23" transform="rotate(2.43594 77.5899 105.233)" fill="#C6D5F9" stroke="#C6D5F9" stroke-width="0.09"/>
<rect x="143.799" y="122.193" width="90" height="4.23" transform="rotate(92.4359 143.799 122.193)" fill="#C6D5F9" stroke="#C6D5F9" stroke-width="0.09"/>
<rect x="74.92" y="142.594" width="109.44" height="4.23" transform="rotate(2.43594 74.92 142.594)" fill="#C6D5F9" stroke="#C6D5F9" stroke-width="0.09"/>
<rect x="74.2266" y="158.869" width="109.44" height="4.23" transform="rotate(2.43594 74.2266 158.869)" fill="#C6D5F9" stroke="#C6D5F9" stroke-width="0.09"/>
<rect x="73.5352" y="175.145" width="109.44" height="4.23" transform="rotate(2.43594 73.5352 175.145)" fill="#C6D5F9" stroke="#C6D5F9" stroke-width="0.09"/>
<rect x="72.8419" y="191.419" width="109.44" height="4.23" transform="rotate(2.43594 72.8419 191.419)" fill="#C6D5F9" stroke="#C6D5F9" stroke-width="0.09"/>
<path d="M193.559 204.977L170.873 225.812L192.633 226.738L193.559 204.977Z" fill="#C6D5F9"/>
<path d="M170.874 225.812L193.56 204.977L175.037 204.189C173.249 204.113 171.738 205.501 171.662 207.289L170.874 225.812Z" fill="#B4C7F8"/>
<path d="M6.58369 107.675L0 123.583L31.1739 131.802L34.9871 123.548L6.58369 107.675Z" fill="#D9E3FB"/>
<path d="M224.769 -3.80546e-05L239.238 9.33057L218.288 33.8343L210.454 29.2197L224.769 -3.80546e-05Z" fill="#D9E3FB"/>
<path d="M11.7886 156.472L9.20497 142.924L32.458 140.328L34.9258 146.721L11.7886 156.472Z" fill="#D9E3FB"/>
<path d="M248.269 43.0808L242.68 30.4711L222.086 41.575L223.696 48.2357L248.269 43.0808Z" fill="#D9E3FB"/>
<path d="M222.013 110.728L234.837 92.7355L258.949 109.922L246.125 127.914C241.379 134.572 232.134 136.123 225.476 131.377C218.817 126.631 217.267 117.386 222.013 110.728Z" fill="url(#paint1_linear_4082_1211)"/>
<path d="M235.342 95.7481L223.772 111.981C219.718 117.668 221.043 125.565 226.729 129.618C232.416 133.672 240.312 132.347 244.366 126.66L255.936 110.427L235.342 95.7481Z" stroke="#4273ED" stroke-opacity="0.3" stroke-width="4.32"/>
<path d="M234.836 92.7359L247.713 74.6703C252.459 68.012 261.704 66.4617 268.362 71.2076C275.02 75.9535 276.571 85.1984 271.825 91.8567L258.948 109.922L234.836 92.7359Z" fill="#4273ED"/>
<ellipse cx="2.59235" cy="5.19572" rx="2.59235" ry="5.19572" transform="matrix(-0.702696 -0.71149 -0.71149 0.702696 257.545 80.1382)" fill="white" fill-opacity="0.5"/>
<path d="M76.6489 191.229C76.6489 199.853 69.6579 206.844 61.0339 206.844C52.41 206.844 45.4189 199.853 45.4189 191.229C45.4189 182.605 52.41 175.614 61.0339 175.614C69.6579 175.614 76.6489 182.605 76.6489 191.229Z" fill="#FF6565"/>
<path d="M61.0342 177.774C68.4651 177.775 74.4893 183.799 74.4893 191.229C74.4891 198.66 68.465 204.684 61.0342 204.685C53.6033 204.685 47.5792 198.66 47.5791 191.229C47.5791 183.799 53.6032 177.774 61.0342 177.774Z" stroke="black" stroke-opacity="0.2" stroke-width="4.32"/>
<path d="M254.473 169.318C248.074 167.824 241.948 168.311 237.24 170.197C232.526 172.086 229.421 175.278 228.519 179.143L226.529 187.666C225.627 191.531 226.997 195.768 230.387 199.55C233.773 203.325 239.051 206.474 245.449 207.968C251.847 209.462 257.974 208.975 262.681 207.089C267.396 205.2 270.5 202.008 271.402 198.143L273.392 189.62C274.295 185.755 272.925 181.518 269.534 177.736C266.149 173.961 260.871 170.812 254.473 169.318Z" fill="url(#paint2_linear_4082_1211)" stroke="#BBCDF8" stroke-width="4.32"/>
<path d="M226.627 177.749C224.417 187.212 233.613 197.448 247.166 200.612C260.719 203.777 273.497 198.67 275.707 189.207C277.916 179.744 268.72 169.508 255.167 166.344C241.614 163.18 228.836 168.286 226.627 177.749Z" fill="#D9E3FB"/>
<path d="M254.532 166.202C241.217 163.34 228.801 168.433 226.626 177.748C224.417 187.211 233.613 197.448 247.166 200.613L248.148 196.406C242.127 195 237.256 192.058 234.199 188.655C231.848 186.038 230.717 183.353 230.629 180.901L270.722 190.262C269.557 192.421 267.354 194.328 264.087 195.633C259.84 197.33 254.17 197.811 248.148 196.406L247.166 200.613L247.801 200.755C261.116 203.616 273.532 198.522 275.707 189.207C277.916 179.744 268.72 169.508 255.167 166.344L254.532 166.202ZM254.185 170.551C260.206 171.957 265.077 174.898 268.134 178.3C270.485 180.917 271.616 183.603 271.704 186.055L231.612 176.694C232.777 174.535 234.979 172.628 238.246 171.323C242.493 169.625 248.163 169.145 254.185 170.551Z" fill="#BBCDF8"/>
<defs>
<linearGradient id="paint0_linear_4082_1211" x1="58.3632" y1="35.9759" x2="41.8518" y2="64.6697" gradientUnits="userSpaceOnUse">
<stop stop-color="#688FF0"/>
<stop offset="1" stop-color="#ECF1FD"/>
</linearGradient>
<linearGradient id="paint1_linear_4082_1211" x1="248.24" y1="124.946" x2="224.129" y2="107.76" gradientUnits="userSpaceOnUse">
<stop offset="0.519231" stop-color="#D9E3FB"/>
<stop offset="1" stop-color="#BBCDF8"/>
</linearGradient>
<linearGradient id="paint2_linear_4082_1211" x1="225.065" y1="184.437" x2="273.138" y2="198.658" gradientUnits="userSpaceOnUse">
<stop offset="0.548077" stop-color="#D9E3FB"/>
<stop offset="1" stop-color="#BBCDF8"/>
</linearGradient>
</defs>
</svg>
