<svg width="260" height="210" viewBox="0 0 260 210" fill="none" xmlns="http://www.w3.org/2000/svg">
<path d="M238.738 64.8472C249.027 64.8473 257.368 73.1881 257.368 83.4771C257.368 93.766 249.027 102.107 238.738 102.107H212.458L200.796 117.434C199.752 118.806 197.563 118.068 197.563 116.344V102.107H195.088C184.799 102.107 176.458 93.7661 176.458 83.4771C176.458 73.1881 184.799 64.8472 195.088 64.8472H238.738Z" fill="#ECF0FD"/>
<path d="M238.738 64.8472L238.738 62.6872H238.738V64.8472ZM257.368 83.4771L259.528 83.4771L259.528 83.477L257.368 83.4771ZM238.738 102.107L238.738 104.267L238.738 104.267L238.738 102.107ZM212.458 102.107V99.9469H211.387L210.739 100.799L212.458 102.107ZM200.796 117.434L202.515 118.742L202.515 118.742L200.796 117.434ZM197.563 116.344L195.402 116.344L195.402 116.344L197.563 116.344ZM197.563 102.107H199.723V99.9469H197.563V102.107ZM195.088 102.107L195.088 104.267H195.088V102.107ZM176.458 83.4771L174.298 83.477L174.298 83.4771L176.458 83.4771ZM195.088 64.8472L195.088 62.6872L195.088 62.6872L195.088 64.8472ZM238.738 64.8472L238.738 67.0072C247.834 67.0073 255.208 74.3811 255.208 83.4771L257.368 83.4771L259.528 83.477C259.528 71.9952 250.22 62.6873 238.738 62.6872L238.738 64.8472ZM257.368 83.4771L255.208 83.4771C255.208 92.573 247.834 99.9468 238.738 99.9469L238.738 102.107L238.738 104.267C250.22 104.267 259.528 94.959 259.528 83.4771L257.368 83.4771ZM238.738 102.107V99.9469H212.458V102.107V104.267H238.738V102.107ZM212.458 102.107L210.739 100.799L199.077 116.126L200.796 117.434L202.515 118.742L214.177 103.415L212.458 102.107ZM200.796 117.434L199.077 116.126C199.105 116.089 199.176 116.03 199.278 116.002C199.364 115.978 199.433 115.988 199.478 116.003C199.523 116.018 199.583 116.052 199.638 116.123C199.702 116.207 199.722 116.298 199.723 116.344L197.563 116.344L195.402 116.344C195.403 120.137 200.22 121.759 202.515 118.742L200.796 117.434ZM197.563 116.344H199.723V102.107H197.563H195.402V116.344H197.563ZM197.563 102.107V99.9469H195.088V102.107V104.267H197.563V102.107ZM195.088 102.107L195.088 99.9469C185.992 99.9469 178.618 92.5731 178.618 83.4771L176.458 83.4771L174.298 83.4771C174.298 94.959 183.606 104.267 195.088 104.267L195.088 102.107ZM176.458 83.4771L178.618 83.4771C178.618 74.381 185.992 67.0072 195.088 67.0072L195.088 64.8472L195.088 62.6872C183.606 62.6872 174.298 71.9951 174.298 83.477L176.458 83.4771ZM195.088 64.8472V67.0072H238.738V64.8472V62.6872H195.088V64.8472Z" fill="#C6D4F9"/>
<circle cx="198.148" cy="83.8566" r="4.32" fill="#B4C7F8"/>
<circle cx="216.868" cy="83.8566" r="4.32" fill="#B4C7F8"/>
<circle cx="235.588" cy="83.8566" r="4.32" fill="#B4C7F8"/>
<path d="M153.13 12.6406L154.781 49.0943L173.024 188.058L24.6347 207.538L6.55379 69.808L20.7808 73.9159L33.4645 66.2752L47.6915 70.3832L60.3752 62.7425L74.6022 66.8504L87.2859 59.2097L101.513 63.3176L115.631 54.5273L128.176 57.8958L135.71 52.0943L127.41 53.1228L113.585 47.8166L100.296 54.3499L86.4715 49.0446L73.1825 55.578L59.3576 50.2717L46.0686 56.8051L32.2438 51.4998L18.9548 58.0331L5.12992 52.7269L3.62127 19.4094L153.13 12.6406Z" fill="#ECF1FD"/>
<path d="M153.13 12.6406L155.288 12.5429L155.19 10.3852L153.033 10.4829L153.13 12.6406ZM154.781 49.0943L152.623 49.192L152.627 49.2841L152.639 49.3755L154.781 49.0943ZM173.024 188.058L173.305 190.2L175.446 189.919L175.165 187.777L173.024 188.058ZM24.6347 207.538L22.493 207.82L22.7742 209.961L24.9158 209.68L24.6347 207.538ZM6.55379 69.808L7.15299 67.7328L3.98265 66.8173L4.41216 70.0891L6.55379 69.808ZM20.7808 73.9159L20.1816 75.9912L21.0876 76.2528L21.8954 75.7662L20.7808 73.9159ZM33.4645 66.2752L34.0637 64.2L33.1577 63.9384L32.3499 64.425L33.4645 66.2752ZM47.6915 70.3832L47.0923 72.4584L47.9983 72.72L48.8061 72.2334L47.6915 70.3832ZM60.3752 62.7425L60.9744 60.6672L60.0684 60.4056L59.2606 60.8922L60.3752 62.7425ZM74.6022 66.8504L74.003 68.9256L74.909 69.1872L75.7168 68.7006L74.6022 66.8504ZM87.2859 59.2097L87.8851 57.1345L86.9791 56.8729L86.1713 57.3595L87.2859 59.2097ZM101.513 63.3176L100.914 65.3929L101.838 65.6597L102.655 65.1513L101.513 63.3176ZM115.631 54.5273L116.192 52.4412L115.286 52.1979L114.49 52.6936L115.631 54.5273ZM128.176 57.8958L127.615 59.9819L128.647 60.2589L129.493 59.6073L128.176 57.8958ZM135.71 52.0943L137.028 53.8057L143.299 48.9774L135.445 49.9507L135.71 52.0943ZM127.41 53.1228L126.636 55.1394L127.14 55.3328L127.676 55.2664L127.41 53.1228ZM113.585 47.8166L114.359 45.8L113.479 45.462L112.632 45.8782L113.585 47.8166ZM100.296 54.3499L99.5224 56.3665L100.403 56.7044L101.249 56.2883L100.296 54.3499ZM86.4715 49.0446L87.2454 47.028L86.3649 46.6901L85.5185 47.1062L86.4715 49.0446ZM73.1825 55.578L72.4085 57.5945L73.289 57.9325L74.1355 57.5164L73.1825 55.578ZM59.3576 50.2717L60.1316 48.2552L59.251 47.9172L58.4046 48.3333L59.3576 50.2717ZM46.0686 56.8051L45.2947 58.8217L46.1752 59.1596L47.0216 58.7435L46.0686 56.8051ZM32.2438 51.4998L33.0177 49.4832L32.1372 49.1453L31.2908 49.5614L32.2438 51.4998ZM18.9548 58.0331L18.1808 60.0497L19.0613 60.3877L19.9078 59.9716L18.9548 58.0331ZM5.12992 52.7269L2.97213 52.8246L3.03608 54.2369L4.35592 54.7435L5.12992 52.7269ZM3.62127 19.4094L3.52358 17.2516L1.36578 17.3493L1.46348 19.5071L3.62127 19.4094ZM153.13 12.6406L150.973 12.7383L152.623 49.192L154.781 49.0943L156.939 48.9966L155.288 12.5429L153.13 12.6406ZM154.781 49.0943L152.639 49.3755L170.882 188.339L173.024 188.058L175.165 187.777L156.922 48.8132L154.781 49.0943ZM173.024 188.058L172.742 185.917L24.3535 205.397L24.6347 207.538L24.9158 209.68L173.305 190.2L173.024 188.058ZM24.6347 207.538L26.7763 207.257L8.69541 69.5268L6.55379 69.808L4.41216 70.0891L22.493 207.82L24.6347 207.538ZM6.55379 69.808L5.95458 71.8832L20.1816 75.9912L20.7808 73.9159L21.38 71.8407L7.15299 67.7328L6.55379 69.808ZM20.7808 73.9159L21.8954 75.7662L34.5791 68.1254L33.4645 66.2752L32.3499 64.425L19.6662 72.0657L20.7808 73.9159ZM33.4645 66.2752L32.8653 68.3504L47.0923 72.4584L47.6915 70.3832L48.2907 68.308L34.0637 64.2L33.4645 66.2752ZM47.6915 70.3832L48.8061 72.2334L61.4898 64.5927L60.3752 62.7425L59.2606 60.8922L46.5769 68.533L47.6915 70.3832ZM60.3752 62.7425L59.776 64.8177L74.003 68.9256L74.6022 66.8504L75.2014 64.7752L60.9744 60.6672L60.3752 62.7425ZM74.6022 66.8504L75.7168 68.7006L88.4005 61.0599L87.2859 59.2097L86.1713 57.3595L73.4876 65.0002L74.6022 66.8504ZM87.2859 59.2097L86.6867 61.2849L100.914 65.3929L101.513 63.3176L102.112 61.2424L87.8851 57.1345L87.2859 59.2097ZM101.513 63.3176L102.655 65.1513L116.773 56.3609L115.631 54.5273L114.49 52.6936L100.371 61.484L101.513 63.3176ZM115.631 54.5273L115.071 56.6134L127.615 59.9819L128.176 57.8958L128.736 55.8097L116.192 52.4412L115.631 54.5273ZM128.176 57.8958L129.493 59.6073L137.028 53.8057L135.71 52.0943L134.392 50.3828L126.858 56.1844L128.176 57.8958ZM135.71 52.0943L135.445 49.9507L127.145 50.9792L127.41 53.1228L127.676 55.2664L135.976 54.2379L135.71 52.0943ZM127.41 53.1228L128.184 51.1062L114.359 45.8L113.585 47.8166L112.811 49.8331L126.636 55.1394L127.41 53.1228ZM113.585 47.8166L112.632 45.8782L99.3433 52.4115L100.296 54.3499L101.249 56.2883L114.538 49.755L113.585 47.8166ZM100.296 54.3499L101.07 52.3333L87.2454 47.028L86.4715 49.0446L85.6976 51.0613L99.5224 56.3665L100.296 54.3499ZM86.4715 49.0446L85.5185 47.1062L72.2295 53.6396L73.1825 55.578L74.1355 57.5164L87.4245 50.9831L86.4715 49.0446ZM73.1825 55.578L73.9565 53.5614L60.1316 48.2552L59.3576 50.2717L58.5836 52.2883L72.4085 57.5945L73.1825 55.578ZM59.3576 50.2717L58.4046 48.3333L45.1156 54.8667L46.0686 56.8051L47.0216 58.7435L60.3106 52.2102L59.3576 50.2717ZM46.0686 56.8051L46.8424 54.7885L33.0177 49.4832L32.2438 51.4998L31.4699 53.5164L45.2947 58.8217L46.0686 56.8051ZM32.2438 51.4998L31.2908 49.5614L18.0018 56.0947L18.9548 58.0331L19.9078 59.9716L33.1968 53.4382L32.2438 51.4998ZM18.9548 58.0331L19.7288 56.0166L5.90391 50.7103L5.12992 52.7269L4.35592 54.7435L18.1808 60.0497L18.9548 58.0331ZM5.12992 52.7269L7.2877 52.6292L5.77906 19.3117L3.62127 19.4094L1.46348 19.5071L2.97213 52.8246L5.12992 52.7269ZM3.62127 19.4094L3.71896 21.5672L153.228 14.7984L153.13 12.6406L153.033 10.4829L3.52358 17.2516L3.62127 19.4094Z" fill="#D9E3FB"/>
<path d="M79.9816 189.277L60.8826 178.167L75.7705 152.572L94.8695 163.682C101.937 167.793 104.334 176.855 100.223 183.923C96.1118 190.991 87.0494 193.388 79.9816 189.277Z" fill="url(#paint0_linear_4082_1242)"/>
<path d="M63.8358 177.386L81.0673 187.41C87.1039 190.921 94.8449 188.874 98.3562 182.837C101.867 176.8 99.8197 169.06 93.7831 165.549L76.5516 155.526L63.8358 177.386Z" stroke="#4273ED" stroke-opacity="0.3" stroke-width="4.32"/>
<path d="M60.8822 178.168L41.7054 167.013C34.6376 162.902 32.2407 153.839 36.3519 146.772C40.4631 139.704 49.5255 137.307 56.5934 141.418L75.7701 152.573L60.8822 178.168Z" fill="#4273ED"/>
<ellipse cx="2.59235" cy="5.19572" rx="2.59235" ry="5.19572" transform="matrix(-0.643607 0.765356 0.765356 0.643607 46.2432 156.718)" fill="white" fill-opacity="0.5"/>
<path d="M151.494 171.335C146.445 181.638 131.063 179.652 114.793 171.679C98.5241 163.707 87.6112 152.599 92.6187 142.38C97.6262 132.161 113.091 133.979 129.361 141.951C145.63 149.924 156.543 161.031 151.494 171.335Z" fill="url(#paint1_linear_4082_1242)"/>
<path d="M128.41 143.891C136.405 147.809 142.893 152.411 146.748 157.134C150.576 161.825 151.57 166.271 149.555 170.384C147.543 174.49 143.45 176.391 137.419 176.201C131.343 176.009 123.747 173.661 115.744 169.739C107.749 165.822 101.259 161.218 97.3985 156.503C93.5612 151.817 92.5672 147.395 94.5585 143.331C96.5498 139.267 100.654 137.342 106.709 137.503C112.801 137.665 120.415 139.973 128.41 143.891Z" stroke="#4273ED" stroke-opacity="0.3" stroke-width="4.32"/>
<ellipse cx="119.047" cy="149.668" rx="22.05" ry="9.315" transform="rotate(26.1057 119.047 149.668)" fill="#4273ED" fill-opacity="0.2"/>
<ellipse cx="5.15743" cy="2.93789" rx="5.15743" ry="2.93789" transform="matrix(0.979525 0.201323 -0.221376 0.975189 105.536 138.723)" fill="white" fill-opacity="0.5"/>
<path d="M51.536 91.8458C45.5392 94.5302 40.9572 98.6264 38.3523 102.977C35.7433 107.335 35.2053 111.755 36.8268 115.378L40.4026 123.366C42.0243 126.989 45.6795 129.532 50.6677 130.489C55.6478 131.445 61.7552 130.756 67.7519 128.071C73.7488 125.387 78.3307 121.291 80.9356 116.94C83.5447 112.582 84.0828 108.162 82.4611 104.539L78.8853 96.5511C77.2635 92.9284 73.6085 90.3852 68.6202 89.4281C63.6401 88.4727 57.5328 89.1614 51.536 91.8458Z" fill="url(#paint2_linear_4082_1242)" stroke="#BBCDF8" stroke-width="4.32"/>
<path d="M34.4764 115.414C38.4467 124.283 51.963 126.863 64.666 121.177C77.3689 115.491 84.4481 103.691 80.4779 94.8216C76.5076 85.9523 62.9913 83.3719 50.2884 89.0582C37.5854 94.7445 30.5062 106.544 34.4764 115.414Z" fill="#D9E3FB"/>
<path d="M49.6969 89.3293C37.367 95.1127 30.568 106.683 34.476 115.414C38.4462 124.283 51.9631 126.864 64.666 121.178L62.9008 117.234C57.257 119.761 51.5993 120.368 47.1065 119.51C43.6507 118.85 41.1246 117.398 39.5701 115.5L77.1488 98.6783C77.5289 101.102 76.9293 103.954 75.1193 106.97C72.7662 110.893 68.5446 114.708 62.9008 117.234L64.666 121.178L65.2572 120.906C77.5875 115.123 84.386 103.552 80.4778 94.8214C76.5073 85.9522 62.991 83.372 50.2882 89.0583L49.6969 89.3293ZM52.0533 93.0015C57.697 90.4752 63.3545 89.8673 67.8473 90.7249C71.3027 91.3846 73.8291 92.8371 75.3836 94.735L37.8058 111.556C37.4259 109.133 38.0246 106.281 39.8344 103.265C42.1875 99.3424 46.4097 95.5279 52.0533 93.0015Z" fill="#BBCDF8"/>
<path d="M143.872 117.896C139.868 128.922 131.15 135.874 124.399 133.423C117.647 130.971 115.42 120.046 119.423 109.019C123.427 97.9932 132.145 91.0418 138.896 93.493C145.647 95.9442 147.875 106.87 143.872 117.896Z" fill="#ECF1FD"/>
<path d="M139.209 93.614C145.715 96.2857 147.812 107.042 143.871 117.896C139.868 128.922 131.15 135.874 124.398 133.423L125.873 129.362C127.302 129.881 129.6 129.626 132.472 127.335C134.882 125.415 137.253 122.349 139 118.426L122.82 112.551C121.643 116.681 121.495 120.554 122.111 123.573C122.845 127.173 124.443 128.843 125.873 129.362L124.398 133.423L124.085 133.301C117.579 130.629 115.482 119.873 119.423 109.02C123.426 97.9935 132.145 91.0419 138.896 93.493L139.209 93.614ZM137.422 97.5539C135.992 97.0349 133.695 97.2895 130.822 99.5796C128.413 101.501 126.041 104.567 124.295 108.49L140.474 114.365C141.652 110.234 141.8 106.361 141.184 103.342C140.45 99.7422 138.851 98.0729 137.422 97.5539Z" fill="#BBCDF8"/>
<path d="M91.1973 94.116L107.051 92.0347C108.234 91.8795 109.319 92.7124 109.474 93.8952L111.274 107.608C111.43 108.79 110.597 109.875 109.414 110.03L93.5598 112.112L95.641 127.966C95.7963 129.148 94.9633 130.233 93.7805 130.388L80.0682 132.188C78.8855 132.344 77.8007 131.511 77.6455 130.328L75.5642 114.474L59.7102 116.555C58.5274 116.711 57.4427 115.878 57.2874 114.695L55.4873 100.982C55.332 99.7997 56.165 98.715 57.3478 98.5597L73.2018 96.4784L71.1205 80.6244C70.9653 79.4416 71.7982 78.3569 72.981 78.2017L86.6933 76.4015C87.8761 76.2463 88.9608 77.0792 89.1161 78.262L91.1973 94.116Z" fill="#4273ED"/>
<defs>
<linearGradient id="paint0_linear_4082_1242" x1="91.7187" y1="161.849" x2="76.8308" y2="187.444" gradientUnits="userSpaceOnUse">
<stop offset="0.519231" stop-color="#D9E3FB"/>
<stop offset="1" stop-color="#BBCDF8"/>
</linearGradient>
<linearGradient id="paint1_linear_4082_1242" x1="129.361" y1="141.951" x2="114.793" y2="171.679" gradientUnits="userSpaceOnUse">
<stop stop-color="#688FF0"/>
<stop offset="1" stop-color="#ECF1FD"/>
</linearGradient>
<linearGradient id="paint2_linear_4082_1242" x1="37.2825" y1="121.682" x2="84.1547" y2="103.899" gradientUnits="userSpaceOnUse">
<stop offset="0.548077" stop-color="#D9E3FB"/>
<stop offset="1" stop-color="#BBCDF8"/>
</linearGradient>
</defs>
</svg>
