<svg width="260" height="210" viewBox="0 0 260 210" fill="none" xmlns="http://www.w3.org/2000/svg">
<path d="M238.738 64.8474C249.027 64.8476 257.368 73.1884 257.368 83.4773C257.368 93.7663 249.027 102.107 238.738 102.107H212.458L200.796 117.434C199.752 118.806 197.563 118.068 197.563 116.344V102.107H195.088C184.799 102.107 176.458 93.7663 176.458 83.4773C176.458 73.1883 184.799 64.8475 195.088 64.8474H238.738Z" fill="#ECF0FD"/>
<path d="M238.738 64.8474L238.738 62.6874H238.738V64.8474ZM257.368 83.4773L259.528 83.4773L259.528 83.4773L257.368 83.4773ZM238.738 102.107L238.738 104.267L238.738 104.267L238.738 102.107ZM212.458 102.107V99.9472H211.387L210.739 100.799L212.458 102.107ZM200.796 117.434L202.515 118.742L202.515 118.742L200.796 117.434ZM197.563 116.344L195.402 116.344L195.402 116.345L197.563 116.344ZM197.563 102.107H199.723V99.9472H197.563V102.107ZM195.088 102.107L195.088 104.267H195.088V102.107ZM176.458 83.4773L174.298 83.4773L174.298 83.4773L176.458 83.4773ZM195.088 64.8474L195.088 62.6874L195.088 62.6874L195.088 64.8474ZM238.738 64.8474L238.738 67.0074C247.834 67.0076 255.208 74.3813 255.208 83.4773L257.368 83.4773L259.528 83.4773C259.528 71.9954 250.22 62.6876 238.738 62.6874L238.738 64.8474ZM257.368 83.4773L255.208 83.4773C255.208 92.5733 247.834 99.947 238.738 99.9472L238.738 102.107L238.738 104.267C250.22 104.267 259.528 94.9592 259.528 83.4773L257.368 83.4773ZM238.738 102.107V99.9472H212.458V102.107V104.267H238.738V102.107ZM212.458 102.107L210.739 100.799L199.077 116.126L200.796 117.434L202.515 118.742L214.177 103.415L212.458 102.107ZM200.796 117.434L199.077 116.126C199.105 116.09 199.176 116.03 199.278 116.002C199.364 115.979 199.433 115.988 199.478 116.003C199.523 116.018 199.583 116.052 199.638 116.124C199.702 116.208 199.722 116.298 199.723 116.344L197.563 116.344L195.402 116.345C195.403 120.137 200.22 121.759 202.515 118.742L200.796 117.434ZM197.563 116.344H199.723V102.107H197.563H195.402V116.344H197.563ZM197.563 102.107V99.9472H195.088V102.107V104.267H197.563V102.107ZM195.088 102.107L195.088 99.9472C185.992 99.9471 178.618 92.5734 178.618 83.4773L176.458 83.4773L174.298 83.4773C174.298 94.9593 183.606 104.267 195.088 104.267L195.088 102.107ZM176.458 83.4773L178.618 83.4773C178.618 74.3812 185.992 67.0075 195.088 67.0074L195.088 64.8474L195.088 62.6874C183.606 62.6875 174.298 71.9954 174.298 83.4773L176.458 83.4773ZM195.088 64.8474V67.0074H238.738V64.8474V62.6874H195.088V64.8474Z" fill="#C6D4F9"/>
<circle cx="198.148" cy="83.8568" r="4.32" fill="#B4C7F8"/>
<circle cx="216.868" cy="83.8568" r="4.32" fill="#B4C7F8"/>
<circle cx="235.588" cy="83.8568" r="4.32" fill="#B4C7F8"/>
<path d="M153.13 12.6407L154.781 49.0944L173.024 188.058L24.6347 207.538L6.55379 69.808L20.7808 73.916L33.4645 66.2753L47.6915 70.3832L60.3752 62.7425L74.6022 66.8505L87.2859 59.2097L101.513 63.3177L115.631 54.5273L128.176 57.8959L135.71 52.0943L127.41 53.1229L113.585 47.8166L100.296 54.35L86.4715 49.0447L73.1825 55.578L59.3576 50.2718L46.0686 56.8051L32.2438 51.4999L18.9548 58.0332L5.12992 52.727L3.62127 19.4094L153.13 12.6407Z" fill="#ECF1FD"/>
<path d="M153.13 12.6407L155.288 12.543L155.19 10.3852L153.033 10.4829L153.13 12.6407ZM154.781 49.0944L152.623 49.1921L152.627 49.2842L152.639 49.3755L154.781 49.0944ZM173.024 188.058L173.305 190.2L175.446 189.919L175.165 187.777L173.024 188.058ZM24.6347 207.538L22.493 207.82L22.7742 209.961L24.9158 209.68L24.6347 207.538ZM6.55379 69.808L7.15299 67.7328L3.98265 66.8174L4.41216 70.0892L6.55379 69.808ZM20.7808 73.916L20.1816 75.9912L21.0876 76.2528L21.8954 75.7662L20.7808 73.916ZM33.4645 66.2753L34.0637 64.2001L33.1577 63.9385L32.3499 64.4251L33.4645 66.2753ZM47.6915 70.3832L47.0923 72.4585L47.9983 72.7201L48.8061 72.2335L47.6915 70.3832ZM60.3752 62.7425L60.9744 60.6673L60.0684 60.4057L59.2606 60.8923L60.3752 62.7425ZM74.6022 66.8505L74.003 68.9257L74.909 69.1873L75.7168 68.7007L74.6022 66.8505ZM87.2859 59.2097L87.8851 57.1345L86.9791 56.8729L86.1713 57.3595L87.2859 59.2097ZM101.513 63.3177L100.914 65.3929L101.838 65.6598L102.655 65.1513L101.513 63.3177ZM115.631 54.5273L116.192 52.4412L115.286 52.198L114.49 52.6937L115.631 54.5273ZM128.176 57.8959L127.615 59.982L128.647 60.259L129.493 59.6073L128.176 57.8959ZM135.71 52.0943L137.028 53.8058L143.299 48.9775L135.445 49.9507L135.71 52.0943ZM127.41 53.1229L126.636 55.1394L127.14 55.3329L127.676 55.2665L127.41 53.1229ZM113.585 47.8166L114.359 45.8001L113.479 45.4621L112.632 45.8782L113.585 47.8166ZM100.296 54.35L99.5224 56.3666L100.403 56.7045L101.249 56.2884L100.296 54.35ZM86.4715 49.0447L87.2454 47.0281L86.3649 46.6902L85.5185 47.1063L86.4715 49.0447ZM73.1825 55.578L72.4085 57.5946L73.289 57.9326L74.1355 57.5164L73.1825 55.578ZM59.3576 50.2718L60.1316 48.2552L59.251 47.9173L58.4046 48.3334L59.3576 50.2718ZM46.0686 56.8051L45.2947 58.8217L46.1752 59.1596L47.0216 58.7435L46.0686 56.8051ZM32.2438 51.4999L33.0177 49.4833L32.1372 49.1454L31.2908 49.5615L32.2438 51.4999ZM18.9548 58.0332L18.1808 60.0498L19.0613 60.3877L19.9078 59.9716L18.9548 58.0332ZM5.12992 52.727L2.97213 52.8247L3.03608 54.237L4.35592 54.7435L5.12992 52.727ZM3.62127 19.4094L3.52358 17.2516L1.36578 17.3493L1.46348 19.5071L3.62127 19.4094ZM153.13 12.6407L150.973 12.7384L152.623 49.1921L154.781 49.0944L156.939 48.9967L155.288 12.543L153.13 12.6407ZM154.781 49.0944L152.639 49.3755L170.882 188.339L173.024 188.058L175.165 187.777L156.922 48.8132L154.781 49.0944ZM173.024 188.058L172.742 185.917L24.3535 205.397L24.6347 207.538L24.9158 209.68L173.305 190.2L173.024 188.058ZM24.6347 207.538L26.7763 207.257L8.69541 69.5269L6.55379 69.808L4.41216 70.0892L22.493 207.82L24.6347 207.538ZM6.55379 69.808L5.95458 71.8833L20.1816 75.9912L20.7808 73.916L21.38 71.8408L7.15299 67.7328L6.55379 69.808ZM20.7808 73.916L21.8954 75.7662L34.5791 68.1255L33.4645 66.2753L32.3499 64.4251L19.6662 72.0658L20.7808 73.916ZM33.4645 66.2753L32.8653 68.3505L47.0923 72.4585L47.6915 70.3832L48.2907 68.308L34.0637 64.2001L33.4645 66.2753ZM47.6915 70.3832L48.8061 72.2335L61.4898 64.5927L60.3752 62.7425L59.2606 60.8923L46.5769 68.533L47.6915 70.3832ZM60.3752 62.7425L59.776 64.8177L74.003 68.9257L74.6022 66.8505L75.2014 64.7752L60.9744 60.6673L60.3752 62.7425ZM74.6022 66.8505L75.7168 68.7007L88.4005 61.06L87.2859 59.2097L86.1713 57.3595L73.4876 65.0003L74.6022 66.8505ZM87.2859 59.2097L86.6867 61.285L100.914 65.3929L101.513 63.3177L102.112 61.2425L87.8851 57.1345L87.2859 59.2097ZM101.513 63.3177L102.655 65.1513L116.773 56.361L115.631 54.5273L114.49 52.6937L100.371 61.4841L101.513 63.3177ZM115.631 54.5273L115.071 56.6134L127.615 59.982L128.176 57.8959L128.736 55.8098L116.192 52.4412L115.631 54.5273ZM128.176 57.8959L129.493 59.6073L137.028 53.8058L135.71 52.0943L134.392 50.3829L126.858 56.1844L128.176 57.8959ZM135.71 52.0943L135.445 49.9507L127.145 50.9793L127.41 53.1229L127.676 55.2665L135.976 54.2379L135.71 52.0943ZM127.41 53.1229L128.184 51.1063L114.359 45.8001L113.585 47.8166L112.811 49.8332L126.636 55.1394L127.41 53.1229ZM113.585 47.8166L112.632 45.8782L99.3433 52.4116L100.296 54.35L101.249 56.2884L114.538 49.755L113.585 47.8166ZM100.296 54.35L101.07 52.3334L87.2454 47.0281L86.4715 49.0447L85.6976 51.0613L99.5224 56.3666L100.296 54.35ZM86.4715 49.0447L85.5185 47.1063L72.2295 53.6396L73.1825 55.578L74.1355 57.5164L87.4245 50.9831L86.4715 49.0447ZM73.1825 55.578L73.9565 53.5615L60.1316 48.2552L59.3576 50.2718L58.5836 52.2884L72.4085 57.5946L73.1825 55.578ZM59.3576 50.2718L58.4046 48.3334L45.1156 54.8667L46.0686 56.8051L47.0216 58.7435L60.3106 52.2102L59.3576 50.2718ZM46.0686 56.8051L46.8424 54.7885L33.0177 49.4833L32.2438 51.4999L31.4699 53.5165L45.2947 58.8217L46.0686 56.8051ZM32.2438 51.4999L31.2908 49.5615L18.0018 56.0948L18.9548 58.0332L19.9078 59.9716L33.1968 53.4383L32.2438 51.4999ZM18.9548 58.0332L19.7288 56.0166L5.90391 50.7104L5.12992 52.727L4.35592 54.7435L18.1808 60.0498L18.9548 58.0332ZM5.12992 52.727L7.2877 52.6293L5.77906 19.3117L3.62127 19.4094L1.46348 19.5071L2.97213 52.8247L5.12992 52.727ZM3.62127 19.4094L3.71896 21.5672L153.228 14.7985L153.13 12.6407L153.033 10.4829L3.52358 17.2516L3.62127 19.4094Z" fill="#D9E3FB"/>
<path d="M79.9816 189.277L60.8826 178.167L75.7705 152.572L94.8695 163.682C101.937 167.793 104.334 176.855 100.223 183.923C96.1118 190.991 87.0494 193.388 79.9816 189.277Z" fill="url(#paint0_linear_4077_661)"/>
<path d="M63.8358 177.387L81.0673 187.41C87.1039 190.921 94.8449 188.874 98.3562 182.837C101.867 176.8 99.8197 169.06 93.7831 165.549L76.5516 155.526L63.8358 177.387Z" stroke="#4273ED" stroke-opacity="0.3" stroke-width="4.32"/>
<path d="M60.8825 178.167L41.7057 167.013C34.6379 162.902 32.2411 153.839 36.3522 146.771C40.4634 139.704 49.5258 137.307 56.5937 141.418L75.7704 152.572L60.8825 178.167Z" fill="#4273ED"/>
<ellipse cx="2.59235" cy="5.19572" rx="2.59235" ry="5.19572" transform="matrix(-0.643607 0.765356 0.765356 0.643607 46.243 156.718)" fill="white" fill-opacity="0.5"/>
<path d="M151.495 171.335C146.446 181.638 131.063 179.651 114.794 171.679C98.5245 163.707 87.6117 152.599 92.6192 142.38C97.6266 132.161 113.092 133.979 129.361 141.951C145.631 149.923 156.543 161.031 151.495 171.335Z" fill="url(#paint1_linear_4077_661)"/>
<path d="M128.41 143.891C136.405 147.808 142.894 152.411 146.748 157.134C150.576 161.825 151.571 166.271 149.555 170.384C147.543 174.49 143.45 176.391 137.42 176.201C131.343 176.009 123.747 173.661 115.744 169.739C107.749 165.822 101.26 161.218 97.399 156.503C93.5616 151.817 92.5676 147.394 94.5589 143.331C96.5502 139.267 100.655 137.342 106.71 137.503C112.801 137.665 120.416 139.973 128.41 143.891Z" stroke="#4273ED" stroke-opacity="0.3" stroke-width="4.32"/>
<ellipse cx="119.048" cy="149.668" rx="22.05" ry="9.315" transform="rotate(26.1057 119.048 149.668)" fill="#4273ED" fill-opacity="0.2"/>
<ellipse cx="5.15743" cy="2.93789" rx="5.15743" ry="2.93789" transform="matrix(0.979525 0.201323 -0.221376 0.975189 105.536 138.723)" fill="white" fill-opacity="0.5"/>
<path d="M51.5358 91.8457C45.5391 94.5301 40.957 98.6263 38.3521 102.977C35.7431 107.335 35.2051 111.755 36.8266 115.378L40.4024 123.366C42.0241 126.989 45.6793 129.532 50.6675 130.489C55.6476 131.444 61.755 130.756 67.7517 128.071C73.7486 125.387 78.3305 121.291 80.9354 116.94C83.5445 112.582 84.0826 108.162 82.4609 104.539L78.8851 96.551C77.2634 92.9282 73.6084 90.3851 68.6201 89.428C63.6399 88.4725 57.5326 89.1613 51.5358 91.8457Z" fill="url(#paint2_linear_4077_661)" stroke="#BBCDF8" stroke-width="4.32"/>
<path d="M37.5402 116.408C39.4506 119.021 42.6303 120.855 46.7015 121.632C51.6794 122.582 57.7855 121.891 63.783 119.206C69.7807 116.521 74.3648 112.428 76.9721 108.082C79.1042 104.528 79.8539 100.935 79.178 97.7698L37.5402 116.408ZM51.1704 91.03C45.1728 93.7147 40.5895 97.808 37.9822 102.154C35.8501 105.708 35.0992 109.3 35.775 112.465L77.4128 93.8266C75.5024 91.2142 72.3235 89.3807 68.2528 88.6035C63.2748 87.6531 57.168 88.3452 51.1704 91.03Z" fill="#D9E3FB" stroke="#BBCDF8" stroke-width="4.32"/>
<path d="M141.037 119.165C139.164 123.427 136.565 126.834 133.819 129.024C130.62 131.574 127.538 132.265 125.135 131.392C122.733 130.52 120.812 128.013 119.994 124.005C119.293 120.563 119.486 116.282 120.783 111.812L141.037 119.165ZM138.159 95.5233C140.561 96.3956 142.483 98.9023 143.3 102.91C144.002 106.351 143.809 110.634 142.512 115.104L122.258 107.751C124.131 103.489 126.73 100.08 129.476 97.8907C132.674 95.3409 135.756 94.6511 138.159 95.5233Z" fill="#ECF1FD" stroke="#BBCDF8" stroke-width="4.32"/>
<path d="M91.1972 94.1159L107.051 92.0346C108.234 91.8794 109.319 92.7123 109.474 93.8951L111.274 107.607C111.429 108.79 110.596 109.875 109.414 110.03L93.5596 112.112L95.6409 127.965C95.7962 129.148 94.9632 130.233 93.7804 130.388L80.0681 132.188C78.8853 132.344 77.8006 131.511 77.6453 130.328L75.5641 114.474L59.7101 116.555C58.5273 116.71 57.4426 115.878 57.2873 114.695L55.4872 100.982C55.3319 99.7996 56.1649 98.7148 57.3477 98.5596L73.2017 96.4783L71.1204 80.6243C70.9651 79.4415 71.7981 78.3568 72.9809 78.2015L86.6932 76.4014C87.876 76.2461 88.9607 77.0791 89.1159 78.2619L91.1972 94.1159Z" fill="#4273ED"/>
<defs>
<linearGradient id="paint0_linear_4077_661" x1="91.7187" y1="161.849" x2="76.8308" y2="187.444" gradientUnits="userSpaceOnUse">
<stop offset="0.519231" stop-color="#D9E3FB"/>
<stop offset="1" stop-color="#BBCDF8"/>
</linearGradient>
<linearGradient id="paint1_linear_4077_661" x1="129.361" y1="141.951" x2="114.794" y2="171.679" gradientUnits="userSpaceOnUse">
<stop stop-color="#688FF0"/>
<stop offset="1" stop-color="#ECF1FD"/>
</linearGradient>
<linearGradient id="paint2_linear_4077_661" x1="37.2823" y1="121.682" x2="84.1545" y2="103.899" gradientUnits="userSpaceOnUse">
<stop offset="0.548077" stop-color="#D9E3FB"/>
<stop offset="1" stop-color="#BBCDF8"/>
</linearGradient>
</defs>
</svg>
