<svg width="251" height="192" viewBox="0 0 251 192" fill="none" xmlns="http://www.w3.org/2000/svg">
<path d="M229.411 28.5833C239.7 28.5835 248.04 36.9244 248.041 47.2132C248.041 57.5022 239.7 65.8429 229.411 65.8431H203.13L191.468 81.1702C190.425 82.5418 188.236 81.8039 188.236 80.0804V65.8431H185.76C175.471 65.843 167.13 57.5022 167.13 47.2132C167.131 36.9243 175.471 28.5834 185.76 28.5833H229.411Z" fill="#ECF0FD"/>
<path d="M229.411 28.5833L229.411 26.4233H229.411V28.5833ZM248.041 47.2132L250.201 47.2132L250.201 47.2132L248.041 47.2132ZM229.411 65.8431L229.411 68.0031L229.411 68.0031L229.411 65.8431ZM203.13 65.8431V63.6831H202.06L201.412 64.5351L203.13 65.8431ZM191.468 81.1702L193.187 82.4782L193.187 82.4782L191.468 81.1702ZM188.236 65.8431H190.396V63.6831H188.236V65.8431ZM185.76 65.8431L185.76 68.0031H185.76V65.8431ZM167.13 47.2132L164.97 47.2132L164.97 47.2132L167.13 47.2132ZM185.76 28.5833L185.76 26.4233L185.76 26.4233L185.76 28.5833ZM229.411 28.5833L229.411 30.7433C238.507 30.7434 245.88 38.1173 245.881 47.2132L248.041 47.2132L250.201 47.2132C250.2 35.7314 240.893 26.4235 229.411 26.4233L229.411 28.5833ZM248.041 47.2132L245.881 47.2132C245.881 56.3092 238.507 63.6829 229.411 63.6831L229.411 65.8431L229.411 68.0031C240.893 68.0029 250.201 58.6951 250.201 47.2132L248.041 47.2132ZM229.411 65.8431V63.6831H203.13V65.8431V68.0031H229.411V65.8431ZM203.13 65.8431L201.412 64.5351L189.749 79.8623L191.468 81.1702L193.187 82.4782L204.849 67.151L203.13 65.8431ZM191.468 81.1702L189.749 79.8623C189.777 79.8258 189.849 79.7662 189.95 79.7382C190.037 79.7144 190.105 79.7238 190.151 79.7392C190.196 79.7545 190.257 79.7885 190.311 79.8599C190.375 79.9439 190.396 80.0345 190.396 80.0804H188.236H186.076C186.076 83.8724 190.892 85.4954 193.187 82.4782L191.468 81.1702ZM188.236 80.0804H190.396V65.8431H188.236H186.076V80.0804H188.236ZM188.236 65.8431V63.6831H185.76V65.8431V68.0031H188.236V65.8431ZM185.76 65.8431L185.76 63.6831C176.664 63.683 169.29 56.3093 169.29 47.2132L167.13 47.2132L164.97 47.2132C164.97 58.6952 174.278 68.003 185.76 68.0031L185.76 65.8431ZM167.13 47.2132L169.29 47.2132C169.291 38.1172 176.664 30.7434 185.76 30.7433L185.76 28.5833L185.76 26.4233C174.279 26.4234 164.971 35.7314 164.97 47.2132L167.13 47.2132ZM185.76 28.5833V30.7433H229.411V28.5833V26.4233H185.76V28.5833Z" fill="#C6D4F9"/>
<circle cx="188.82" cy="47.5928" r="4.32" fill="#B4C7F8"/>
<circle cx="207.54" cy="47.5928" r="4.32" fill="#B4C7F8"/>
<circle cx="226.26" cy="47.5928" r="4.32" fill="#B4C7F8"/>
<rect x="23.4727" y="8.8501" width="133.11" height="169.11" transform="rotate(3.93964 23.4727 8.8501)" fill="#C6D5F9"/>
<rect x="18.821" y="0.0532837" width="133.11" height="169.11" transform="rotate(5.97777 18.821 0.0532837)" fill="#ECF0FD"/>
<rect x="28.5937" y="13.0215" width="110.97" height="145.35" transform="rotate(5.97777 28.5937 13.0215)" stroke="#C6D5F9" stroke-width="4.32"/>
<rect x="26.277" y="53.7265" width="107.28" height="22.23" transform="rotate(5.97777 26.277 53.7265)" fill="#C6D5F9" stroke="#C6D5F9" stroke-width="0.09"/>
<rect x="91.3118" y="74.7438" width="90" height="4.23" transform="rotate(95.9778 91.3118 74.7438)" fill="#C6D5F9" stroke="#C6D5F9" stroke-width="0.09"/>
<rect x="21.3038" y="90.8506" width="109.44" height="4.23" transform="rotate(5.97777 21.3038 90.8506)" fill="#C6D5F9" stroke="#C6D5F9" stroke-width="0.09"/>
<rect x="19.6071" y="107.052" width="109.44" height="4.23" transform="rotate(5.97777 19.6071 107.052)" fill="#C6D5F9" stroke="#C6D5F9" stroke-width="0.09"/>
<rect x="17.9106" y="123.253" width="109.44" height="4.23" transform="rotate(5.97777 17.9106 123.253)" fill="#C6D5F9" stroke="#C6D5F9" stroke-width="0.09"/>
<rect x="16.2142" y="139.455" width="109.44" height="4.23" transform="rotate(5.97777 16.2142 139.455)" fill="#C6D5F9" stroke="#C6D5F9" stroke-width="0.09"/>
<path d="M135.864 160.445L111.934 179.838L133.596 182.106L135.864 160.445Z" fill="#C6D5F9"/>
<path d="M111.934 179.838L135.864 160.445L117.425 158.514C115.645 158.327 114.051 159.619 113.865 161.399L111.934 179.838Z" fill="#B4C7F8"/>
<path d="M85.4238 36.3466L92.3158 37.0682L91.594 43.9612L84.702 43.2395L83.9804 50.1316L77.0874 49.4098L77.8091 42.5178L70.9171 41.7961L71.6388 34.9031L78.5308 35.6248L79.2525 28.7328L86.1455 29.4546L85.4238 36.3466Z" fill="#B4C7F8"/>
<path d="M183.82 102.229C196.283 93.253 213.663 96.08 222.639 108.543C230.717 119.759 229.234 134.955 219.773 144.426L241.541 174.651C242.557 176.062 242.237 178.032 240.825 179.048L238.634 180.625C237.223 181.642 235.254 181.322 234.237 179.911L212.472 149.69C200.486 155.678 185.589 152.271 177.505 141.047C168.53 128.584 171.357 111.205 183.82 102.229ZM216.066 113.277C209.704 104.444 197.386 102.44 188.553 108.801C179.72 115.163 177.717 127.481 184.079 136.314C190.44 145.147 202.757 147.151 211.59 140.789C220.424 134.428 222.428 122.11 216.066 113.277Z" fill="#C6D4F9"/>
</svg>
