<svg width="246" height="271" viewBox="0 0 246 271" fill="none" xmlns="http://www.w3.org/2000/svg">
<mask id="path-1-outside-1_4077_624" maskUnits="userSpaceOnUse" x="64.9538" y="127.225" width="108.283" height="147.18" fill="black">
<rect fill="white" x="64.9538" y="127.225" width="108.283" height="147.18"/>
<path d="M124.911 136.578C148.522 138.741 167.317 144.267 166.891 148.92C166.877 149.064 166.844 149.206 166.795 149.345L142.101 259.614C142.1 259.645 142.1 259.677 142.098 259.709C141.676 264.313 128.693 266.886 113.101 265.458C97.5097 264.029 85.2121 259.139 85.6339 254.535C85.6367 254.505 85.6413 254.475 85.6452 254.444L81.4047 141.528C81.3804 141.379 81.375 141.232 81.3884 141.085C81.815 136.432 101.301 134.414 124.911 136.578Z"/>
</mask>
<path d="M124.911 136.578C148.522 138.741 167.317 144.267 166.891 148.92C166.877 149.064 166.844 149.206 166.795 149.345L142.101 259.614C142.1 259.645 142.1 259.677 142.098 259.709C141.676 264.313 128.693 266.886 113.101 265.458C97.5097 264.029 85.2121 259.139 85.6339 254.535C85.6367 254.505 85.6413 254.475 85.6452 254.444L81.4047 141.528C81.3804 141.379 81.375 141.232 81.3884 141.085C81.815 136.432 101.301 134.414 124.911 136.578Z" fill="#ECF1FD"/>
<path d="M124.911 136.578L125.305 132.276L125.305 132.276L124.911 136.578ZM166.891 148.92L171.193 149.314L171.193 149.314L166.891 148.92ZM166.795 149.345L162.724 147.898L162.636 148.145L162.579 148.401L166.795 149.345ZM142.101 259.614L137.886 258.67L137.807 259.022L137.788 259.383L142.101 259.614ZM142.098 259.709L146.4 260.104L146.4 260.103L142.098 259.709ZM113.101 265.458L112.707 269.76L112.707 269.76L113.101 265.458ZM85.6339 254.535L81.3319 254.141L81.3319 254.141L85.6339 254.535ZM85.6452 254.444L89.9299 254.995L89.9756 254.64L89.9621 254.282L85.6452 254.444ZM81.4047 141.528L85.7217 141.366L85.7116 141.095L85.6678 140.828L81.4047 141.528ZM81.3884 141.085L77.0865 140.69L77.0865 140.691L81.3884 141.085ZM124.911 136.578L124.517 140.88C136.13 141.944 146.441 143.827 153.696 145.96C157.358 147.036 160.024 148.115 161.657 149.066C162.485 149.548 162.827 149.872 162.91 149.968C162.989 150.059 162.496 149.532 162.589 148.526L166.891 148.92L171.193 149.314C171.391 147.144 170.405 145.426 169.445 144.317C168.49 143.212 167.249 142.323 166.005 141.599C163.496 140.138 160.068 138.827 156.133 137.671C148.194 135.337 137.302 133.375 125.305 132.276L124.911 136.578ZM166.891 148.92L162.589 148.525C162.612 148.272 162.667 148.059 162.724 147.898L166.795 149.345L170.865 150.793C171.022 150.352 171.143 149.857 171.193 149.314L166.891 148.92ZM166.795 149.345L162.579 148.401L137.886 258.67L142.101 259.614L146.317 260.558L171.01 150.289L166.795 149.345ZM142.101 259.614L137.788 259.383C137.784 259.445 137.783 259.495 137.782 259.521C137.782 259.535 137.781 259.546 137.781 259.551C137.781 259.559 137.781 259.557 137.781 259.556C137.781 259.553 137.782 259.525 137.784 259.487C137.785 259.448 137.789 259.389 137.796 259.316L142.098 259.709L146.4 260.103C146.408 260.014 146.412 259.939 146.415 259.884C146.417 259.83 146.418 259.786 146.419 259.767C146.419 259.758 146.419 259.748 146.419 259.748C146.419 259.745 146.419 259.748 146.419 259.754C146.419 259.765 146.418 259.798 146.415 259.844L142.101 259.614ZM142.098 259.709L137.796 259.315C137.884 258.348 138.527 258.379 137.443 258.997C136.49 259.54 134.846 260.133 132.448 260.608C127.71 261.547 120.999 261.843 113.496 261.156L113.101 265.458L112.707 269.76C120.796 270.501 128.372 270.224 134.128 269.083C136.978 268.518 139.633 267.693 141.721 266.504C143.676 265.389 146.1 263.372 146.4 260.104L142.098 259.709ZM113.101 265.458L113.496 261.156C105.993 260.468 99.4472 258.957 94.9588 257.173C92.6873 256.269 91.1788 255.388 90.3408 254.681C89.3869 253.876 90.0244 253.963 89.9359 254.93L85.6339 254.535L81.3319 254.141C81.0324 257.409 83.049 259.834 84.7695 261.285C86.6059 262.834 89.0672 264.128 91.7663 265.201C97.2192 267.369 104.618 269.018 112.707 269.76L113.101 265.458ZM85.6339 254.535L89.9358 254.93C89.9327 254.964 89.9296 254.992 89.9273 255.012C89.9251 255.031 89.9232 255.045 89.9226 255.05C89.9222 255.053 89.9218 255.056 89.9234 255.045C89.9244 255.037 89.927 255.017 89.9299 254.995L85.6452 254.444L81.3605 253.893C81.3614 253.886 81.362 253.882 81.3609 253.889C81.3604 253.893 81.358 253.911 81.3556 253.929C81.3507 253.967 81.3408 254.045 81.3319 254.141L85.6339 254.535ZM85.6452 254.444L89.9621 254.282L85.7217 141.366L81.4047 141.528L77.0878 141.69L81.3282 254.606L85.6452 254.444ZM81.4047 141.528L85.6678 140.828C85.7016 141.035 85.711 141.254 85.6904 141.479L81.3884 141.085L77.0865 140.691C77.039 141.209 77.0592 141.724 77.1417 142.227L81.4047 141.528ZM81.3884 141.085L85.6904 141.479C85.5981 142.486 85.0182 142.915 85.1128 142.839C85.2118 142.759 85.6065 142.503 86.5081 142.179C88.2866 141.541 91.1039 140.965 94.9008 140.572C102.422 139.793 112.904 139.815 124.517 140.88L124.911 136.578L125.305 132.276C113.308 131.176 102.241 131.126 94.0108 131.978C89.9317 132.401 86.3219 133.067 83.5891 134.048C82.235 134.534 80.8529 135.181 79.7125 136.094C78.5675 137.011 77.2854 138.521 77.0865 140.69L81.3884 141.085Z" fill="#4273ED" fill-opacity="0.2" mask="url(#path-1-outside-1_4077_624)"/>
<path d="M120.137 188.684C137.411 190.267 151.076 195.253 150.658 199.822C150.642 200 150.6 200.175 150.542 200.347L138.231 256.656C138.23 256.694 138.23 256.732 138.227 256.77C137.885 260.506 126.806 262.545 113.481 261.324C100.156 260.103 89.6307 256.084 89.973 252.348C89.9765 252.311 89.9826 252.273 89.9882 252.236L88.1171 194.627C88.0911 194.447 88.0833 194.268 88.0997 194.089C88.5187 189.521 102.862 187.101 120.137 188.684Z" fill="url(#paint0_linear_4077_624)"/>
<ellipse cx="124.02" cy="146.302" rx="35.28" ry="3.825" transform="rotate(5.23552 124.02 146.302)" fill="#4273ED" fill-opacity="0.2"/>
<ellipse cx="119.379" cy="196.951" rx="31.41" ry="8.325" transform="rotate(5.23552 119.379 196.951)" fill="#1C56EA"/>
<path d="M145.234 180.103L132.306 244.261" stroke="white" stroke-opacity="0.5" stroke-width="6.48"/>
<path d="M109.055 15.7034C102.657 14.2097 96.5297 14.6961 91.8225 16.582C87.1078 18.4712 84.0036 21.6637 83.1011 25.5288L81.1113 34.0515C80.2089 37.9167 81.5786 42.1537 84.9695 45.9352C88.3549 49.7106 93.6329 52.8597 100.031 54.3535C106.429 55.8472 112.556 55.3608 117.263 53.4748C121.978 51.5857 125.082 48.3933 125.985 44.5281L127.974 36.0053C128.877 32.1401 127.507 27.9032 124.116 24.1216C120.731 20.3462 115.453 17.1972 109.055 15.7034Z" fill="url(#paint1_linear_4077_624)" stroke="#BBCDF8" stroke-width="4.32"/>
<path d="M83.0454 26.781C82.9843 30.017 84.4051 33.4015 87.1749 36.4847C90.5617 40.2546 95.8405 43.4006 102.239 44.8946C108.638 46.3886 114.765 45.9056 119.471 44.025C123.32 42.487 126.092 40.0812 127.47 37.1528L83.0454 26.781ZM109.258 14.8329C102.859 13.339 96.7329 13.8222 92.0268 15.7028C88.1783 17.2407 85.4059 19.6455 84.0276 22.5738L128.452 32.9456C128.513 29.7098 127.093 26.3259 124.323 23.243C120.936 19.473 115.657 16.3269 109.258 14.8329Z" fill="#D9E3FB" stroke="#BBCDF8" stroke-width="4.32"/>
<path d="M41.6682 98.7722L26.0863 83.1072L47.0793 62.2255L62.6612 77.8906C68.4275 83.6876 68.4026 93.0616 62.6055 98.8279C56.8085 104.594 47.4345 104.569 41.6682 98.7722Z" fill="url(#paint2_linear_4077_624)"/>
<path d="M29.1409 83.1156L43.1992 97.2489C48.1243 102.2 56.1313 102.221 61.0826 97.2965C66.0337 92.3714 66.0545 84.365 61.1295 79.4138L47.0712 65.2804L29.1409 83.1156Z" stroke="#4273ED" stroke-opacity="0.3" stroke-width="4.32"/>
<path d="M26.0862 83.1071L10.4408 67.3782C4.67449 61.5812 4.69943 52.2072 10.4965 46.4409C16.2936 40.6746 25.6675 40.6995 31.4339 46.4966L47.0792 62.2254L26.0862 83.1071Z" fill="#4273ED"/>
<ellipse cx="2.59235" cy="5.19572" rx="2.59235" ry="5.19572" transform="matrix(-0.819435 0.573172 0.573172 0.819435 17.483 58.605)" fill="white" fill-opacity="0.5"/>
<path d="M239.081 56.4432C243.365 67.0876 231.6 77.1949 214.792 83.9586C197.984 90.7223 182.428 91.4067 178.179 80.8495C173.931 70.2923 185.625 60.0105 202.433 53.2468C219.241 46.4831 234.798 45.7987 239.081 56.4432Z" fill="url(#paint3_linear_4077_624)"/>
<path d="M203.239 55.2509C211.499 51.9271 219.26 50.1816 225.35 50.4746C231.397 50.7656 235.367 53 237.077 57.2493C238.784 61.4909 237.46 65.8056 233.286 70.1618C229.079 74.5513 222.253 78.6279 213.986 81.955C205.726 85.2786 197.963 87.0244 191.876 86.7414C185.826 86.4602 181.873 84.2414 180.183 80.0432C178.494 75.8448 179.808 71.5059 183.977 67.112C188.172 62.6915 194.98 58.5745 203.239 55.2509Z" stroke="#4273ED" stroke-opacity="0.3" stroke-width="4.32"/>
<ellipse cx="201.273" cy="66.0754" rx="22.05" ry="9.315" transform="rotate(-21.9206 201.273 66.0754)" fill="#4273ED" fill-opacity="0.2"/>
<ellipse cx="5.15743" cy="2.93789" rx="5.15743" ry="2.93789" transform="matrix(0.80477 -0.593586 0.576951 0.816779 184.099 68.8007)" fill="white" fill-opacity="0.5"/>
<circle cx="15.93" cy="154.93" r="15.93" fill="#ECF0FD"/>
<circle cx="221.57" cy="128.57" r="6.57" fill="#ECF0FD"/>
<circle cx="170.57" cy="6.57" r="6.57" fill="#ECF0FD"/>
<path d="M151.44 95.445C151.44 104.069 144.449 111.06 135.825 111.06C127.201 111.06 120.21 104.069 120.21 95.445C120.21 86.821 127.201 79.83 135.825 79.83C144.449 79.83 151.44 86.821 151.44 95.445Z" fill="#FF6565"/>
<path d="M135.825 81.9901C143.256 81.9902 149.28 88.0143 149.28 95.4452C149.28 102.876 143.256 108.9 135.825 108.9C128.394 108.9 122.37 102.876 122.37 95.4452C122.37 88.0142 128.394 81.9901 135.825 81.9901Z" stroke="black" stroke-opacity="0.2" stroke-width="4.32"/>
<defs>
<linearGradient id="paint0_linear_4077_624" x1="85.6343" y1="220.995" x2="148.227" y2="224.12" gradientUnits="userSpaceOnUse">
<stop stop-color="#4273ED"/>
<stop offset="1" stop-color="#1C56EA"/>
</linearGradient>
<linearGradient id="paint1_linear_4077_624" x1="79.6473" y1="30.8224" x2="127.72" y2="45.0437" gradientUnits="userSpaceOnUse">
<stop offset="0.548077" stop-color="#D9E3FB"/>
<stop offset="1" stop-color="#BBCDF8"/>
</linearGradient>
<linearGradient id="paint2_linear_4077_624" x1="60.0907" y1="75.3063" x2="39.0976" y2="96.188" gradientUnits="userSpaceOnUse">
<stop offset="0.519231" stop-color="#D9E3FB"/>
<stop offset="1" stop-color="#BBCDF8"/>
</linearGradient>
<linearGradient id="paint3_linear_4077_624" x1="202.433" y1="53.2468" x2="214.792" y2="83.9586" gradientUnits="userSpaceOnUse">
<stop stop-color="#688FF0"/>
<stop offset="1" stop-color="#ECF1FD"/>
</linearGradient>
</defs>
</svg>
