<svg width="246" height="271" viewBox="0 0 246 271" fill="none" xmlns="http://www.w3.org/2000/svg">
<mask id="path-1-outside-1_4082_1152" maskUnits="userSpaceOnUse" x="64.9535" y="127.225" width="108.283" height="147.18" fill="black">
<rect fill="white" x="64.9535" y="127.225" width="108.283" height="147.18"/>
<path d="M124.911 136.577C148.521 138.741 167.316 144.267 166.89 148.92C166.877 149.064 166.844 149.206 166.794 149.345L142.101 259.614C142.099 259.645 142.1 259.677 142.097 259.709C141.675 264.313 128.693 266.886 113.101 265.457C97.5094 264.029 85.2118 259.139 85.6336 254.535C85.6364 254.505 85.641 254.475 85.6449 254.444L81.4045 141.528C81.3802 141.379 81.3747 141.232 81.3882 141.085C81.8148 136.432 101.3 134.414 124.911 136.577Z"/>
</mask>
<path d="M124.911 136.577C148.521 138.741 167.316 144.267 166.89 148.92C166.877 149.064 166.844 149.206 166.794 149.345L142.101 259.614C142.099 259.645 142.1 259.677 142.097 259.709C141.675 264.313 128.693 266.886 113.101 265.457C97.5094 264.029 85.2118 259.139 85.6336 254.535C85.6364 254.505 85.641 254.475 85.6449 254.444L81.4045 141.528C81.3802 141.379 81.3747 141.232 81.3882 141.085C81.8148 136.432 101.3 134.414 124.911 136.577Z" fill="#ECF1FD"/>
<path d="M124.911 136.577L125.305 132.276L125.305 132.276L124.911 136.577ZM166.89 148.92L171.192 149.314L171.192 149.314L166.89 148.92ZM166.794 149.345L162.724 147.898L162.636 148.145L162.579 148.401L166.794 149.345ZM142.101 259.614L137.886 258.669L137.807 259.022L137.787 259.383L142.101 259.614ZM142.097 259.709L146.399 260.103L146.399 260.103L142.097 259.709ZM113.101 265.457L112.707 269.759L112.707 269.759L113.101 265.457ZM85.6336 254.535L81.3317 254.141L81.3316 254.141L85.6336 254.535ZM85.6449 254.444L89.9296 254.995L89.9753 254.64L89.9619 254.282L85.6449 254.444ZM81.4045 141.528L85.7214 141.365L85.7113 141.095L85.6675 140.828L81.4045 141.528ZM81.3882 141.085L77.0862 140.69L77.0862 140.691L81.3882 141.085ZM124.911 136.577L124.517 140.879C136.13 141.944 146.441 143.827 153.696 145.96C157.358 147.036 160.024 148.114 161.657 149.066C162.485 149.548 162.826 149.871 162.909 149.967C162.989 150.059 162.496 149.532 162.588 148.526L166.89 148.92L171.192 149.314C171.391 147.144 170.405 145.426 169.445 144.317C168.49 143.212 167.248 142.323 166.005 141.599C163.496 140.138 160.067 138.827 156.133 137.67C148.194 135.336 137.302 133.375 125.305 132.276L124.911 136.577ZM166.89 148.92L162.588 148.525C162.612 148.272 162.667 148.059 162.724 147.898L166.794 149.345L170.865 150.793C171.021 150.352 171.143 149.857 171.192 149.314L166.89 148.92ZM166.794 149.345L162.579 148.401L137.886 258.669L142.101 259.614L146.317 260.558L171.01 150.289L166.794 149.345ZM142.101 259.614L137.787 259.383C137.784 259.445 137.783 259.494 137.782 259.521C137.781 259.535 137.781 259.546 137.781 259.551C137.781 259.559 137.781 259.557 137.781 259.556C137.781 259.552 137.782 259.525 137.783 259.487C137.785 259.448 137.789 259.389 137.795 259.316L142.097 259.709L146.399 260.103C146.407 260.014 146.412 259.939 146.414 259.884C146.417 259.83 146.418 259.786 146.418 259.767C146.419 259.758 146.419 259.748 146.419 259.747C146.419 259.744 146.419 259.748 146.419 259.754C146.418 259.764 146.417 259.798 146.415 259.844L142.101 259.614ZM142.097 259.709L137.795 259.315C137.884 258.348 138.527 258.379 137.442 258.997C136.49 259.54 134.846 260.132 132.448 260.608C127.71 261.547 120.998 261.843 113.495 261.155L113.101 265.457L112.707 269.759C120.796 270.501 128.372 270.224 134.128 269.083C136.977 268.518 139.633 267.693 141.72 266.504C143.676 265.389 146.1 263.372 146.399 260.103L142.097 259.709ZM113.101 265.457L113.495 261.155C105.993 260.468 99.4469 258.957 94.9585 257.173C92.6871 256.269 91.1786 255.388 90.3405 254.681C89.3867 253.876 90.0242 253.963 89.9356 254.93L85.6336 254.535L81.3316 254.141C81.0322 257.409 83.0487 259.833 84.7693 261.285C86.6056 262.834 89.0669 264.128 91.7661 265.201C97.219 267.369 104.618 269.018 112.707 269.759L113.101 265.457ZM85.6336 254.535L89.9356 254.93C89.9324 254.964 89.9293 254.992 89.927 255.012C89.9248 255.031 89.923 255.045 89.9224 255.05C89.9219 255.053 89.9216 255.056 89.9231 255.045C89.9242 255.037 89.9268 255.017 89.9296 254.995L85.6449 254.444L81.3602 253.893C81.3611 253.886 81.3617 253.882 81.3607 253.889C81.3602 253.893 81.3578 253.911 81.3554 253.929C81.3505 253.967 81.3405 254.045 81.3317 254.141L85.6336 254.535ZM85.6449 254.444L89.9619 254.282L85.7214 141.365L81.4045 141.528L77.0875 141.69L81.328 254.606L85.6449 254.444ZM81.4045 141.528L85.6675 140.828C85.7014 141.035 85.7107 141.254 85.6902 141.479L81.3882 141.085L77.0862 140.691C77.0387 141.209 77.0589 141.724 77.1415 142.227L81.4045 141.528ZM81.3882 141.085L85.6901 141.479C85.5978 142.486 85.018 142.914 85.1125 142.839C85.2116 142.759 85.6062 142.503 86.5078 142.179C88.2864 141.541 91.1036 140.965 94.9006 140.572C102.422 139.793 112.903 139.815 124.517 140.879L124.911 136.577L125.305 132.276C113.308 131.176 102.241 131.126 94.0105 131.978C89.9314 132.401 86.3217 133.066 83.5888 134.047C82.2348 134.533 80.8527 135.181 79.7122 136.094C78.5673 137.011 77.2852 138.52 77.0862 140.69L81.3882 141.085Z" fill="#4273ED" fill-opacity="0.2" mask="url(#path-1-outside-1_4082_1152)"/>
<path d="M120.137 188.684C137.411 190.266 151.076 195.253 150.658 199.822C150.641 200 150.6 200.175 150.542 200.347L138.231 256.656C138.23 256.694 138.23 256.732 138.227 256.77C137.884 260.505 126.805 262.545 113.48 261.324C100.155 260.103 89.6305 256.084 89.9728 252.348C89.9762 252.31 89.9824 252.273 89.988 252.236L88.1169 194.626C88.0909 194.447 88.0831 194.268 88.0994 194.089C88.5184 189.521 102.862 187.101 120.137 188.684Z" fill="url(#paint0_linear_4082_1152)"/>
<ellipse cx="124.02" cy="146.302" rx="35.28" ry="3.825" transform="rotate(5.23552 124.02 146.302)" fill="#4273ED" fill-opacity="0.2"/>
<ellipse cx="119.379" cy="196.951" rx="31.41" ry="8.325" transform="rotate(5.23552 119.379 196.951)" fill="#1C56EA"/>
<path d="M145.234 180.103L132.306 244.261" stroke="white" stroke-opacity="0.5" stroke-width="6.48"/>
<path d="M109.055 15.7033C102.656 14.2096 96.5297 14.6959 91.8225 16.5819C87.1077 18.471 84.0035 21.6636 83.101 25.5287L81.1112 34.0514C80.2088 37.9166 81.5786 42.1535 84.9694 45.9351C88.3548 49.7105 93.6329 52.8595 100.031 54.3533C106.429 55.8471 112.556 55.3607 117.263 53.4747C121.978 51.5856 125.082 48.3932 125.985 44.528L127.974 36.0052C128.877 32.14 127.507 27.9031 124.116 24.1215C120.731 20.3461 115.453 17.1971 109.055 15.7033Z" fill="url(#paint1_linear_4082_1152)" stroke="#BBCDF8" stroke-width="4.32"/>
<path d="M81.2086 24.134C78.9993 33.597 88.1953 43.8333 101.748 46.9976C115.301 50.1618 128.079 45.0557 130.289 35.5927C132.498 26.1297 123.302 15.8934 109.749 12.7291C96.1959 9.5649 83.4179 14.671 81.2086 24.134Z" fill="#D9E3FB"/>
<path d="M109.114 12.5869C95.7992 9.72571 83.3833 14.8187 81.2083 24.1336C78.999 33.5966 88.1951 43.8337 101.748 46.998L102.73 42.7908C96.7089 41.3849 91.8381 38.443 88.7814 35.0405C86.4303 32.4233 85.2988 29.7381 85.2106 27.2863L125.304 36.647C124.14 38.8062 121.936 40.7128 118.669 42.0183C114.422 43.7156 108.752 44.1966 102.73 42.7908L101.748 46.998L102.383 47.1401C115.698 50.0015 128.114 44.9076 130.289 35.5924C132.498 26.1296 123.302 15.8933 109.749 12.7291L109.114 12.5869ZM108.767 16.9363C114.788 18.3421 119.659 21.2832 122.716 24.6856C125.067 27.3026 126.198 29.9881 126.287 32.4398L86.1938 23.0794C87.3586 20.9204 89.5614 19.0131 92.8281 17.7078C97.0754 16.0105 102.745 15.5305 108.767 16.9363Z" fill="#BBCDF8"/>
<path d="M41.668 98.7723L26.086 83.1072L47.0791 62.2256L62.661 77.8906C68.4273 83.6877 68.4024 93.0617 62.6053 98.828C56.8082 104.594 47.4343 104.569 41.668 98.7723Z" fill="url(#paint2_linear_4082_1152)"/>
<path d="M29.1407 83.1156L43.199 97.2489C48.1241 102.2 56.1311 102.222 61.0824 97.2965C66.0335 92.3715 66.0542 84.365 61.1293 79.4138L47.071 65.2805L29.1407 83.1156Z" stroke="#4273ED" stroke-opacity="0.3" stroke-width="4.32"/>
<path d="M26.0863 83.1075L10.4409 67.3787C4.67463 61.5816 4.69957 52.2076 10.4966 46.4413C16.2937 40.675 25.6677 40.6999 31.434 46.497L47.0794 62.2259L26.0863 83.1075Z" fill="#4273ED"/>
<ellipse cx="2.59235" cy="5.19572" rx="2.59235" ry="5.19572" transform="matrix(-0.819435 0.573172 0.573172 0.819435 17.4834 58.605)" fill="white" fill-opacity="0.5"/>
<path d="M239.081 56.4432C243.365 67.0877 231.6 77.195 214.792 83.9587C197.984 90.7224 182.428 91.4067 178.179 80.8496C173.931 70.2924 185.625 60.0106 202.433 53.2469C219.241 46.4832 234.798 45.7988 239.081 56.4432Z" fill="url(#paint3_linear_4082_1152)"/>
<path d="M203.239 55.251C211.499 51.9272 219.26 50.1817 225.35 50.4746C231.397 50.7656 235.367 53.0001 237.077 57.2494C238.784 61.491 237.46 65.8056 233.286 70.1618C229.079 74.5513 222.253 78.628 213.986 81.955C205.726 85.2786 197.963 87.0244 191.876 86.7415C185.826 86.4602 181.873 84.2415 180.183 80.0432C178.494 75.8449 179.808 71.5059 183.977 67.1121C188.172 62.6915 194.98 58.5746 203.239 55.251Z" stroke="#4273ED" stroke-opacity="0.3" stroke-width="4.32"/>
<ellipse cx="201.273" cy="66.0754" rx="22.05" ry="9.315" transform="rotate(-21.9206 201.273 66.0754)" fill="#4273ED" fill-opacity="0.2"/>
<ellipse cx="5.15743" cy="2.93789" rx="5.15743" ry="2.93789" transform="matrix(0.80477 -0.593586 0.576951 0.816779 184.1 68.8008)" fill="white" fill-opacity="0.5"/>
<circle cx="15.93" cy="154.93" r="15.93" fill="#ECF0FD"/>
<circle cx="221.57" cy="128.57" r="6.57" fill="#ECF0FD"/>
<circle cx="170.57" cy="6.57" r="6.57" fill="#ECF0FD"/>
<path d="M151.44 95.4451C151.44 104.069 144.449 111.06 135.825 111.06C127.201 111.06 120.21 104.069 120.21 95.4451C120.21 86.8212 127.201 79.8301 135.825 79.8301C144.449 79.8301 151.44 86.8212 151.44 95.4451Z" fill="#FF6565"/>
<path d="M135.825 81.9902C143.256 81.9904 149.28 88.0144 149.28 95.4453C149.28 102.876 143.256 108.9 135.825 108.9C128.394 108.9 122.37 102.876 122.37 95.4453C122.37 88.0143 128.394 81.9902 135.825 81.9902Z" stroke="black" stroke-opacity="0.2" stroke-width="4.32"/>
<defs>
<linearGradient id="paint0_linear_4082_1152" x1="85.6341" y1="220.994" x2="148.227" y2="224.12" gradientUnits="userSpaceOnUse">
<stop stop-color="#4273ED"/>
<stop offset="1" stop-color="#1C56EA"/>
</linearGradient>
<linearGradient id="paint1_linear_4082_1152" x1="79.6473" y1="30.8223" x2="127.72" y2="45.0436" gradientUnits="userSpaceOnUse">
<stop offset="0.548077" stop-color="#D9E3FB"/>
<stop offset="1" stop-color="#BBCDF8"/>
</linearGradient>
<linearGradient id="paint2_linear_4082_1152" x1="60.0905" y1="75.3064" x2="39.0974" y2="96.188" gradientUnits="userSpaceOnUse">
<stop offset="0.519231" stop-color="#D9E3FB"/>
<stop offset="1" stop-color="#BBCDF8"/>
</linearGradient>
<linearGradient id="paint3_linear_4082_1152" x1="202.433" y1="53.2469" x2="214.792" y2="83.9587" gradientUnits="userSpaceOnUse">
<stop stop-color="#688FF0"/>
<stop offset="1" stop-color="#ECF1FD"/>
</linearGradient>
</defs>
</svg>
