<svg width="71" height="32" viewBox="0 0 71 32" fill="none" xmlns="http://www.w3.org/2000/svg">
<path d="M71 16C71 26.8758 57.3152 32 35.5 32C13.6848 32 0 26.8758 0 16C0 5.12424 13.6848 0 35.5 0C57.3152 0 71 5.12424 71 16Z" fill="#FFD257"/>
<path d="M71 16C71 26.8758 57.3152 32 35.5 32C13.6848 32 0 26.8758 0 16C0 5.12424 13.6848 0 35.5 0C57.3152 0 71 5.12424 71 16Z" fill="url(#paint0_linear_1429_59)"/>
<path d="M71 16C71 26.8758 57.3152 32 35.5 32C13.6848 32 0 26.8758 0 16C0 5.12424 13.6848 0 35.5 0C57.3152 0 71 5.12424 71 16Z" fill="url(#paint1_linear_1429_59)"/>
<g filter="url(#filter0_f_1429_59)">
<ellipse cx="17.0994" cy="9.0154" rx="6.84173" ry="2.86227" transform="rotate(-5.89215 17.0994 9.0154)" fill="white"/>
</g>
<defs>
<filter id="filter0_f_1429_59" x="6.28711" y="2.08228" width="21.624" height="13.8662" filterUnits="userSpaceOnUse" color-interpolation-filters="sRGB">
<feFlood flood-opacity="0" result="BackgroundImageFix"/>
<feBlend mode="normal" in="SourceGraphic" in2="BackgroundImageFix" result="shape"/>
<feGaussianBlur stdDeviation="2" result="effect1_foregroundBlur_1429_59"/>
</filter>
<linearGradient id="paint0_linear_1429_59" x1="35.5" y1="0" x2="35.5" y2="32" gradientUnits="userSpaceOnUse">
<stop stop-color="white" stop-opacity="0"/>
<stop offset="0.275" stop-color="white"/>
<stop offset="0.54" stop-color="white" stop-opacity="0"/>
<stop offset="1" stop-color="white" stop-opacity="0"/>
</linearGradient>
<linearGradient id="paint1_linear_1429_59" x1="71" y1="16" x2="0" y2="16" gradientUnits="userSpaceOnUse">
<stop stop-color="#EAA639"/>
<stop offset="0.455" stop-color="#EAA639" stop-opacity="0"/>
<stop offset="1" stop-color="#EAA639"/>
</linearGradient>
</defs>
</svg>
