<svg width="77" height="28" viewBox="0 0 77 28" fill="none" xmlns="http://www.w3.org/2000/svg">
<path d="M0 14C0 6.26801 6.26801 0 14 0H38.5H63C70.732 0 77 6.26801 77 14V14C77 21.732 70.732 28 63 28H38.5H14C6.26801 28 0 21.732 0 14V14Z" fill="url(#paint0_linear_1429_54)"/>
<path d="M39.5 1H63C70.1797 1 76 6.8203 76 14C76 21.1797 70.1797 27 63 27H39.5V1ZM37.5 1V27H14C6.8203 27 1 21.1797 1 14C1 6.8203 6.8203 1 14 1H37.5Z" stroke="black" stroke-opacity="0.1" stroke-width="2"/>
<defs>
<linearGradient id="paint0_linear_1429_54" x1="38.5" y1="0" x2="38.5" y2="28" gradientUnits="userSpaceOnUse">
<stop offset="0.515" stop-color="white"/>
<stop offset="1" stop-color="#DFDFDF"/>
</linearGradient>
</defs>
</svg>
