<svg width="16" height="16" viewBox="0 0 16 16" fill="none" xmlns="http://www.w3.org/2000/svg">
<g id="help-chat-2--bubble-help-mark-message-query-question-speech-circle" clip-path="url(#clip0_3864_677)">
<g id="help-chat-2--bubble-help-mark-message-query-question-speech-circle_2">
<path id="Subtract" fill-rule="evenodd" clip-rule="evenodd" d="M7.99754 0.0527357C9.19348 0.0520562 10.3742 0.321308 11.4516 0.840425C12.529 1.35956 13.4754 2.11521 14.2201 3.05101C14.9649 3.98682 15.4888 5.07866 15.7529 6.24514C16.0169 7.41163 16.0143 8.62267 15.7452 9.78798C15.476 10.9533 14.9473 12.0429 14.1985 12.9754C13.4497 13.908 12.5 14.6594 11.4203 15.1739C10.3406 15.6883 9.15871 15.9525 7.96272 15.9465C6.83025 15.9409 5.71281 15.6934 4.68502 15.2213L0.723895 15.9375C0.521512 15.9741 0.315076 15.8991 0.183359 15.7411C0.0516416 15.5832 0.0149651 15.3666 0.0873243 15.1742L1.22359 12.1511C0.526046 11.0124 0.125794 9.71485 0.0620907 8.37789C-0.00632409 6.94203 0.316006 5.5145 0.994749 4.24734C1.6735 2.98019 2.68323 1.92086 3.91642 1.1822C5.14955 0.443558 6.56011 0.0532146 7.99754 0.0527357ZM7.56462 5.07961C7.77243 4.99353 8.00112 4.971 8.22174 5.01489C8.44235 5.05877 8.64501 5.16709 8.80407 5.32614C8.96313 5.48521 9.07145 5.68786 9.11533 5.90849C9.15922 6.1291 9.13669 6.35779 9.05062 6.56561C8.96453 6.77342 8.81875 6.95106 8.63172 7.07603C8.44468 7.201 8.2248 7.26771 7.99985 7.26771C7.60536 7.26771 7.28556 7.5875 7.28556 7.982V9.21641C7.28556 9.6109 7.60536 9.93069 7.99985 9.93069C8.39434 9.93069 8.71414 9.6109 8.71414 9.21641V8.59485C8.96544 8.52202 9.20548 8.41078 9.42539 8.26385C9.84736 7.98189 10.1762 7.58116 10.3704 7.1123C10.5646 6.64344 10.6155 6.12753 10.5165 5.62978C10.4174 5.13204 10.1731 4.67484 9.81423 4.316C9.45537 3.95715 8.99817 3.71277 8.50043 3.61376C8.0027 3.51475 7.48677 3.56557 7.01792 3.75978C6.54906 3.95398 6.14832 4.28286 5.86637 4.70483C5.58443 5.12678 5.43394 5.62288 5.43394 6.13037C5.43394 6.52485 5.75374 6.84466 6.14823 6.84466C6.54272 6.84466 6.86251 6.52485 6.86251 6.13037C6.86251 5.90542 6.92922 5.68553 7.05419 5.4985C7.17916 5.31146 7.35679 5.16569 7.56462 5.07961ZM7.99988 13.0167C7.43603 13.0154 6.97932 12.5579 6.97932 11.9938C6.97932 11.4289 7.43729 10.971 8.00221 10.971C8.00298 10.971 8.00376 10.971 8.00452 10.971C8.56837 10.9722 9.02508 11.4297 9.02508 11.9938C9.02508 12.5587 8.56712 13.0167 8.00219 13.0167C8.00143 13.0167 8.00065 13.0167 7.99988 13.0167Z" fill="#4273ED"/>
</g>
</g>
<defs>
<clipPath id="clip0_3864_677">
<rect width="16" height="16" fill="white"/>
</clipPath>
</defs>
</svg>
