<svg width="32" height="32" viewBox="0 0 32 32" fill="none" xmlns="http://www.w3.org/2000/svg">
<g id="megaphone-2--bullhorn-loud-megaphone-share-speaker-transmit">
<rect width="32" height="32" rx="16" fill="#ECF1FD"/>
<path id="Subtract" fill-rule="evenodd" clip-rule="evenodd" d="M20.8632 22.1535C19.1365 20.7708 17.1567 19.7459 15.0455 19.1213V12.8787C17.1567 12.2541 19.1365 11.2292 20.8632 9.84649L21.6979 9.17808C22.2166 8.76271 23 9.12033 23 9.77251V22.2275C23 22.8797 22.2166 23.2373 21.6979 22.8219L20.8632 22.1535ZM13.7727 21.5515V18.7968V13.2032C12.5818 13.4592 11.3583 13.5907 10.1227 13.5907H9.79545C9.35614 13.5907 9 13.9359 9 14.3617V17.6383C9 18.0641 9.35614 18.4093 9.79545 18.4093H10.1227C10.4921 18.4093 10.8605 18.4211 11.2273 18.4444V21.5515C11.2273 21.9773 11.5834 22.3225 12.0227 22.3225H12.9773C13.4166 22.3225 13.7727 21.9773 13.7727 21.5515Z" fill="#4273ED"/>
</g>
</svg>
