<svg width="48" height="48" viewBox="0 0 48 48" fill="none" xmlns="http://www.w3.org/2000/svg">
<g clip-path="url(#clip0_911_9976)">
<path fill-rule="evenodd" clip-rule="evenodd" d="M5.8947 0.962441C5.24807 0.337899 4.382 -0.00768211 3.48304 0.000129609C2.58408 0.00794133 1.72415 0.36852 1.08847 1.00421C0.452782 1.63989 0.0922032 2.49982 0.0843914 3.39878C0.0765797 4.29774 0.422161 5.1638 1.0467 5.81044L19.1941 23.9579L1.0467 42.1053C0.719239 42.4216 0.458043 42.7999 0.278355 43.2182C0.0986668 43.6365 0.00408539 44.0864 0.000129452 44.5416C-0.00382649 44.9969 0.0829222 45.4484 0.255314 45.8697C0.427705 46.2911 0.682288 46.6739 1.00421 46.9958C1.32612 47.3177 1.70893 47.5723 2.13029 47.7447C2.55165 47.9171 3.00312 48.0038 3.45836 47.9999C3.91361 47.9959 4.3635 47.9013 4.7818 47.7216C5.2001 47.542 5.57843 47.2808 5.8947 46.9533L24.0421 28.8059L42.1896 46.9533C42.8362 47.5778 43.7023 47.9234 44.6012 47.9156C45.5002 47.9078 46.3601 47.5472 46.9958 46.9115C47.6315 46.2758 47.9921 45.4159 47.9999 44.517C48.0077 43.618 47.6621 42.7519 47.0376 42.1053L28.8901 23.9579L47.0376 5.81044C47.6621 5.1638 48.0077 4.29774 47.9999 3.39878C47.9921 2.49982 47.6315 1.63989 46.9958 1.00421C46.3601 0.36852 45.5002 0.00794133 44.6012 0.000129609C43.7023 -0.00768211 42.8362 0.337899 42.1896 0.962441L24.0421 19.1099L5.8947 0.962441Z" fill="currentColor"/>
</g>
<defs>
<clipPath id="clip0_911_9976">
<rect width="48" height="48" fill="white"/>
</clipPath>
</defs>
</svg>
