<svg width="48" height="48" viewBox="0 0 48 48" fill="none" xmlns="http://www.w3.org/2000/svg">
<path d="M28.1138 1.24939C30.2861 1.24956 32.1534 2.55268 32.979 4.41931H36.8316C38.1538 4.41941 39.4253 4.91171 40.4009 5.79529L40.5923 5.97693L40.7739 6.16736C41.657 7.14278 42.1499 8.41508 42.1499 9.73767V41.433C42.1498 42.8433 41.5893 44.1966 40.5923 45.1937C39.5952 46.1907 38.2419 46.7512 36.8316 46.7513H9.89015C8.56745 46.7513 7.29529 46.2586 6.31984 45.3754L6.12941 45.1937C5.13192 44.1964 4.57189 42.8432 4.57179 41.433V9.73767C4.57179 8.32719 5.1322 6.97429 6.12941 5.97693L6.31984 5.79431C7.29543 4.91097 8.56774 4.41931 9.89015 4.41931H13.7398C14.5652 2.55253 16.4326 1.24956 18.605 1.24939H28.1138ZM9.89015 8.71619C9.65327 8.71619 9.42436 8.79877 9.24269 8.94763L9.16847 9.01599C8.97716 9.20744 8.86867 9.46708 8.86867 9.73767V41.433C8.86876 41.7035 8.9765 41.9636 9.1675 42.1547L9.24269 42.222C9.42453 42.3711 9.65341 42.4535 9.89015 42.4535H36.8316C37.1019 42.4534 37.362 42.3458 37.5532 42.1547C37.7444 41.9634 37.852 41.7033 37.8521 41.433V9.73767C37.8521 9.46726 37.7438 9.20666 37.5523 9.01501V9.01404C37.3613 8.82352 37.1017 8.71629 36.8316 8.71619H33.4019C33.1199 11.388 30.8602 13.4709 28.1138 13.4711H18.605C15.8586 13.4709 13.5998 11.388 13.3179 8.71619H9.89015ZM29.564 19.5414C30.276 18.5921 31.6234 18.3999 32.5728 19.1117C33.5218 19.8238 33.7142 21.1702 33.0025 22.1195L23.4937 34.7982L21.7739 33.5082V33.5092L23.4937 34.7982C22.8522 35.6534 21.6889 35.8993 20.7642 35.4056L20.5825 35.2963L15.8277 32.1273C14.8406 31.4689 14.5738 30.1341 15.2319 29.1469C15.8902 28.1596 17.225 27.8931 18.2124 28.5511L21.2739 30.5922L29.564 19.5414ZM18.605 5.54626C18.0415 5.5465 17.5835 6.00417 17.5835 6.56775V8.15173C17.5835 8.7153 18.0415 9.17299 18.605 9.17322H28.1138C28.6773 9.17299 29.1343 8.71531 29.1343 8.15173V6.56775C29.1343 6.00417 28.6773 5.54649 28.1138 5.54626H18.605Z" fill="currentColor"/>
</svg>
