<svg width="48" height="49" viewBox="0 0 48 49" fill="none" xmlns="http://www.w3.org/2000/svg">
<g clip-path="url(#clip0_897_9814)">
<path d="M17.932 8.21417L19.4063 4.40846C19.6549 3.76411 20.0924 3.20987 20.6613 2.81833C21.2303 2.42679 21.9042 2.21621 22.5948 2.21417H25.4063C26.0969 2.21621 26.7709 2.42679 27.3398 2.81833C27.9088 3.20987 28.3462 3.76411 28.5948 4.40846L30.0691 8.21417L35.0747 11.0942L39.1204 10.477C39.7941 10.3856 40.4799 10.4965 41.0905 10.7956C41.7008 11.0948 42.2085 11.5686 42.549 12.157L43.9204 14.557C44.2719 15.1548 44.434 15.8451 44.385 16.5368C44.336 17.2284 44.0785 17.889 43.6461 18.4313L41.1433 21.6199V27.3799L43.7147 30.5685C44.1471 31.1108 44.4045 31.7713 44.4536 32.463C44.5026 33.1547 44.3404 33.845 43.989 34.4427L42.6176 36.8427C42.2771 37.4311 41.7693 37.9049 41.159 38.2042C40.5484 38.5032 39.8627 38.6143 39.189 38.5227L35.1433 37.9056L30.1377 40.7856L28.6634 44.5913C28.4148 45.2355 27.9774 45.7899 27.4084 46.1815C26.8395 46.573 26.1655 46.7835 25.4748 46.7856H22.5948C21.9042 46.7835 21.2303 46.573 20.6613 46.1815C20.0924 45.7899 19.6549 45.2355 19.4063 44.5913L17.932 40.7856L12.9263 37.9056L8.88056 38.5227C8.20691 38.6143 7.52127 38.5032 6.91078 38.2042C6.30032 37.9049 5.79255 37.4311 5.45199 36.8427L4.08056 34.4427C3.72913 33.845 3.56723 33.1547 3.61619 32.463C3.66515 31.7713 3.92271 31.1108 4.35485 30.5685L6.8577 27.3799V21.6199L4.28627 18.4313C3.85414 17.889 3.59658 17.2284 3.54762 16.5368C3.49866 15.8451 3.66056 15.1548 4.01199 14.557L5.38342 12.157C5.72398 11.5686 6.23175 11.0948 6.84221 10.7956C7.4527 10.4965 8.13834 10.3856 8.81199 10.477L12.8577 11.0942L17.932 8.21417ZM17.1434 24.4999C17.1434 25.8561 17.5456 27.1819 18.2991 28.3095C19.0525 29.4372 20.1235 30.316 21.3764 30.8351C22.6294 31.354 24.0082 31.4898 25.3383 31.2253C26.6685 30.9607 27.8903 30.3076 28.8493 29.3486C29.8083 28.3896 30.4614 27.1678 30.7259 25.8376C30.9905 24.5075 30.8548 23.1288 30.3357 21.8758C29.8168 20.6228 28.9378 19.5518 27.8102 18.7984C26.6825 18.0449 25.3568 17.6427 24.0006 17.6427C22.1819 17.6427 20.4378 18.3652 19.1518 19.6512C17.8659 20.9371 17.1434 22.6813 17.1434 24.4999Z" stroke="black" stroke-width="4.23529" stroke-linecap="round" stroke-linejoin="round"/>
</g>
<defs>
<clipPath id="clip0_897_9814">
<rect width="48" height="48" fill="white" transform="translate(0 0.5)"/>
</clipPath>
</defs>
</svg>
