<svg width="101" height="100" viewBox="0 0 101 100" fill="none" xmlns="http://www.w3.org/2000/svg">
<path fill-rule="evenodd" clip-rule="evenodd" d="M35.3505 31.4814C35.3505 27.5523 36.9114 23.7841 39.6897 21.0058C42.468 18.2275 46.2362 16.6666 50.1654 16.6666C54.0945 16.6666 57.8627 18.2275 60.641 21.0058C63.4193 23.7841 64.9802 27.5523 64.9802 31.4814C64.9802 35.4106 63.4193 39.1788 60.641 41.9571C57.8627 44.7354 54.0945 46.2963 50.1654 46.2963C46.2362 46.2963 42.468 44.7354 39.6897 41.9571C36.9114 39.1788 35.3505 35.4106 35.3505 31.4814ZM35.3505 53.7037C30.4391 53.7037 25.7289 55.6547 22.256 59.1276C18.7831 62.6005 16.832 67.3108 16.832 72.2222C16.832 75.169 18.0027 77.9952 20.0864 80.0789C22.1701 82.1627 24.9963 83.3333 27.9431 83.3333H72.3876C75.3344 83.3333 78.1606 82.1627 80.2443 80.0789C82.3281 77.9952 83.4987 75.169 83.4987 72.2222C83.4987 67.3108 81.5476 62.6005 78.0747 59.1276C74.6019 55.6547 69.8916 53.7037 64.9802 53.7037H35.3505Z" fill="currentColor"/>
</svg>
