<svg width="101" height="100" viewBox="0 0 101 100" fill="none" xmlns="http://www.w3.org/2000/svg">
<path fill-rule="evenodd" clip-rule="evenodd" d="M46.7327 19.1667C31.9697 19.1667 20.002 31.1345 20.002 45.8975C20.002 60.6605 31.9697 72.6283 46.7327 72.6283C52.6098 72.6283 58.0438 70.7317 62.4562 67.5171L74.552 79.6129C76.1792 81.2401 78.8174 81.2401 80.4446 79.6129C82.0718 77.9857 82.0718 75.3475 80.4446 73.7204L68.3493 61.6251C71.5657 57.212 73.4635 51.7764 73.4635 45.8975C73.4635 31.1345 61.4957 19.1667 46.7327 19.1667ZM28.3353 45.8975C28.3353 35.7369 36.5721 27.5001 46.7327 27.5001C56.8934 27.5001 65.1302 35.7369 65.1302 45.8975C65.1302 56.0582 56.8934 64.295 46.7327 64.295C36.5721 64.295 28.3353 56.0582 28.3353 45.8975Z" fill="black"/>
</svg>
