<svg width="28" height="14" viewBox="0 0 28 14" fill="none" xmlns="http://www.w3.org/2000/svg">
<g clip-path="url(#clip0_3390_36)">
<path d="M21.1957 0.666504H7.2625C3.76471 0.666504 0.929199 3.50202 0.929199 6.9998C0.929199 10.4976 3.76471 13.3331 7.2625 13.3331H21.1957C24.6935 13.3331 27.529 10.4976 27.529 6.9998C27.529 3.50202 24.6935 0.666504 21.1957 0.666504Z" fill="white"/>
<path d="M14.2291 1.6665H7.2625C4.317 1.6665 1.9292 4.0543 1.9292 6.9998C1.9292 9.9453 4.317 12.3331 7.2625 12.3331H14.2291M14.2291 1.6665H21.1957C24.1412 1.6665 26.529 4.0543 26.529 6.9998C26.529 9.9453 24.1412 12.3331 21.1957 12.3331H14.2291M14.2291 1.6665V12.3331" stroke="black" stroke-opacity="0.3" stroke-width="2"/>
</g>
<defs>
<clipPath id="clip0_3390_36">
<rect width="28" height="14" fill="white"/>
</clipPath>
</defs>
</svg>
