<svg width="22" height="21" viewBox="0 0 22 21" fill="none" xmlns="http://www.w3.org/2000/svg">
<g clip-path="url(#clip0_3390_20)">
<mask id="mask0_3390_20" style="mask-type:luminance" maskUnits="userSpaceOnUse" x="0" y="0" width="22" height="21">
<path d="M21.0328 9.18319L12.4021 0.552483C11.7078 -0.14178 10.5822 -0.141779 9.88795 0.552483L1.25724 9.18319C0.562979 9.87745 0.562979 11.0031 1.25724 11.6973L9.88795 20.328C10.5822 21.0223 11.7078 21.0223 12.4021 20.328L21.0328 11.6973C21.7271 11.0031 21.7271 9.87745 21.0328 9.18319Z" fill="white"/>
</mask>
<g mask="url(#mask0_3390_20)">
<path d="M21.0328 9.18319L12.4021 0.552483C11.7078 -0.14178 10.5822 -0.141779 9.88795 0.552483L1.25724 9.18319C0.562979 9.87745 0.562979 11.0031 1.25724 11.6973L9.88795 20.328C10.5822 21.0223 11.7078 21.0223 12.4021 20.328L21.0328 11.6973C21.7271 11.0031 21.7271 9.87745 21.0328 9.18319Z" fill="white" stroke="black" stroke-opacity="0.3" stroke-width="4"/>
</g>
</g>
<defs>
<clipPath id="clip0_3390_20">
<rect width="22" height="21" fill="white"/>
</clipPath>
</defs>
</svg>
