<svg width="23" height="12" viewBox="0 0 23 12" fill="none" xmlns="http://www.w3.org/2000/svg">
<g clip-path="url(#clip0_3390_11)">
<path d="M1.77774 11.889C0.795902 11.889 -0.0142491 11.0884 0.133107 10.1177C0.977993 4.55198 5.74203 0.289062 11.4925 0.289062C17.243 0.289062 22.007 4.55198 22.8519 10.1177C22.9993 11.0884 22.1891 11.889 21.2073 11.889H1.77774Z" fill="white"/>
<path d="M1.77763 10.889C1.55781 10.889 1.37189 10.7991 1.25525 10.6769C1.14527 10.5617 1.09803 10.4236 1.12167 10.2678C1.89454 5.17651 6.25057 1.28906 11.4924 1.28906C16.7343 1.28906 21.0903 5.17651 21.8631 10.2678C21.8868 10.4236 21.8395 10.5617 21.7296 10.6769C21.6129 10.7991 21.427 10.889 21.2072 10.889H1.77763Z" stroke="black" stroke-opacity="0.3" stroke-width="2"/>
</g>
<defs>
<clipPath id="clip0_3390_11">
<rect width="23" height="12" fill="white"/>
</clipPath>
</defs>
</svg>
