<svg width="22" height="19" viewBox="0 0 22 19" fill="none" xmlns="http://www.w3.org/2000/svg">
<g clip-path="url(#clip0_3390_25)">
<path d="M5.58613 0.842391C5.74492 0.56737 6.03836 0.39795 6.35593 0.39795L15.7705 0.397949C16.088 0.39795 16.3815 0.56737 16.5403 0.842391L21.2475 8.99564C21.4063 9.27066 21.4063 9.6095 21.2475 9.88452L16.5403 18.0378C16.3815 18.3128 16.088 18.4822 15.7705 18.4822H6.35593C6.03836 18.4822 5.74492 18.3128 5.58613 18.0378L0.878854 9.88452C0.72007 9.6095 0.72007 9.27066 0.878854 8.99563L5.58613 0.842391Z" fill="white"/>
<path d="M1.77734 9.44008L6.42046 1.39795H15.7067L20.3498 9.44008L15.7067 17.4822H6.42046L1.77734 9.44008Z" stroke="black" stroke-opacity="0.3" stroke-width="2"/>
</g>
<defs>
<clipPath id="clip0_3390_25">
<rect width="22" height="19" fill="white"/>
</clipPath>
</defs>
</svg>
