<svg width="20" height="20" viewBox="0 0 20 20" fill="none" xmlns="http://www.w3.org/2000/svg">
<path d="M5.9239 1.06451C6.09059 0.89781 6.31668 0.80416 6.55243 0.80416L13.4245 0.80416C13.6603 0.80416 13.8864 0.89781 14.0531 1.06451L18.9124 5.92382C19.0791 6.09052 19.1727 6.31661 19.1727 6.55235L19.1727 13.4245C19.1727 13.6602 19.0791 13.8863 18.9124 14.053L14.0531 18.9123C13.8864 19.079 13.6603 19.1726 13.4245 19.1726L6.55243 19.1726C6.31669 19.1726 6.09059 19.079 5.9239 18.9123L1.06459 14.053C0.897888 13.8863 0.804238 13.6602 0.804238 13.4245L0.804239 6.55235C0.804239 6.31661 0.897889 6.09052 1.06459 5.92382L5.9239 1.06451Z" fill="white"/>
<path d="M1.80424 6.59838L6.59846 1.80416L13.3785 1.80416L18.1727 6.59838L18.1727 13.3784L13.3785 18.1726L6.59846 18.1726L1.80424 13.3784L1.80424 6.59838Z" stroke="black" stroke-opacity="0.3" stroke-width="2"/>
</svg>
