<svg width="24" height="14" viewBox="0 0 24 14" fill="none" xmlns="http://www.w3.org/2000/svg">
<g clip-path="url(#clip0_3390_2)">
<path d="M11.9646 13.8666C18.5725 13.8666 23.9292 10.7923 23.9292 6.99993C23.9292 3.2076 18.5725 0.133301 11.9646 0.133301C5.35673 0.133301 0 3.2076 0 6.99993C0 10.7923 5.35673 13.8666 11.9646 13.8666Z" fill="white"/>
<path d="M22.9292 6.99993C22.9292 8.38456 21.9426 9.83133 19.927 10.9881C17.939 12.129 15.126 12.8666 11.9646 12.8666C8.80315 12.8666 5.99014 12.129 4.00211 10.9881C1.9866 9.83133 1 8.38456 1 6.99993C1 5.61529 1.9866 4.16853 4.00211 3.0118C5.99014 1.87085 8.80315 1.1333 11.9646 1.1333C15.126 1.1333 17.939 1.87085 19.927 3.0118C21.9426 4.16853 22.9292 5.61529 22.9292 6.99993Z" stroke="black" stroke-opacity="0.3" stroke-width="2"/>
</g>
<defs>
<clipPath id="clip0_3390_2">
<rect width="24" height="14" fill="white"/>
</clipPath>
</defs>
</svg>
