<svg width="20" height="20" viewBox="0 0 20 20" fill="none" xmlns="http://www.w3.org/2000/svg">
<g clip-path="url(#clip0_3390_28)">
<path d="M8.9943 0.365113C9.61975 -0.0930584 10.47 -0.0930588 11.0954 0.365113L19.2389 6.33058C19.8568 6.78327 20.1153 7.58089 19.8804 8.31L16.7639 17.9807C16.5272 18.7152 15.8436 19.2132 15.0718 19.2132H5.01786C4.2461 19.2132 3.5625 18.7152 3.32578 17.9807L0.209344 8.31C-0.0256156 7.5809 0.232884 6.78327 0.850846 6.33058L8.9943 0.365113Z" fill="white"/>
<path d="M18.6479 7.13729L19.2389 6.33058M18.6479 7.13729C18.9183 7.33534 19.0314 7.6843 18.9286 8.00328L15.8121 17.6739C15.7086 17.9953 15.4095 18.2132 15.0718 18.2132H5.01779C4.68015 18.2132 4.38107 17.9953 4.27751 17.674L1.16107 8.00328C1.05828 7.6843 1.17137 7.33534 1.44173 7.13729L9.58518 1.17183C9.85882 0.971372 10.2308 0.971372 10.5045 1.17182L18.6479 7.13729Z" stroke="black" stroke-opacity="0.3" stroke-width="2"/>
</g>
<defs>
<clipPath id="clip0_3390_28">
<rect width="20" height="20" fill="white"/>
</clipPath>
</defs>
</svg>
