<svg width="48" height="48" viewBox="0 0 48 48" fill="none" xmlns="http://www.w3.org/2000/svg">
<g clip-path="url(#clip0_1291_206)">
<path d="M7.2 9.25716C7.2 7.92966 8.2725 6.85716 9.6 6.85716H33.6H38.4C43.7025 6.85716 48 11.1547 48 16.4572C48 21.7597 43.7025 26.0572 38.4 26.0572H36C36 30.0322 32.775 33.2572 28.8 33.2572H14.4C10.425 33.2572 7.2 30.0322 7.2 26.0572V9.25716ZM36 21.2572H38.4C41.0475 21.2572 43.2 19.1047 43.2 16.4572C43.2 13.8097 41.0475 11.6572 38.4 11.6572H36V21.2572ZM2.4 35.6572H40.8C42.1275 35.6572 43.2 36.7297 43.2 38.0572C43.2 39.3847 42.1275 40.4572 40.8 40.4572H2.4C1.0725 40.4572 0 39.3847 0 38.0572C0 36.7297 1.0725 35.6572 2.4 35.6572Z" fill="currentColor"/>
</g>
<defs>
<clipPath id="clip0_1291_206">
<rect width="48" height="48" fill="white"/>
</clipPath>
</defs>
</svg>
