<svg width="49" height="48" viewBox="0 0 49 48" fill="none" xmlns="http://www.w3.org/2000/svg">
<path d="M19.7525 3.20001C18.2414 3.20001 17.0164 4.42502 17.0164 5.9361V16.8176H6.1346C4.62344 16.8176 3.39844 18.0426 3.39844 19.5537V28.4459C3.39844 29.957 4.62344 31.182 6.1346 31.182H17.0161V42.0634C17.0161 43.5747 18.241 44.7994 19.7521 44.7994H28.6444C30.1555 44.7994 31.3805 43.5747 31.3805 42.0634L31.3809 31.182H42.2623C43.7734 31.182 44.9984 29.957 44.9984 28.4459V19.5537C44.9984 18.0426 43.7734 16.8176 42.2623 16.8176H31.3809V5.9361C31.3809 4.42502 30.1559 3.20001 28.6448 3.20001H19.7525Z" fill="black"/>
</svg>
