<svg width="48" height="48" viewBox="0 0 48 48" fill="none" xmlns="http://www.w3.org/2000/svg">
<g clip-path="url(#clip0_897_9794)">
<path fill-rule="evenodd" clip-rule="evenodd" d="M17.2005 17.8935L9.94244 25.1515C8.23083 26.8631 7.26925 29.1846 7.26925 31.6052C7.26925 34.0258 8.23083 36.3473 9.94244 38.0588C11.6541 39.7704 13.9755 40.7321 16.3961 40.7321C18.8167 40.7321 21.1382 39.7704 22.8498 38.0588L30.1079 30.8008L17.2005 17.8935ZM31.6068 0.410522C27.3675 0.410522 23.3019 2.09455 20.3044 5.09213L5.09372 20.3028C2.09613 23.3003 0.412109 27.366 0.412109 31.6052C0.412109 35.8443 2.09613 39.9099 5.09372 42.9075C8.09132 45.9051 12.1569 47.5892 16.3961 47.5892C20.6354 47.5892 24.701 45.9051 27.6985 42.9075L42.9091 27.6969C45.9067 24.6994 47.5908 20.6338 47.5908 16.3946C47.5908 12.1553 45.9067 8.08973 42.9091 5.09213C39.9115 2.09455 35.8459 0.410522 31.6068 0.410522Z" fill="black"/>
</g>
<defs>
<clipPath id="clip0_897_9794">
<rect width="48" height="48" fill="white"/>
</clipPath>
</defs>
</svg>
