<svg width="48" height="48" viewBox="0 0 48 48" fill="none" xmlns="http://www.w3.org/2000/svg">
<g clip-path="url(#clip0_1291_213)">
<path d="M33.8863 0.112675C34.355 0.30955 34.6925 0.731425 34.7863 1.2283L36.6519 11.3439L46.7675 13.2002C47.2644 13.2939 47.6863 13.6314 47.8832 14.1002C48.08 14.5689 48.0238 15.1033 47.7332 15.5252L41.8925 24.0002L47.7332 32.4658C48.0238 32.8877 48.08 33.422 47.8832 33.8908C47.6863 34.3595 47.2644 34.6971 46.7675 34.7908L36.6519 36.6564L34.7863 46.772C34.6925 47.2689 34.355 47.6908 33.8863 47.8877C33.4175 48.0845 32.8832 48.0283 32.4613 47.7377L23.9957 41.897L15.53 47.7377C15.1082 48.0283 14.5738 48.0845 14.105 47.8877C13.6363 47.6908 13.2988 47.2689 13.205 46.772L11.3394 36.6564L1.22378 34.7908C0.726909 34.6971 0.305034 34.3595 0.108159 33.8908C-0.0887165 33.422 -0.0324665 32.8877 0.258159 32.4658L6.09878 24.0002L0.258159 15.5345C-0.0324665 15.1127 -0.0887165 14.5783 0.108159 14.1095C0.305034 13.6408 0.726909 13.3033 1.22378 13.2095L11.3394 11.3439L13.205 1.2283C13.2988 0.731425 13.6363 0.30955 14.105 0.112675C14.5738 -0.0841999 15.1082 -0.0279499 15.53 0.262675L23.9957 6.1033L32.4613 0.262675C32.8832 -0.0279499 33.4175 -0.0841999 33.8863 0.112675ZM14.9957 24.0002C14.9957 21.6132 15.9439 19.324 17.6317 17.6362C19.3195 15.9484 21.6087 15.0002 23.9957 15.0002C26.3826 15.0002 28.6718 15.9484 30.3596 17.6362C32.0474 19.324 32.9957 21.6132 32.9957 24.0002C32.9957 26.3871 32.0474 28.6763 30.3596 30.3641C28.6718 32.052 26.3826 33.0002 23.9957 33.0002C21.6087 33.0002 19.3195 32.052 17.6317 30.3641C15.9439 28.6763 14.9957 26.3871 14.9957 24.0002ZM35.9957 24.0002C35.9957 20.8176 34.7314 17.7653 32.4809 15.5149C30.2305 13.2645 27.1783 12.0002 23.9957 12.0002C20.8131 12.0002 17.7608 13.2645 15.5104 15.5149C13.2599 17.7653 11.9957 20.8176 11.9957 24.0002C11.9957 27.1828 13.2599 30.235 15.5104 32.4855C17.7608 34.7359 20.8131 36.0002 23.9957 36.0002C27.1783 36.0002 30.2305 34.7359 32.4809 32.4855C34.7314 30.235 35.9957 27.1828 35.9957 24.0002Z" fill="currentColor"/>
</g>
<defs>
<clipPath id="clip0_1291_213">
<rect width="48" height="48" fill="white"/>
</clipPath>
</defs>
</svg>
