<svg width="48" height="49" viewBox="0 0 48 49" fill="none" xmlns="http://www.w3.org/2000/svg">
<g clip-path="url(#clip0_911_9933)">
<path fill-rule="evenodd" clip-rule="evenodd" d="M23.9929 0.500004C27.6037 0.497952 31.1684 1.3111 34.4213 2.87885C37.6745 4.44666 40.5318 6.72873 42.7802 9.5549C45.0289 12.3811 46.6106 15.6784 47.4081 19.2013C48.2051 22.7241 48.1972 26.3815 47.3846 29.9008C46.572 33.4201 44.9758 36.7105 42.715 39.5269C40.4542 42.3433 37.5868 44.6127 34.327 46.1665C31.0671 47.72 27.4987 48.5177 23.8878 48.4997C20.4686 48.4828 17.0948 47.7352 13.9917 46.3094L2.03227 48.4724C1.42124 48.5829 0.797961 48.3565 0.400281 47.8795C0.00259771 47.4025 -0.108137 46.7484 0.110331 46.1672L3.54094 37.0374C1.43492 33.5986 0.226478 29.6799 0.0341455 25.6422C-0.172413 21.3059 0.80077 16.9947 2.85004 13.1679C4.89931 9.34101 7.94792 6.14181 11.6712 3.91103C15.3943 1.6803 19.653 0.50145 23.9929 0.500004ZM17.099 24.4999C17.099 26.4061 15.5541 27.9514 13.6485 27.9514C11.7428 27.9514 10.1979 26.4061 10.1979 24.4999C10.1979 22.5938 11.7428 21.0485 13.6485 21.0485C15.5541 21.0485 17.099 22.5938 17.099 24.4999ZM24 27.9514C25.9057 27.9514 27.4506 26.4061 27.4506 24.4999C27.4506 22.5938 25.9057 21.0485 24 21.0485C22.0944 21.0485 20.5495 22.5938 20.5495 24.4999C20.5495 26.4061 22.0944 27.9514 24 27.9514ZM34.3516 27.9514C36.2573 27.9514 37.8021 26.4061 37.8021 24.4999C37.8021 22.5938 36.2573 21.0485 34.3516 21.0485C32.446 21.0485 30.9011 22.5938 30.9011 24.4999C30.9011 26.4061 32.446 27.9514 34.3516 27.9514Z" fill="black"/>
</g>
<defs>
<clipPath id="clip0_911_9933">
<rect width="48" height="48" fill="white" transform="translate(0 0.5)"/>
</clipPath>
</defs>
</svg>
