<svg width="48" height="48" viewBox="0 0 48 48" fill="none" xmlns="http://www.w3.org/2000/svg">
<g clip-path="url(#clip0_911_10000)">
<path fill-rule="evenodd" clip-rule="evenodd" d="M24 48C37.2548 48 48 37.2548 48 24C48 10.7452 37.2548 0 24 0C10.7452 0 0 10.7452 0 24C0 37.2548 10.7452 48 24 48ZM34.9846 34.9846C36.3385 33.6308 36.3385 31.4358 34.9846 30.082L28.9026 24L34.9846 17.918C36.3385 16.5642 36.3385 14.3692 34.9846 13.0154C33.6308 11.6615 31.4359 11.6615 30.082 13.0154L24 19.0974L17.918 13.0154C16.5642 11.6615 14.3692 11.6615 13.0154 13.0154C11.6615 14.3692 11.6615 16.5642 13.0154 17.918L19.0974 24L13.0154 30.082C11.6615 31.4359 11.6615 33.6308 13.0154 34.9846C14.3692 36.3385 16.5642 36.3385 17.918 34.9846L24 28.9026L30.082 34.9846C31.4359 36.3385 33.6308 36.3385 34.9846 34.9846Z" fill="black"/>
</g>
<defs>
<clipPath id="clip0_911_10000">
<rect width="48" height="48" fill="white"/>
</clipPath>
</defs>
</svg>
