<svg width="48" height="48" viewBox="0 0 48 48" fill="none" xmlns="http://www.w3.org/2000/svg">
<g clip-path="url(#clip0_911_9838)">
<path fill-rule="evenodd" clip-rule="evenodd" d="M13.7969 3.72041C17.1587 3.96401 20.6618 5.6028 24.015 8.9195C27.3675 5.60373 30.8674 3.96806 34.2261 3.72988C38.0167 3.46104 41.3678 4.9931 43.7925 7.41028C48.5592 12.1628 50.0561 20.7624 44.1412 26.6775C44.1213 26.6974 44.1007 26.7169 44.0798 26.7358L25.1659 43.8682C24.5127 44.4597 23.5173 44.4597 22.8642 43.8682L3.95018 26.7358C3.92926 26.7169 3.90883 26.6974 3.88887 26.6775C-2.05706 20.7315 -0.568126 12.1309 4.21438 7.38216C6.64486 4.96879 10.0028 3.44551 13.7969 3.72041Z" fill="currentColor"/>
</g>
<defs>
<clipPath id="clip0_911_9838">
<rect width="48" height="48" fill="white"/>
</clipPath>
</defs>
</svg>
