<svg width="48" height="48" viewBox="0 0 48 48" fill="none" xmlns="http://www.w3.org/2000/svg">
<path d="M23.9531 4.5C28.0636 4.5 31.8653 5.29999 35.3584 6.89996C38.8514 8.49994 41.6129 10.6756 43.6427 13.4269C45.6726 16.1781 46.6875 19.1791 46.6875 22.4299C46.6875 25.6806 45.6726 28.6858 43.6427 31.4456C41.6129 34.2053 38.8556 36.3852 35.371 37.9852C31.8864 39.5851 28.0805 40.3852 23.9531 40.3852C22.6507 40.3852 21.3058 40.292 19.9188 40.1058C13.8968 44.2877 10.6914 46.4041 10.3024 46.4548C10.1163 46.5226 9.93863 46.5141 9.7695 46.4295C9.70181 46.3787 9.65109 46.3109 9.61725 46.2262C9.58341 46.1416 9.56653 46.0655 9.56653 45.9977V45.8962C9.66806 45.2358 10.4377 42.4846 11.8755 37.6423C8.61081 36.017 6.01851 33.8625 4.09861 31.1789C2.1787 28.4954 1.21875 25.579 1.21875 22.4299C1.21875 19.1791 2.23368 16.1781 4.26353 13.4269C6.29339 10.6756 9.05483 8.49994 12.5479 6.89996C16.0409 5.29999 19.8427 4.5 23.9531 4.5Z" fill="currentColor"/>
</svg>
