<svg width="48" height="48" viewBox="0 0 48 48" fill="none" xmlns="http://www.w3.org/2000/svg">
<path d="M28.1138 3.39783H18.6051C16.8546 3.39783 15.4355 4.81689 15.4355 6.5674V8.15219C15.4355 9.90268 16.8546 11.3218 18.6051 11.3218H28.1138C29.8643 11.3218 31.2834 9.90268 31.2834 8.15219V6.5674C31.2834 4.81689 29.8643 3.39783 28.1138 3.39783Z" stroke="currentColor" stroke-width="4.2977" stroke-linecap="round" stroke-linejoin="round"/>
<path d="M32.0773 6.56738H36.8316C37.6722 6.56738 38.4786 6.90133 39.0728 7.49572C39.6671 8.09014 40.0012 8.89632 40.0012 9.73696V41.4327C40.0012 42.2733 39.6671 43.0796 39.0728 43.6739C38.4786 44.2682 37.6722 44.6023 36.8316 44.6023H9.89028C9.04964 44.6023 8.24346 44.2682 7.64904 43.6739C7.05465 43.0796 6.7207 42.2733 6.7207 41.4327V9.73696C6.7207 8.89632 7.05465 8.09014 7.64904 7.49572C8.24346 6.90133 9.04964 6.56738 9.89028 6.56738H14.6446" stroke="currentColor" stroke-width="4.2977" stroke-linecap="round" stroke-linejoin="round"/>
<path d="M17.0215 30.3392L21.7758 33.5088L31.2846 20.8305" stroke="currentColor" stroke-width="4.2977" stroke-linecap="round" stroke-linejoin="round"/>
</svg>
