<svg width="48" height="48" viewBox="0 0 48 48" fill="none" xmlns="http://www.w3.org/2000/svg">
<path d="M27.3671 0C14.1399 0 3.42969 10.7464 3.42969 24C3.42969 37.2536 14.1399 48 27.3671 48C33.8575 48 39.7375 45.4071 44.0537 41.2071C44.5892 40.6821 44.7284 39.8679 44.3857 39.2036C44.043 38.5393 43.304 38.1643 42.565 38.2929C41.5154 38.475 40.4443 38.5714 39.3412 38.5714C28.9629 38.5714 20.5447 30.1286 20.5447 19.7143C20.5447 12.6643 24.4004 6.525 30.1089 3.28929C30.7623 2.91429 31.0943 2.16429 30.9336 1.43571C30.773 0.707143 30.1518 0.160714 29.4021 0.0964287C28.7273 0.0428573 28.0526 0.0107141 27.3671 0.0107141V0Z" fill="currentColor"/>
</svg>
