<svg width="48" height="48" viewBox="0 0 48 48" fill="none" xmlns="http://www.w3.org/2000/svg">
<g clip-path="url(#clip0_911_9973)">
<path fill-rule="evenodd" clip-rule="evenodd" d="M20.8352 0C9.32824 0 0 9.32825 0 20.8353C0 32.3423 9.32824 41.6705 20.8352 41.6705C25.3522 41.6705 29.5335 40.2331 32.9466 37.7908L42.1516 46.9958C43.4906 48.3347 45.6614 48.3347 47.0004 46.9958C48.3393 45.6569 48.3393 43.486 47.0004 42.147L37.7946 32.9413C40.2346 29.5292 41.6705 25.3499 41.6705 20.8353C41.6705 9.32825 32.3422 0 20.8352 0ZM6.85719 20.8353C6.85719 13.1154 13.1154 6.85719 20.8352 6.85719C28.5551 6.85719 34.8133 13.1154 34.8133 20.8353C34.8133 28.5551 28.5551 34.8133 20.8352 34.8133C13.1154 34.8133 6.85719 28.5551 6.85719 20.8353Z" fill="black"/>
</g>
<defs>
<clipPath id="clip0_911_9973">
<rect width="48" height="48" fill="white"/>
</clipPath>
</defs>
</svg>
