<svg width="24" height="18" viewBox="0 0 24 18" fill="none" xmlns="http://www.w3.org/2000/svg">
<g id="speaker">
<path id="Union" fill-rule="evenodd" clip-rule="evenodd" d="M14.2684 2.36224C14.3056 0.474473 12.2035 -0.659546 10.6466 0.4177L10.642 0.420935L4.50552 4.73181H2.37806C1.07677 4.73181 0 5.80858 0 7.10987V10.2806C0 11.5819 1.07677 12.6587 2.37806 12.6587H4.50083L10.4923 16.9645L10.5039 16.9727C12.0439 18.0383 14.2264 16.9349 14.2682 15.0543L14.2684 15.0367V2.36224ZM20.4636 3.00871C20.9697 2.59016 21.7193 2.66107 22.1378 3.16707C23.4524 4.7564 24.0008 6.66627 24.0008 8.6952C24.0008 10.7241 23.4524 12.634 22.1378 14.2234C21.7193 14.7293 20.9697 14.8003 20.4636 14.3818C19.9578 13.9631 19.8869 13.2136 20.3054 12.7076C21.202 11.6237 21.6227 10.2829 21.6227 8.6952C21.6227 7.10746 21.202 5.76666 20.3054 4.68279C19.8869 4.17677 19.9578 3.42727 20.4636 3.00871ZM17.0961 5.98138C17.6909 5.70305 18.3986 5.95957 18.677 6.55435C18.9878 7.21848 19.1398 7.95172 19.1135 8.69513C19.1398 9.43856 18.9878 10.1718 18.677 10.8359C18.3986 11.4307 17.6909 11.6872 17.0961 11.4089C16.5013 11.1306 16.2448 10.4227 16.5231 9.82798C16.6793 9.49434 16.7536 9.12525 16.7358 8.7517C16.734 8.71401 16.734 8.67627 16.7358 8.63858C16.7536 8.26504 16.6793 7.89595 16.5231 7.5623C16.2448 6.96752 16.5013 6.25973 17.0961 5.98138Z" fill="currentColor"/>
</g>
</svg>
