<svg width="49" height="49" viewBox="0 0 49 49" fill="none" xmlns="http://www.w3.org/2000/svg">
<g clip-path="url(#clip0_911_9859)">
<path d="M16.9336 31.184L43.265 39.961C43.7807 40.1311 44.3293 40.1764 44.8658 40.0927C45.4021 40.0094 45.9112 39.7996 46.3507 39.481C46.7937 39.1656 47.1554 38.7494 47.4061 38.2663C47.6563 37.7836 47.7883 37.248 47.7907 36.7039V8.48682C47.7883 7.94288 47.6563 7.40734 47.4061 6.92446C47.1554 6.44158 46.7937 6.02518 46.3507 5.70968C45.9081 5.39679 45.3979 5.19327 44.8614 5.11578C44.3251 5.03833 43.7779 5.08911 43.265 5.26397L16.9336 14.0411V31.184Z" stroke="black" stroke-width="3.6" stroke-linecap="round" stroke-linejoin="round"/>
<path d="M3.21875 22.6127C3.21875 23.7383 3.44046 24.8529 3.87121 25.8928C4.30197 26.9327 4.93334 27.8777 5.72925 28.6736C7.3367 30.2811 9.5169 31.1841 11.7902 31.1841H16.933V14.0412H11.7902C10.6646 14.0412 9.54998 14.2629 8.51003 14.6937C7.47011 15.1245 6.52519 15.7558 5.72925 16.5517C4.12181 18.1592 3.21875 20.3394 3.21875 22.6127Z" stroke="black" stroke-width="3.6" stroke-linecap="round" stroke-linejoin="round"/>
<path d="M11.793 31.1841V34.6128C11.793 35.7384 12.0147 36.853 12.4454 37.8929C12.8762 38.9328 13.5076 39.8777 14.3035 40.6735C15.0994 41.4696 16.0443 42.1008 17.0842 42.5318C18.1242 42.9624 19.2388 43.1842 20.3644 43.1842" stroke="black" stroke-width="3.6" stroke-linecap="round" stroke-linejoin="round"/>
</g>
<defs>
<clipPath id="clip0_911_9859">
<rect width="48" height="48" fill="white" transform="translate(0.818359 0.121002)"/>
</clipPath>
</defs>
</svg>
