<svg width="48" height="49" viewBox="0 0 48 49" fill="none" xmlns="http://www.w3.org/2000/svg">
<g clip-path="url(#clip0_911_9943)">
<path d="M23.994 3.30069C20.088 3.30191 16.2555 4.36256 12.9047 6.3697C9.55382 8.37683 6.81015 11.2553 4.96584 14.6984C3.12153 18.1415 2.24568 22.0205 2.43158 25.922C2.61748 29.8236 3.85816 33.6017 6.02149 36.8538L2.40039 46.4881L14.526 44.2952C17.4459 45.7222 20.6501 46.4716 23.8998 46.4877C27.1496 46.5038 30.3611 45.7861 33.2949 44.3883C36.2285 42.9905 38.8091 40.9484 40.8439 38.4147C42.8787 35.8806 44.3153 32.92 45.0467 29.7536C45.7777 26.5871 45.7851 23.2965 45.0675 20.1269C44.3501 16.9573 42.9265 13.9905 40.9028 11.4477C38.8791 8.90487 36.3076 6.85163 33.3798 5.44103C30.4521 4.0304 27.2438 3.29877 23.994 3.30069Z" stroke="currentColor" stroke-width="3.6" stroke-linecap="round" stroke-linejoin="round"/>
<path d="M19.0117 19.9111C19.0117 18.9256 19.304 17.9621 19.8515 17.1426C20.3991 16.3232 21.1773 15.6845 22.0879 15.3073C22.9984 14.9301 24.0004 14.8314 24.967 15.0237C25.9337 15.216 26.8216 15.6906 27.5185 16.3875C28.2154 17.0844 28.69 17.9723 28.8823 18.939C29.0745 19.9056 28.9759 20.9076 28.5987 21.8181C28.2215 22.7286 27.5828 23.5069 26.7634 24.0545C25.9439 24.602 24.9805 24.8943 23.9949 24.8943V28.2164" stroke="currentColor" stroke-width="3.6" stroke-linecap="round" stroke-linejoin="round"/>
<path d="M23.9965 36.522C23.5378 36.522 23.166 36.1499 23.166 35.6915C23.166 35.2327 23.5378 34.8608 23.9965 34.8608" stroke="currentColor" stroke-width="3.6" stroke-linecap="round" stroke-linejoin="round"/>
<path d="M23.9961 36.5223C24.4548 36.5223 24.8266 36.1506 24.8266 35.6918C24.8266 35.233 24.4548 34.8613 23.9961 34.8613" stroke="currentColor" stroke-width="3.6" stroke-linecap="round" stroke-linejoin="round"/>
</g>
<defs>
<clipPath id="clip0_911_9943">
<rect width="48" height="48" fill="white" transform="translate(0 0.386658)"/>
</clipPath>
</defs>
</svg>
