<svg width="48" height="49" viewBox="0 0 48 49" fill="none" xmlns="http://www.w3.org/2000/svg">
<g clip-path="url(#clip0_911_9864)">
<path d="M31.7461 17.6462C35.5267 17.6462 39.1523 19.148 41.8254 21.8212C44.4985 24.4944 46.0003 28.12 46.0003 31.9004C46.0094 34.7063 45.18 37.4509 43.6191 39.7822L46.0003 46.1547L37.9844 44.7125C36.0566 45.6526 33.9416 46.1456 31.7968 46.1547C29.6521 46.1637 27.5329 45.6885 25.5973 44.7648C23.6616 43.8411 21.9594 42.4922 20.6174 40.8192C19.2754 39.1463 18.3283 37.192 17.8466 35.1018C17.3649 33.0119 17.361 30.8401 17.8353 28.7484C18.3096 26.6567 19.2497 24.6991 20.5858 23.0212C21.9218 21.3434 23.6192 19.9887 25.5515 19.058C27.4839 18.1274 29.6013 17.6448 31.7461 17.6462Z" stroke="black" stroke-width="3.6" stroke-linecap="round" stroke-linejoin="round"/>
<path d="M33.7934 9.29501C31.5347 6.42091 28.4361 4.32262 24.9289 3.29226C21.4217 2.26191 17.6805 2.35079 14.2263 3.5465C10.772 4.74223 7.77649 6.98528 5.65683 9.96338C3.5372 12.9414 2.39892 16.5064 2.40047 20.1618C2.39007 23.6365 3.41783 27.0351 5.35193 29.9218L2.40047 37.7698L9.51082 36.4953" stroke="black" stroke-width="3.6" stroke-linecap="round" stroke-linejoin="round"/>
</g>
<defs>
<clipPath id="clip0_911_9864">
<rect width="48" height="48" fill="white" transform="translate(0 0.353821)"/>
</clipPath>
</defs>
</svg>
