<svg width="49" height="49" viewBox="0 0 49 49" fill="none" xmlns="http://www.w3.org/2000/svg">
<g clip-path="url(#clip0_911_9928)">
<path d="M21.4961 45.1516H28.1422" stroke="black" stroke-width="3.48923" stroke-linecap="round" stroke-linejoin="round"/>
<path d="M38.1122 20.2286C38.1122 16.7033 36.7119 13.3223 34.219 10.8295C31.7262 8.33675 28.3452 6.93631 24.8199 6.93631C21.2945 6.93631 17.9136 8.33675 15.4208 10.8295C12.928 13.3223 11.5276 16.7033 11.5276 20.2286V31.8594C11.5276 33.1814 11.0024 34.4494 10.0676 35.3842C9.13284 36.319 7.86496 36.844 6.54297 36.844H43.0968C41.7749 36.844 40.5068 36.319 39.572 35.3842C38.6372 34.4494 38.1122 33.1814 38.1122 31.8594V20.2286Z" stroke="black" stroke-width="3.48923" stroke-linecap="round" stroke-linejoin="round"/>
<path d="M3.21875 19.7966C3.22054 16.6335 3.97486 13.5162 5.41942 10.7022C6.86397 7.88823 8.95727 5.45833 11.5264 3.61319" stroke="black" stroke-width="3.48923" stroke-linecap="round" stroke-linejoin="round"/>
<path d="M46.419 19.7966C46.4174 16.6335 45.663 13.5162 44.2185 10.7022C42.7739 7.88823 40.6804 5.45833 38.1113 3.61319" stroke="black" stroke-width="3.48923" stroke-linecap="round" stroke-linejoin="round"/>
</g>
<defs>
<clipPath id="clip0_911_9928">
<rect width="48" height="48" fill="white" transform="translate(0.818359 0.553864)"/>
</clipPath>
</defs>
</svg>
