<svg width="49" height="49" viewBox="0 0 49 49" fill="none" xmlns="http://www.w3.org/2000/svg">
<path d="M24.61 27.6447C29.1537 27.6447 32.8371 23.9613 32.8371 19.4175C32.8371 14.8738 29.1537 11.1904 24.61 11.1904C20.0662 11.1904 16.3828 14.8738 16.3828 19.4175C16.3828 23.9613 20.0662 27.6447 24.61 27.6447Z" stroke="currentColor" stroke-width="3.6" stroke-linecap="round" stroke-linejoin="round"/>
<path d="M10.5586 40.4791C12.0271 38.0685 14.091 36.0762 16.552 34.694C19.0129 33.3115 21.788 32.5854 24.6106 32.5854C27.4332 32.5854 30.2083 33.3115 32.6692 34.694C35.1302 36.0762 37.1939 38.0685 38.6626 40.4791" stroke="currentColor" stroke-width="3.6" stroke-linecap="round" stroke-linejoin="round"/>
<path d="M24.6094 45.7444C36.4233 45.7444 46 36.1677 46 24.3538C46 12.5401 36.4233 2.9632 24.6094 2.9632C12.7957 2.9632 3.21875 12.5401 3.21875 24.3538C3.21875 36.1677 12.7957 45.7444 24.6094 45.7444Z" stroke="currentColor" stroke-width="3.6" stroke-linecap="round" stroke-linejoin="round"/>
</svg>
